<svg xmlns="http://www.w3.org/2000/svg" version="1.1" width="600px" height="600px" viewBox="0 0 200 200" style="overflow:hidden!important;"><g id="svga-group-wrapper"><g id="svga-group-backs-single"><path id="SvgjsPath11846" d="M0 0h200v200H0V0z" fill="#270051" stroke-width="none" opacity="1"></path><path id="SvgjsPath11847" d="M75.9 12.6C50 52.8 18 117.1 50.4 133.9S129.8 94.2 151 97.2s12.5 39.3-9.9 65.2c-17.2 19.8-61.2 31.1-86.7 37.6H200V0H80.6c-.2 3.7-1.7 7.9-4.7 12.6zM39.6 161.1c-15.5-5.6-22-17.7-15.1-47.5C28.7 95.6 16 84.2 0 83.2V200h37.5c11-12.4 13.5-34.7 2.1-38.9z" fill="#13004f" stroke-width="none" opacity="1"></path><path id="SvgjsPath11848" d="M98.7 29.5c-9.3-15.5-28.5-24.1-46-19-7.4 2.2-14.6 6.2-19.8 12-5.5 6.1-8.1 12.2-9.3 20.2-.7 4.4 5.8 8.3 8 3.4 3.6-8.1 11.7-15.6 20.1-18.4 4.6-1.5 9.7-1.9 14.3-.2 4.5 1.6 8.1 5.9 11.4 9.2 3.4 3.5 4.8 7.1 4.2 12-.4 3.9-1.9 8.9-4.9 11.6-2.9 2.5-6.9 3.1-10.5 2.5-2.4-.4-4.9-1.2-7.2-2-2.6-.9-4.5-2.8-7.3-3.2-2.9-.4-6.6.7-7.2 4.1-1.5 8.5 6.3 17 13.6 20.3 9 4.2 20 3.3 28.4-1.8 16.1-9.8 21.9-34.5 12.2-50.7zM200 107.6c-4.1 3.3-7.7 7.1-10.7 11.2-6.3 8.8-10.7 22.6-1.5 31.1 3.5 3.3 7.8 4.7 12.2 5v-47.3zm-73 58.2c-2.5-.7-5.1-1.1-7.7-1.2.3-.4.7-.8 1-1.3 4.1-5.4 9.2-12.6 9.1-19.7-.4-17.7-24.9-18.4-37.7-17.5-15 1.1-29.3 5.9-42.5 13-6.2 3.3-12 7.2-17.7 11.4-4.8 3.5-9.8 7.1-13.4 11.9-.3.2-.5.5-.8.7-3.5 3.1-7.3 6.7-8.3 11.4-1.2 5.5.6 11.4 5.5 14.4 8.4 5.3 21.2 2.1 30.4.6 4-.6 7.9-1.4 11.8-2.2 3.8 3.1 9.2 4.9 13.7 5.5 10.1 1.4 21-.2 28.8-7.2 4.6.6 9.8-.1 14.2-.2 1.4 0 2.9-.1 4.3 0-1 1-2 2-2.9 3-3.7 3.9-7.3 7.6-10.5 11.6h28.4c4.5-4.6 8.7-9.9 9-16.3.4-8.9-6.6-15.6-14.7-17.9zm-.1-122.4c-4.2 11.8-.1 24.1 12 28.7 10.6 4.1 23.2.7 33.2-3.4 9.9-4 19.3-9.1 27.8-15.4V0h-27.2c-9.6 4.4-18.5 10.3-26.6 17.2-8.2 7.1-15.5 15.8-19.2 26.2z" fill="#0a0035" stroke-width="none" opacity="1"></path><path id="SvgjsPath11849" d="M200 145c-1.6 1.1-3.1 2.2-4.6 3.2-22.9 15.8-46.9 31.1-65.8 51.8h.4c2.7-3 5.6-5.9 8.5-8.7 18.6-17.7 40.5-31.3 61.5-45.9v-.4zM10.9 200c2-3.4 4.2-6.6 6-9.4 15.4-22.6 36.5-40.8 58.9-56.3 26.9-18.7 56-33.8 83.2-51.9 14.4-9.5 29.4-20 41-33.1v-.5c-12.4 14.1-28.8 25.2-44.2 35.3-25.5 16.6-52.3 30.8-77.4 48-21.2 14.5-41.3 31.1-57 51.7-3.7 4.8-7.9 10.3-11.2 16.2h.7zm73.2-7.8c20.7-19.7 40.2-40.8 62.6-58.7 16.1-12.9 33.9-24.4 53.3-31.6v-.3c-8.6 3.2-16.9 7.3-24.9 11.9-38.6 22.4-67.1 56.9-99.8 86.6h.4c2.9-2.7 5.6-5.3 8.4-7.9zM0 154.1v.6c15.9-14.9 36.8-25.3 57.4-31.9 33.6-11 69.9-15 102.6-28.8-50.6 20.8-114.9 20.3-156.8 57.2-1.1 1-2.2 1.9-3.2 2.9zm200-85.3c-7.1 6.6-15.1 12.3-23.5 17.1-5.4 3.1-10.9 5.7-16.5 8.1 14.8-6.1 28.4-14 40-25.2zM144.1 0c-.3 1.5-.6 2.9-1.2 4.3-5.5 14.8-21.3 24.1-34.8 30.6C93.2 42.2 77 46.6 60.5 47.8c-16.4 1.3-34.6.3-48.9-8.4C7.1 36.7 3.1 33.1 0 28.9v.8c1.1 1.4 2.3 2.7 3.5 4C16.6 46.4 36 49 53.5 48.6c18.9-.5 37.7-5 54.7-13.2 14.2-7 31.5-17.4 35.8-33.8.1-.5.3-1.1.4-1.6h-.3z" fill="#49006b" stroke-width="none" opacity="1"></path><path id="SvgjsPath11850" d="M55.2 17.1c20.4 0 36.9 16.5 36.9 36.9S75.6 90.9 55.2 90.9 18.3 74.4 18.3 54s16.5-36.9 36.9-36.9z" fill="#b74513" stroke-width="none" opacity="1"></path><path id="SvgjsPath11851" d="M74.6 130.2c16.2 0 29.4 13.2 29.4 29.4S90.8 189 74.6 189s-29.4-13.2-29.4-29.4 13.2-29.4 29.4-29.4z" fill="#1350bc" stroke-width="none" opacity="1"></path><path id="SvgjsPath11852" d="M145.8 29c11.6 0 21 9.4 21 21s-9.4 21-21 21-21-9.4-21-21 9.4-21 21-21z" fill="#48a1af" stroke-width="none" opacity="1"></path><path id="SvgjsPath11853" d="M63.2 21.2c0 7.9-3 17-10.2 24.2s-24.2 22-9.2 20.1S60.4 43.7 67 37.1c5.7-5.7 10.3-9.5 15.3-8.2-5.4-5.8-12.7-9.9-20.9-11.3 1.1 1 1.8 2.2 1.8 3.6zM21.7 69.3c1.5-3.1 2-9 3.8-11.7 2.6-3.9 15.9-17.5 18.3-24 2.4-6.5 3.3-13.5.2-8.3s-2 6.3-7.8 12-9.6 15-8.9 8.1c.6-7 3.9-13.3 7.2-15.9s7.2-3.9 8.1-7.6c.3-1.3.2-2-.1-2.4-14 5.2-24 18.7-24 34.6-.1 5.4 1 10.6 3.2 15.2zm44.4 20c1.7-5.5 4.6-11.8 7.4-16.8 6.3-11.1 10.9-35.3 6.3-23.8-4.6 11.6-5.2 18.5-13.7 26-8.5 7.4-14.4 9.2-17.5 9.6s6.8-7 8.7-9.2c2-2.2 4.6-7.8-1.5-3.3S49 77.9 44 80.3c-4.5 2.2-8.2-.3-11.9 2.4 6.3 5.1 14.3 8.1 23.1 8.1 3.8.1 7.5-.5 10.9-1.5z" fill="#c62500" stroke-width="none" opacity="1"></path><path id="SvgjsPath11854" d="M58.1 46.4c-3.4 4.2-5.3 4.4-8.5 8.9S44 62.6 47 61.4c3-1.2 6.4-3.7 8.3-7.4s2.8-7.6 2.8-7.6zM21 59.4c1-4 .2-6.3 1.6-8.3S26 45 26 45s-2.2 6.1-2.8 8.3-2.2 6.1-2.2 6.1zm69.5-1.7c-1 7.5-8.7 15.3-12.1 17.8-3.4 2.6-7.9 9.7-5.7 7.9s5.3-5.9 8.5-7.9 4.9-3.2 6.9-6.5c.5-.9 1.2-1.8 1.9-2.8 1.3-3.8 2.1-7.9 2.1-12.1 0-4.4-.8-8.6-2.2-12.5.3 4.8 1.3 10.7.6 16.1zM58.3 86.8c-3.4 2.5-6.3 3-10.7 3.3 2.5.5 5 .8 7.7.8 1.8 0 3.6-.1 5.3-.4 1.5-1.9 3-4.2 5-6.5 4.2-4.8 6.5-11.7 5.7-11.9-.8-.2-8.1 11.1-13 14.7zM84 30.9c-6.3 1.5-12.6 6.1-15.4 8.6-3.6 3.2-6.3 15.8-12.5 24.7s-18 4.6-20 1.2 1.2-3.4 3.4-8.1 5.9-6.5 9.3-9.5c3.4-3 10.1-15.2 11.7-20 1.3-4 1-7.4-.5-10.3-.3 0-.6-.1-1-.1-.1 1.6-.3 4.2-.5 6.7-.4 4-4.2 12.3-7.3 16.8C48 45.4 36.9 55.1 33.9 59c-3 4-4.9 12.7 2 15.2s19.4-3.2 22.2-6.9S68.4 45.2 70.3 41c1.4-2.8 9.5-6.8 14.5-9-.2-.4-.5-.8-.8-1.1zm2.8 4c-5.6 2.9-11.3 5.2-13.5 12.1-2.6 7.9-1.6 7.7-3.8 13.7s-5.7 10.9-3 8.1c2.7-2.8 6.5-17.4 7.7-20.6s2-6.1 4.6-7.9c2.3-1.6 6.9-3.4 8.5-4.4-.1-.4-.3-.7-.5-1zM49 17.9c-.4 3.6 1 3.8 1.6 8.5s-.2 5.5-1 9.1-5.7 7.1-8.1 9.7-8.9 7.9-10.5 10.1-3.4 11.1-3.6 15.8c-.1 1.8-.6 3.8-1.3 5.5.3.4.7.9 1.1 1.3 1.2-5.9 2.7-17.4 4.6-21.5 2.2-4.8 8.3-8.1 15.6-15s3.8-7.1 5.7-12.7c1.4-3.9.8-8.2-.1-11.6-1.4.1-2.7.2-4 .5v.3zM18.4 53.5c1-1.9 2-4.2 2.7-6.7 1.8-6.9 2.8-5.2 6.7-12.3 2.4-4.3 4.3-7.4 5-9.8-8.6 6.7-14.3 17.1-14.4 28.8z" fill="#d66c03" stroke-width="none" opacity="1"></path><path id="SvgjsPath11855" d="M30.2 81.6s-4 10.9-5 17.3 3.3 18.8 32.7-15.3 37.7-64.8 35.5-70.4S78 17.7 78 17.7 88.1 7.4 95 9.5c6.8 2.1-.7 23.8-13.7 45.7s-31.8 45-48 52.7-12.2-9.1-3.1-26.3z" fill="#841000" stroke-width="none" opacity="1"></path><path id="SvgjsPath11856" d="M30.2 82.4s-8.4 18.3-4.5 23.7c3.5 4.8 26.4-11.9 41.7-35.2s29.7-51.3 27.3-58.4-20.2 7.8-20.2 7.8 12.2-7.8 16.2-7.8-.7 13.7-4.9 22.4-20 35.1-32 49.4-25.9 22.1-27.1 18.4c-1.2-3.8.9-14.6 3.5-20.3z" fill="#ffb852" stroke-width="none" opacity="1"></path><path id="SvgjsPath11857" d="M162.4 62.8c-4.5 3.6-9.8 6.4-15.5 6.7 1.5-1.4 2.9-2.9 4.2-4.4 4.5-5.1 9.1-8.3 14.8-11.7l.6-.3c.1-.4.1-.8.1-1.2-1.7 1.2-3.6 2-5.5 3-.5.3-1 .5-1.4.8l3.9-3c1-.8 2.1-1.5 3.1-2.2v-.2c0-.5 0-.9-.1-1.4-3.7 3.5-8.4 6.8-12.5 9.5-6.9 4.5-15.2 4.2-22.7 6.9 0 0 0-.1-.1-.1 3.2-2.3 6.8-4.3 9.6-6.3 5.6-4 11-8.4 15.4-13.6 1.9-2.3 3.8-5.5 5-8.9l-1.2-1.2c-3.1 8.3-13.5 17-18.9 21-2.7 2-6.3 4-9.6 6.2.3-.4.6-.8.9-1.1 5.3-6.2 11.6-11.5 16.6-17.9 2.6-3.3 5.2-7.7 5.3-12.1-.7-.3-1.5-.6-2.2-.9.1.4.1.8.1 1.1-.1 2.1-.9 4.2-1.8 6-1.5 2.9-3.6 5.5-5.9 7.9-4.4 4.8-9.3 9.3-13.6 14.3-.2.2-.3.4-.5.6.4-3.2 2.1-6.6 3.7-9.2.8-.7 1.5-1.4 2.2-2.1 1.4-1.5 2.9-3.2 4.1-5.1 1.6-1.6 3.2-3.1 4.6-4.9 2.2-2.8 3.4-6.3 2.6-9.4h-.7c.9 3.5-1.5 7.2-4.6 10.7.8-2.2 1.1-4.5.3-6.7-.6-1.6-1.4-2.7-2.4-3.4-2 .5-3.8 1.3-5.5 2.3 1.6.4 3.1.8 4.7 1.3-1.1 3.9-3.6 6.8-7.1 9.1-.8.6-1.7 1.1-2.6 1.5-.7.2-1.3.5-2 .7-1 .5-1.8.6-2.5.2-.4 1.7-.7 3.4-.7 5.2v.5c.8.6 2.1.9 3.8.8.9 0 1.8-.3 2.7-.6-.8.6-1.5 1.1-2.4 1.6-1.1.7-2.4 1.5-3.8 1.8.1.6.3 1.1.4 1.6 2.1-.6 4.1-1.6 5.9-2.8-1.3 2.6-2.4 5.8-2.3 8.7-.2.2-.3.4-.5.6 1.1 1.5 2.3 2.8 3.7 4 4.9-1.8 10.2-2.1 15.3-3.6 2.6-.8 5-2 7.2-3.5-1.2 1-2.3 2.1-3.4 3.2-2.9 2.9-5.6 6-8.8 8.5.8.1 1.6.2 2.4.2l.2-.2c1.6.1 3.2 0 4.9-.3 5.3-1.6 9.6-4.4 12.5-8.2zm-33.8-13.3c-1.9.4-3.1-.5-3.5-2.8.6.1 1.3 0 2.1-.1 5.8-.8 12.9-6.7 13.7-12.9.1 0 .1 0 .2.1 1.4 1.9-.5 5.6-1.5 7.3-.5.9-1.1 1.8-1.7 2.6-1.4 1.6-3.1 3-5.1 4.2-1.2.9-2.5 1.7-4.2 1.6zm34.9-9.1c.1-.4.3-.7.4-1.1-.3-.5-.6-1-.9-1.4-1 2.5-2.3 5-2.4 7.6-.1 2.2 1.4 3.8 3.6 3.7.9 0 1.8-.3 2.5-.8 0-.5-.1-1-.1-1.4-.2.2-.4.3-.6.4-1.4 1.3-2.8.7-4-1.9.1-.9.3-1.7.6-2.5.2-.8.5-1.7.9-2.6z" fill="#6bd3dd" stroke-width="none" opacity="1"></path><path id="SvgjsPath11858" d="M139 63.7c3.7-2 7.5-3 10.8-5.7-3.3 2.4-7.5 3.7-10.9 5.6-.1 0 0 .1.1.1zm15.6-11.9c-1-1.3-3.6 1.8-4.1 2.2-2.1 1.8-4.1 3.6-6.6 5-1.7 1-3.4 1.9-4.6 3.5-.1.1.1.2.1.1 2.1-2.3 5.2-3.4 7.7-5.3 1-.8 1.9-1.6 2.8-2.4.5-.5 1-1 1.6-1.4.9-.6 3.3-2 2.2.1-.5 1-1.1 1.8-1.8 2.5 1.5-1.4 3.4-3.4 2.7-4.3zm-4.8 6.2c.7-.5 1.4-1.1 2.1-1.8-.9.8-1.6 1.5-1.9 1.7-.1 0-.1.1-.2.1zm-2.1-19.3c-1.1 1.8-2.6 3.5-4.1 5-2.1 2.1-4.3 4-6.6 5.9-3.5 2.9-7.1 5.7-10.3 9 .1.1.1.2.2.4 5.8-5.6 12.7-10.1 18.1-16.1 3.6-4 6.5-9.5 3-13.7h-.7c1.8 2.6 1.9 6.9.4 9.5zm13.9 24.1c-4 3.1-9 6.4-14.3 8.2.9-.1 1.7-.2 2.5-.3 4.5-1.9 8.7-4.8 12.1-7.4.1-.1.2-.1.3-.2.5-.6.9-1.2 1.3-1.8-.6.4-1.2.9-1.9 1.5zM154 34.9c-.1.7-.5 3-1.1 3.2-2.4.7-1-1.7-.8-2.4.6-2 .6-4.1-.4-5.8-.1 0-.2-.1-.3-.1.8 1.4 1 3 .7 4.7-.2 1-1.1 2.4-1 3.5.1.8.7 1.3 1.4.9 1.2-.6 1.8-3.5 1.9-4.6.2-1.2.1-2.3-.1-3.5-.1 0-.2-.1-.3-.1.2 1.3.2 2.7 0 4.2zm-26.3 4.6c1.3-.8 2.8-1.4 4.1-2 .5-.2 1-.5 1.5-.8.1-.1.2-.1.3-.2.1 0 .2-.1.2-.2.3-.2.6-.5.9-.7 1.7-1.4 3.1-3.3 3.8-5.2-.3.1-.5.2-.8.3-.1.2-.2.3-.2.5-.1.2-.2.5-.4.7.1-.2.1-.4.2-.6V31c-.3.1-.5.2-.8.4-.1.7-.3 1.3-.6 1.8-1.1 2.4-3.2 3.5-5.5 4.5-.2.1-.3.1-.5.2-.5.1-.9.2-1.4.3-.1.1-.1.2-.2.3h.6c-.3.1-.5.2-.8.4-.1 0-.2.3-.4.6zm8.3 4.1c1.5-1.9 3.3-5.4 4.2-8.9.8-1.7 1.6-3.5 2.2-5.4-.1 0-.3 0-.4.1-.4 1.2-.9 2.4-1.4 3.5.1-.5.1-1 .1-1.5.2-.4.3-.8.3-1.2v-.6c-.2 0-.4.1-.7.2v.2c-.1.6-.2 1.2-.6 1.9-.5 1-1.6 1.9-2.4 2.7-2.8 2.7-6.4 5.5-10.3 6-.1.2-.2.3-.2.5 2.5-.2 4.8-1.4 6.9-2.9 2.1-1.4 5.2-3.6 6.6-6.2 0 .5-.1 1.1-.2 1.6C139 36 137.8 38 137 39c-1.2 1.7-7.7 8.8-12.1 9.1v.5c4.4-.4 11-7.2 12.5-9.3.6-.8 1.4-2.1 2.2-3.6-.7 2.3-1.8 4.5-2.7 5.9-1.1 1.6-2.4 3.1-3.8 4.4-1.1 1-2.4 2-3.7 2.7-1.8 1.1-3.3 1.5-4.6 1.2v.5c4.4.4 8.7-3.7 11.2-6.8zm-4.4 8.4c3.8-4 9-7.1 12-11.8 2.1-3.2 3.1-7.3 1.1-10.9-.1-.1-.1-.2-.2-.2-.8 0-1.5.1-2.2.2l2.7 1.6c.1 1.1.3 2.1.4 3.2-.1 3-1.5 5-3.2 7.2-1.6 1.9-3.4 3.5-5.2 5-3.4 2.9-6.7 6-9.4 9.5-.4.6-.9 1.2-1.3 1.9.1.1.1.3.1.4 1.7-2.3 3.6-4.4 5.2-6.1zm30.8 3.8c-.2.3-.3.6-.5.9-3.2 2.1-6.6 3.9-9.2 6.7-2.5 2.7-4.7 5.3-7.2 7.4-.1.1-.2.1-.3.2h1.5l.3-.3c6.3-3.1 11.8-7.5 15.4-13.7 1.5-.9 2.8-1.8 4.1-2.9.1-.3.1-.6.1-.8-1.1 1.1-2.4 2-3.7 2.9.2-.4.5-.9.7-1.3 1.4-2.8 2.3-6.2 2.6-9.8-.1-.4-.2-.8-.3-1.3-.3 4.2-1.5 8.4-3.5 12zm-14.3 13.7c1.1-1.1 2.1-2.2 3.1-3.5 3-3.5 6.2-6.2 10.2-8.5-3.3 5.3-8 9.2-13.3 12zm-2.9-3.9c-2.6 1.4-5.4 2.6-8.3 3.4.6.3 1.2.5 1.8.7 2.3-.9 4.4-2 6.4-3.3 3.4-1.9 6.5-4.2 9.3-7.3 5.4-6.1 8.4-14 7.9-21.9-.2-.3-.4-.5-.6-.8.6 8.8-2.7 17.4-9.3 23.8-1 .9-2 1.8-3 2.5 2-2 3.8-4.4 5.2-7.1 1.4-2.6 2.4-5.2 3.1-7.8 1.5-4.7 1.8-9.6.8-14.5-.2-.2-.5-.4-.8-.6.4 1.4.6 2.8.7 4.3-.2-1.3-.5-2.5-.9-3.8V33v.2c-.1-.3-.2-.5-.3-.8-.2-.1-.3-.2-.5-.3.3.7.5 1.3.7 2-.2 2.3-1.2 4.7-2.6 7 .1-.4.3-.8.4-1.1.7-2.3 1-5.4.7-8.3l-.6-.3c.3 2.6 0 5.4-.6 7.7-.5 1.8-1.1 3.6-2 5.2-2.2 3-4.7 5.7-6.4 7-4.7 3.8-12.9 8.5-19.7 7.7.1.1.1.2.2.3 8.3 1.2 18.9-6.2 23.8-11.4-1.2 1.7-2.5 3.2-4 4.6-3.9 3.6-13 7.2-15.4 12.7.1.1.3.2.4.4 2.9-5.6 11.1-8.5 15.5-12.6 2.9-2.7 5.2-5.9 6.8-9.5 1.7-2.8 3.1-6.2 3.4-9.3.6 1.9 1 3.8 1 5.8 0 .5 0 1-.1 1.6 0 .4-.1.8-.1 1.2 0 .2 0 .3-.1.5-.1.5-.1 1-.2 1.4 0 .2-.1.4-.1.6-.1.5-.2.9-.3 1.4 0 .1-.1.2-.1.3-.7 2.4-1.7 4.7-3.1 6.9-2.6 4.2-6.2 7.7-10.3 10.3-2.2 1.4-5.4 3.3-8.5 4.1.3.2.6.3 1 .5 5.9-1.8 12.2-7.1 15.2-10.5.8-.9 1.5-1.9 2.2-2.8-.1.2-.2.3-.3.5-2 4.1-4.9 7.2-8.3 9.6z" fill="#ffffff" stroke-width="none" opacity="1"></path><path id="SvgjsPath11859" d="M57 137.1c6.6 3.6 13.7 6.1 21.1 7.3 6.2 1 14.8 2.1 19.7-2.9-.3-.4-.6-.7-.8-1.1-1.2-1.4-2.6-2.8-4-3.9-.2.1-.4.3-.6.4-2.2 1.3-5.9.8-8.2.5-5.1-.5-10.2-1.8-14.9-3.7-1.5-.6-3-1.3-4.5-2-3 1.1-5.9 2.7-8.5 4.8.1.3.4.5.7.6zm15.3 32.7c-7.6-1.2-15.3-3-22.1-6.7-1.8-1-3.5-2.1-5.1-3.2.1 6.7 2.4 13.4 7 18.8 8.3 9.7 21.5 12.7 32.8 8.4-3.1-.3-6.3-1-9.2-2-6.1-2.1-11.5-5.6-16.8-9.2 5 1.3 10.2 2 15.2 2.6 8 .9 16.3.7 23.9-1.3 2.5-3.4 4.3-7.2 5.2-11.2-.5 0-.9-.1-1.4-.1-8.8-.7-17.3-3.7-25.5-7-8.2-3.4-16.3-7.4-23.2-13.1-1-.8-2-1.7-3-2.6-1.4 2.1-2.5 4.3-3.3 6.6 5 4.4 11.2 7.7 16.3 10.3 8.9 4.5 18.6 8.3 28.5 10.4-6.5.7-13.1.2-19.3-.7z" fill="#003daa" stroke-width="none" opacity="1"></path><path id="SvgjsPath11860" d="M104.2 161.9c.4-3.9-.1-7.8-1.2-11.6-1.2-3.7-3.1-7.2-5.7-10.2s-5.7-5.5-9.2-7.2c-3.5-1.8-7.3-2.8-11.2-3.1-7.8-.6-15.8 2.1-21.6 7.2-2.9 2.6-5.3 5.7-7.1 9.1-1.7 3.5-2.8 7.2-3.1 11.1-.3 3.9.1 7.8 1.3 11.5s3 7.2 5.5 10.2 5.6 5.5 9.1 7.2c3.5 1.8 7.3 2.8 11.2 3 7.8.5 15.6-2.2 21.5-7.2 5.9-4.9 9.7-12.2 10.5-20zm-.7-.3c-6.8 1.4-14.5.7-20.9-.7-1.4-.3-2.8-.7-4.2-1 .9 0 1.8 0 2.8-.1 7.3-.5 15.9-2.5 21.2-7.9.9 3.1 1.3 6.4 1.1 9.7zm-1.3-10.6c-4.5.6-9.4-.4-13.4-1.3-5.7-1.4-11.1-3.7-16-6.8-4-2.6-7.7-5.8-10.8-9.4 1.2-.6 2.4-1 3.6-1.4.1 0 .2-.1.3-.1 4.6 2.6 10.9 3.3 15.6 3.8 2.9.3 6.3.5 9.6.2 2 1.4 3.8 3.1 5.4 4.9 2.6 2.9 4.5 6.3 5.7 10.1zm-25.4-20.3c4.7.4 9.2 1.9 13.2 4.4-1.8.2-3.6.2-5.1.2-3.9-.1-7.9-.7-11.7-1.6-1.3-.3-2.7-.7-4-1.1-.8-.3-1.6-.6-2.3-1 3.2-.8 6.6-1.2 9.9-.9zm-15.4 2.9c2.3 2.6 4.9 4.9 7.4 6.9 6.2 4.9 13.6 8.2 21.3 9.8 3.5.7 8.1 1.5 12.1 1v.1c-1.4 1.4-2.9 2.6-4.6 3.6-6.1 3.5-13.7 4.7-20.8 4.5-4.2-1.3-8.2-2.9-12-5.1-2.7-1.5-5.2-3.2-7.5-5.3-1.2-1.1-2.4-2.2-3.4-3.6-.5-.7-1.6-2.2-2.5-4 1.2-1.5 2.6-2.9 4.1-4.2 1.9-1.4 3.9-2.6 5.9-3.7zM51.2 142c1 1.9 2.3 3.6 3 4.5 5.3 6.3 13.2 10.3 21 12.9-.3 0-.6 0-.9-.1-9.2-.6-19.3-3.5-27.6-8.7 1-3 2.5-6 4.5-8.6zm-4.7 9.3c9.1 5.6 20.4 8.4 30.4 8.6 7.5 2.3 17.8 4 26.6 2.2-.3 3.7-1.2 7.3-2.9 10.7-.9 1.8-2 3.5-3.3 5.1-1.9.8-3.9 1.5-5.9 1.9-14.6 3.1-30.2-2.8-41.8-11.7-1.3-1-2.5-2.1-3.7-3.2-.5-2.6-.7-5.2-.5-7.8.1-1.8.5-3.8 1.1-5.8zm-.4 14.5c5.9 5.4 13.4 9.4 20.5 12 9.6 3.6 20.6 4.4 30.2.8-.7.8-1.3 1.5-2.1 2.2-3.3 1.8-6.9 3.1-10.7 4-3.9.4-7.9.3-11.8-.2-6.3-.8-13.9-3.2-20.5-7.1-2.7-3.4-4.6-7.4-5.6-11.7zM93.4 182c-.6.5-1.3 1-2 1.5-1.4.3-2.7.6-4.1.9 2.1-.6 4.1-1.4 6.1-2.4zm-41.1-3.8c6.5 3.9 13.9 6.4 21.5 7.2 2.2.2 4.4.3 6.6.2-4 .7-8 .9-11.8.8-2.2-.1-4.3-.3-6.4-.6-3.7-1.8-7-4.3-9.7-7.4 0-.1-.1-.1-.2-.2zm20 10.4c-2.9-.3-5.7-1-8.4-2.1 1.5.2 3.1.4 4.7.4 4.9.1 10.2-.3 15.4-1.6 2.1-.2 4.3-.6 6.4-1-2.1 1.3-4.3 2.4-6.7 3.1-3.8 1.1-7.6 1.5-11.4 1.2z" fill="#ffffff" stroke-width="none" opacity="1"></path><path id="SvgjsPath11861" d="m111.5 40.1-2.4-.2c-.1 0-.3 0-.4.2l-1.5 1.8c-.2.3-.7.2-.7-.2l-.5-2.3c0-.1-.1-.2-.2-.3l-2.2-.9c-.3-.1-.4-.6-.1-.7l2-1.2c.1-.1.2-.2.2-.3l.1-2.4c0-.3.4-.5.7-.3l1.8 1.5c.1.1.2.1.4.1l2.3-.6c.3-.1.6.2.5.6l-.9 2.2c-.1.1 0 .3 0 .4l1.3 2c.2.3 0 .7-.4.6zm42.6 118.5-2.4-.2c-.1 0-.3.1-.4.1l-1.5 1.9c-.2.3-.6.2-.7-.2l-.6-2.3c0-.1-.1-.2-.2-.3l-2.2-.9c-.3-.1-.4-.6-.1-.7l2-1.2c.1-.1.2-.2.2-.3l.1-2.4c0-.3.4-.5.7-.3l1.8 1.6c.1.1.2.1.4.1l2.3-.6c.3-.1.6.2.5.6l-.9 2.2c-.1.1 0 .3 0 .4l1.3 2c.3.2 0 .5-.3.5zM17.2 34.2l-2.4-.2c-.1 0-.3 0-.4.2L13 36c-.2.3-.6.2-.7-.2l-.6-2.3c0-.1-.1-.2-.2-.3l-2.2-.9c-.3-.1-.4-.6-.1-.7l2-1.2c.1-.1.2-.2.2-.3l.1-2.4c0-.3.4-.5.7-.3L14 29c.1.1.2.1.4.1l2.3-.6c.3-.1.6.2.5.6l-.9 2.2v.4l1.3 2c.2.2-.1.5-.4.5zm81.6 75.5-2.4-.2c-.1 0-.3.1-.4.2l-1.5 1.8c-.2.3-.7.2-.7-.2l-.6-2.3c0-.1-.1-.2-.2-.3l-2.2-.9c-.3-.1-.4-.6-.1-.7l2-1.2c.1-.1.2-.2.2-.3l.1-2.4c0-.3.4-.5.7-.3l1.8 1.6c.1.1.2.1.4.1l2.3-.6c.3-.1.6.2.5.6l-.9 2.2c-.1.1 0 .3 0 .4l1.3 2c.2.1 0 .5-.3.5zm-43.3 20.9-2.4-.2c-.1 0-.3.1-.4.1l-1.5 1.9c-.2.3-.7.2-.7-.2l-.5-2.3c0-.1-.1-.2-.2-.3l-2.2-.9c-.3-.1-.4-.6-.1-.7l2-1.2c.1-.1.2-.2.2-.3l.1-2.4c0-.3.4-.5.7-.3l1.8 1.6c.1.1.2.1.4.1l2.3-.6c.3-.1.6.2.5.6l-.9 2.2v.4l1.3 2c.1.1-.1.5-.4.5zM172.7 112l-1.5-.1c-.1 0-.2 0-.2.1l-1 1.2c-.1.2-.4.1-.5-.1l-.4-1.5c0-.1-.1-.2-.2-.2l-1.4-.6c-.2-.1-.2-.4 0-.5l1.3-.8c.1-.1.1-.1.1-.2l.1-1.5c0-.2.3-.3.4-.2l1.1 1c.1.1.2.1.2.1l1.5-.4c.2-.1.4.2.3.4l-.6 1.4v.2l.8 1.3c.4.2.2.5 0 .4zm20.7 76-1.5-.1c-.1 0-.2 0-.2.1l-1 1.2c-.1.2-.4.1-.5-.1l-.4-1.5c0-.1-.1-.1-.2-.2l-1.4-.6c-.2-.1-.2-.4 0-.5l1.3-.8c.1-.1.1-.1.1-.2l.1-1.5c0-.2.3-.3.4-.2l1.1 1c.1.1.2.1.2.1l1.5-.4c.2-.1.4.1.3.4l-.6 1.4v.2l.8 1.3c.3.2.2.4 0 .4zM78.6 96.5l-1.6-.1c-.1 0-.2 0-.2.1l-1 1.2c-.1.2-.4.1-.5-.1l-.3-1.5c0-.1-.1-.2-.2-.2l-1.4-.6c-.2-.1-.2-.4 0-.5l1.3-.8c.1-.1.1-.1.1-.2l.1-1.5c0-.2.3-.3.4-.2l1.2 1c.1.1.2.1.2.1l1.5-.4c.2-.1.4.2.3.4l-.5 1.4v.2l.8 1.3c.1.1 0 .4-.2.4zm47.6 61.6-1.5-.1c-.1 0-.2 0-.2.1l-1 1.2c-.1.2-.4.1-.5-.1l-.3-1.5c0-.1-.1-.1-.2-.2l-1.4-.6c-.2-.1-.2-.4 0-.5l1.3-.8c.1-.1.1-.1.1-.2l.1-1.5c0-.2.3-.3.4-.2l1.2 1c.1.1.2.1.2.1l1.5-.4c.2-.1.4.1.3.4l-.6 1.4v.2l.8 1.3c.1.2 0 .5-.2.4zm54.9-74.2-1.2-.9c-.1-.1-.2-.1-.2 0l-1.4.5c-.2.1-.4-.1-.3-.3l.4-1.4v-.2l-.9-1.2c-.1-.2 0-.4.2-.4h1.5c.1 0 .2 0 .2-.1l.8-1.3c.1-.2.4-.2.5.1l.5 1.4c0 .1.1.2.2.2l1.5.4c.2.1.3.3.1.5l-1.2.9c-.1.1-.1.1-.1.2l.1 1.5c-.2.1-.5.3-.7.1zM19.7 20.1l-1.2-.9c-.1 0-.2-.1-.2 0l-1.4.5c-.2.1-.4-.1-.3-.3l.5-1.5v-.2L16 16.5c-.1-.2 0-.4.2-.4h1.5c.1 0 .2 0 .2-.1l.8-1.3c.1-.2.4-.1.5.1l.5 1.4c0 .1.1.1.2.2l1.5.4c.2.1.3.3.1.5l-1.2.9c-.1 0-.1.1-.1.2l.1 1.5c-.1.2-.4.3-.6.2zm-4.6 160.4-1.2-.9c-.1-.1-.2-.1-.2 0l-1.4.5c-.2.1-.4-.1-.3-.3l.4-1.4v-.2l-.9-1.2c-.1-.2 0-.4.2-.4h1.5c.1 0 .2 0 .2-.1l.8-1.3c.1-.2.4-.1.5.1l.5 1.4c0 .1.1.1.2.2l1.5.4c.2.1.3.3.1.5l-1.2.9c-.1.1-.1.1-.1.2l.1 1.5c-.2 0-.5.2-.7.1zm9.2-23.9-1.2-.9c-.1-.1-.2-.1-.2 0l-1.4.5c-.2.1-.4-.1-.3-.3l.5-1.4v-.2l-.9-1.2c-.1-.2 0-.4.2-.4h1.5c.1 0 .2 0 .2-.1l.8-1.3c.1-.2.4-.1.5.1l.5 1.4c0 .1.1.1.2.2l1.5.4c.2.1.3.3.1.5l-1.2.9c-.1.1-.1.1-.1.2l.1 1.5c-.4.1-.6.2-.8.1zM126.9 91l-2.5-2.6c-.1-.2-.3-.2-.6-.2l-3.5.6c-.5.1-.9-.4-.7-.9l1.7-3.2c.1-.2.1-.4 0-.6l-1.7-3.2c-.2-.5.1-1 .7-.9l3.5.6c.2 0 .4 0 .6-.2l2.5-2.6c.4-.4 1-.2 1.1.3l.5 3.6c0 .2.2.4.3.5l3.2 1.6c.5.2.5.9 0 1.1l-3.2 1.6c-.2.1-.3.3-.3.5l-.5 3.6c-.1.6-.8.8-1.1.4zm7.1 92.6-2.5-2.6c-.1-.1-.4-.2-.6-.2l-3.5.6c-.5.1-.9-.4-.7-.9l1.7-3.2c.1-.2.1-.4 0-.6l-1.7-3.2c-.2-.5.1-1 .7-.9l3.5.6c.2 0 .4 0 .6-.2l2.5-2.6c.4-.4 1-.2 1.1.3l.5 3.6c0 .2.2.4.3.5l3.2 1.6c.5.2.5.9 0 1.1l-3.2 1.6c-.2.1-.3.3-.3.5l-.5 3.6c-.2.6-.8.8-1.1.4zm51.8-150.1-3.4-1.2c-.2-.1-.4 0-.6.1l-2.9 2.1c-.4.3-1 0-1-.5l.1-3.6c0-.2-.1-.4-.3-.5l-2.9-2.1c-.4-.3-.3-1 .2-1.1l3.4-1c.2-.1.4-.2.4-.4l1.1-3.4c.2-.5.8-.6 1.1-.2l2 3c.1.2.3.3.5.3h3.6c.5 0 .8.6.5 1l-2.2 2.8c-.1.2-.2.4-.1.6l1.1 3.4c.3.4-.2.9-.6.7zM32.1 142.8l-3.4-1.2c-.2-.1-.4 0-.6.1l-2.9 2.1c-.4.3-1 0-1-.5l.1-3.6c0-.2-.1-.4-.3-.5l-2.9-2.1c-.4-.3-.3-1 .2-1.1l3.4-1c.2-.1.4-.2.4-.4l1.1-3.4c.2-.5.8-.6 1.1-.2l2 3c.1.2.3.3.5.3h3.6c.5 0 .8.6.5 1l-2.2 2.8c-.1.2-.2.4-.1.6l1.1 3.4c.4.4-.1.8-.6.7z" fill="#ffd86c" stroke-width="none" opacity="1"></path><path id="SvgjsPath11862" d="M107 42.6h-.2c-.3-.1-.6-.3-.7-.7l-.6-2.3-2.2-.8c-.3-.1-.6-.4-.6-.8s.1-.7.4-.9l2-1.2.1-2.3c0-.3.2-.7.6-.8s.7-.1 1 .2l1.8 1.5 2.2-.6c.3-.1.7 0 .9.3.2.3.3.6.2 1l-.9 2.2 1.3 1.9c.2.3.2.7 0 1s-.5.5-.9.4l-2.4-.2-1.4 1.8c-.1.2-.4.3-.6.3zm-3.1-4.7 2.1.8c.3.1.5.3.6.6l.5 2.2 1.4-1.7c.2-.2.5-.4.8-.3l2.3.2-1.3-1.9c-.2-.2-.2-.6-.1-.8l.8-2-2.1.6c-.3.1-.6 0-.8-.2l-1.7-1.4-.1 2.2c0 .3-.2.6-.4.7l-2 1zm7.7 1.7zm37.9 121.5h-.2c-.3-.1-.6-.3-.7-.7l-.6-2.3-2.2-.8c-.3-.1-.6-.4-.6-.8s.1-.7.4-.9l2-1.2.1-2.3c0-.4.2-.6.6-.8s.7-.1 1 .1l1.8 1.6 2.2-.6c.3-.1.7 0 .9.3s.3.6.2.9l-.9 2.2 1.3 1.9c.2.3.2.7 0 1s-.5.5-.9.4l-2.4-.2-1.4 1.8c0 .3-.3.4-.6.4zm-3.1-4.7 2.1.8c.3.1.5.4.6.6l.5 2.2 1.4-1.7c.2-.2.5-.4.8-.3l2.3.2-1.3-1.9c-.2-.2-.2-.6-.1-.9l.9-2.1-2.1.6c-.3.1-.6 0-.8-.2l-1.7-1.4-.1 2.2c0 .3-.2.6-.4.7l-2.1 1.2zm7.7 1.7zM12.6 36.7h-.2c-.3-.1-.6-.3-.7-.7l-.6-2.3-2.1-.8c-.3-.1-.6-.4-.6-.8s.1-.7.4-.9l2-1.2.1-2.3c0-.4.2-.6.6-.8.3-.1.7-.1 1 .1l1.8 1.5 2.2-.6c.3-.1.7 0 .9.3s.3.6.2 1l-.9 2.2 1.3 1.9c.2.3.2.7 0 1s-.5.5-.9.4l-2.4-.2-1.4 1.8c-.1.3-.4.4-.7.4zM9.5 32l2.1.8c.3.1.5.3.6.6l.5 2.2 1.4-1.7c.2-.2.5-.4.8-.3l2.3.2-1.3-1.9c-.2-.2-.2-.6-.1-.9l.9-2-2.1.6c-.3.1-.6 0-.8-.2L12 27.9l-.1 2.2c0 .3-.2.6-.4.7l-2 1.2zm7.7 1.7zm77 78.4H94c-.3-.1-.6-.3-.7-.7l-.6-2.3-2.2-.8c-.3-.1-.6-.4-.6-.8s.1-.7.4-.9l2-1.2.1-2.3c0-.3.2-.7.6-.8s.7-.1 1 .2l1.8 1.6 2.2-.6c.3-.1.7 0 .9.3.2.3.3.6.2.9l-.9 2.2 1.3 1.9c.2.3.2.7 0 1s-.5.5-.9.4l-2.4-.2-1.4 1.8c-.1.2-.3.3-.6.3zm-3.1-4.7 2.1.8c.3.1.5.3.6.6l.5 2.2 1.4-1.7c.2-.2.5-.4.8-.3l2.3.2-1.3-1.9c-.2-.2-.2-.6-.1-.8l.8-2.1-2.2.6c-.3.1-.6 0-.8-.2l-1.7-1.4-.1 2.2c0 .3-.2.6-.4.7l-1.9 1.1zm7.7 1.8zm-47.9 23.9h-.2c-.3-.1-.6-.3-.7-.7l-.5-2.3-2.2-.8c-.3-.1-.5-.4-.6-.8s.1-.7.4-.9l2-1.2.1-2.3c0-.3.2-.7.5-.8s.7-.1 1 .2l1.8 1.6 2.2-.6c.3-.1.7 0 .9.3s.3.6.2.9l-.9 2.2 1.3 1.9c.2.3.2.7 0 1s-.5.5-.9.4l-2.4-.2-1.4 1.8c-.1.1-.3.3-.6.3zm-3.1-4.7 2.1.8c.3.1.5.4.6.6l.5 2.2 1.4-1.7c.2-.2.5-.4.8-.3l2.3.2-1.3-1.9c-.2-.2-.2-.6-.1-.8l.8-2.1-2.1.6c-.3.1-.6 0-.8-.2l-1.7-1.4-.1 2.2c0 .3-.2.6-.4.7l-2 1.1zm7.7 1.7zm114.3-16.5h-.1c-.2-.1-.4-.2-.4-.4l-.4-1.5-1.4-.5c-.2-.1-.4-.3-.4-.5s.1-.4.3-.6l1.3-.8.1-1.5c0-.2.1-.4.4-.5.2-.1.4-.1.6.1l1.1 1 1.4-.4c.2-.1.4 0 .6.2s.2.4.1.6l-.6 1.4.8 1.2c.1.2.1.4 0 .6s-.3.3-.6.3l-1.5-.1-.9 1.2c0 .1-.2.2-.4.2zm-1.9-3 1.3.5c.2.1.3.2.4.4l.3 1.4.9-1.1c.1-.2.3-.2.5-.2l1.4.1-.8-1.2c-.1-.2-.1-.4-.1-.5l.5-1.3-1.4.4c-.2.1-.4 0-.5-.1l-1.1-.9-.1 1.4c0 .2-.1.4-.3.5l-1 .6zm4.9 1.1zm17.7 77.9h-.1c-.2-.1-.4-.2-.4-.4l-.4-1.5-1.4-.5c-.2-.1-.4-.3-.4-.5s.1-.4.3-.6l1.3-.8.1-1.5c0-.2.1-.4.4-.5.2-.1.4-.1.6.1l1.1 1 1.4-.4c.2-.1.4 0 .6.2s.2.4.1.6l-.6 1.4.8 1.2c.1.2.1.4 0 .6s-.3.3-.6.3l-1.5-.1-.9 1.2c-.1.1-.3.2-.4.2zm-2-3 1.3.5c.2.1.3.2.4.4l.3 1.4.9-1.1c.1-.1.3-.2.5-.2l1.4.1-.8-1.2c-.1-.2-.1-.4-.1-.5l.5-1.3-1.4.4c-.2.1-.4 0-.5-.1l-1-1-.1 1.4c0 .2-.1.4-.3.5l-1.1.7zm4.9 1.1zM75.7 98c-.3-.1-.5-.2-.5-.4l-.3-1.5-1.4-.5c-.2-.1-.3-.3-.4-.5s.1-.4.3-.6l1.3-.8.1-1.5c0-.2.2-.4.3-.5.2-.1.4-.1.6.1l1.2 1 1.4-.4c.2-.1.4 0 .6.2s.2.4.1.6l-.6 1.4.8 1.2c.1.2.1.4 0 .6s-.3.3-.6.3H77l-.9 1.2c-.1.1-.3.1-.4.1zm-2-2.9 1.3.5c.2.1.3.2.4.4l.3 1.4.9-1.1c.1-.2.3-.2.5-.2l1.4.1-.8-1.2c-.1-.2-.1-.4-.1-.5l.5-1.3-1.4.4c-.2.1-.4 0-.5-.1l-1.1-.9L75 94c0 .2-.1.4-.3.5l-1 .6zm4.9 1.1zm44.7 63.5c-.3-.1-.5-.2-.5-.4l-.3-1.5-1.4-.5c-.2-.1-.3-.3-.4-.5 0-.2.1-.4.3-.6l1.3-.8.1-1.5c0-.2.2-.4.3-.5.2-.1.4-.1.6.1l1.2 1 1.4-.4c.2-.1.4 0 .6.2s.2.4.1.6l-.6 1.4.8 1.2c.1.2.1.4 0 .6s-.3.3-.6.3l-1.5-.1-.9 1.2c-.2.1-.4.2-.5.2zm-2-3 1.3.5c.2.1.3.2.4.4l.3 1.4.9-1.1c.1-.1.3-.2.5-.2l1.4.1-.8-1.2c-.1-.2-.1-.4-.1-.5l.5-1.3-1.4.4c-.2.1-.4 0-.5-.1l-1.1-.9-.1 1.4c0 .2-.1.4-.3.5l-1 .6zm4.9 1.1zm51.7-74-.1-.1c-.2-.2-.2-.4-.2-.6l.4-1.4-.9-1.1c-.1-.2-.2-.4-.1-.6.1-.2.3-.3.5-.3h1.5l.8-1.2c.1-.2.3-.3.6-.2s.4.2.5.4l.5 1.4 1.4.4c.2.1.4.2.4.4s0 .4-.2.6l-1.2.9.1 1.5c0 .2-.1.4-.3.5s-.4.1-.6 0l-1.2-.9-1.4.5c-.2-.1-.4-.1-.5-.2zm-.2-3.6.9 1.1c.1.2.2.3.1.5l-.4 1.3 1.3-.5c.2-.1.4 0 .5.1l1.2.8-.1-1.4c0-.2.1-.4.2-.5l1.1-.8-1.4-.4c-.2-.1-.3-.2-.4-.4l-.4-1.3-.8 1.2c-.1.2-.3.3-.5.3h-1.3zm3.6 3.5zM16.5 20s-.1 0-.1-.1c-.2-.1-.2-.4-.2-.6l.5-1.5-.9-1.1c-.1-.2-.2-.4-.1-.6.1-.2.3-.3.5-.3h1.5l.8-1.2c.1-.2.3-.3.6-.2s.4.2.5.4l.5 1.4 1.4.4c.2.1.4.2.4.5 0 .2 0 .4-.2.6l-1.2.9.1 1.5c0 .2-.1.4-.3.5-.2.1-.4.1-.6 0l-1.2-.9-1.5.3c-.2.1-.4 0-.5 0zm-.2-3.6.9 1.1c.1.1.2.4.1.5l-.4 1.3 1.3-.5c.2-.1.4 0 .5.1l1.2.8-.1-1.4c0-.2.1-.4.2-.5l1.1-.8-1.4-.4c-.2 0-.3-.2-.4-.4l-.3-1.3-.8 1.2c-.1.2-.3.3-.5.3h-1.4zm3.6 3.4zm-8.1 160.5-.1-.1c-.2-.1-.2-.4-.2-.6l.4-1.4-.9-1.1c-.1-.2-.2-.4-.1-.6.1-.2.3-.3.5-.3h1.5l.8-1.2c.1-.2.3-.3.6-.2s.4.2.5.4l.5 1.4 1.4.4c.2.1.4.2.4.4s0 .4-.2.6l-1.2.9.1 1.5c0 .2-.1.4-.3.5s-.4.1-.6 0l-1.2-.9-1.4.5c-.1-.1-.3-.1-.5-.2zm-.1-3.5.9 1.1c.1.1.2.4.1.5l-.4 1.3 1.3-.5c.2-.1.4 0 .5.1l1.2.8-.1-1.4c0-.2.1-.4.2-.5l1.1-.8-1.4-.4c-.2-.1-.3-.2-.4-.4l-.4-1.3-.8 1.2c-.1.2-.3.3-.5.3h-1.3zm3.6 3.4zm5.7-23.8-.1-.1c-.2-.1-.2-.4-.2-.6l.5-1.4-.9-1.1c-.1-.2-.2-.4-.1-.6.1-.2.3-.3.5-.3h1.5l.8-1.3c.1-.2.3-.3.6-.2s.4.2.5.4l.5 1.4 1.4.4c.2.1.4.2.4.4s0 .4-.2.6l-1.2.9.1 1.5c0 .2-.1.4-.3.5-.2.1-.4.1-.6 0L23 156l-1.4.5c-.3 0-.5 0-.6-.1zm-.2-3.5.9 1.1c.1.1.2.4.1.5l-.4 1.3 1.3-.5c.2-.1.4 0 .5.1l1.2.8-.1-1.4c0-.2.1-.4.2-.5l1.1-.8-1.4-.4c-.2-.1-.3-.2-.4-.4l-.5-1.3-.8 1.2c-.1.2-.3.3-.5.3h-1.2zm3.7 3.4zm94.7-67c-.1-.1-.2-.1-.2-.2-.3-.4-.4-1-.1-1.4l1.7-3.2-1.7-3.1c-.2-.5-.2-1 .1-1.4s.8-.6 1.3-.6l3.5.6 2.4-2.5c.4-.4.9-.5 1.4-.3s.9.6.9 1.1l.5 3.6 3.2 1.5c.5.2.8.7.8 1.2s-.3 1-.8 1.2l-3.2 1.6-.4 3.5c-.1.5-.4.9-.9 1.1-.5.2-1.1 0-1.4-.3l-2.5-2.6-3.4.7c-.4-.1-.8-.2-1.2-.5zm1.2-8.4 1.6 2.9c.2.4.2.9 0 1.3l-1.5 3 3.3-.6c.4-.1.9.1 1.2.4l2.4 2.4.4-3.4c.1-.4.3-.8.8-1l3-1.5-3-1.5c-.4-.2-.7-.6-.8-1l-.5-3.3L125 81c-.3.3-.8.5-1.2.4l-3.4-.5zm7 9.6zm-1.1 91.4c-.1-.1-.2-.1-.2-.2-.3-.4-.4-1-.1-1.4l1.7-3.2-1.7-3.1c-.2-.5-.2-1 .1-1.4s.8-.6 1.3-.6l3.5.6 2.4-2.5c.4-.4.9-.5 1.4-.4.5.2.9.6.9 1.1l.5 3.6 3.2 1.5c.5.2.8.7.8 1.2s-.3 1-.8 1.2l-3.2 1.6-.4 3.5c-.1.5-.4.9-.9 1.1-.5.2-1.1 0-1.4-.3l-2.5-2.6-3.4.7c-.4 0-.8-.1-1.2-.4zm1.2-8.4 1.6 2.9c.2.4.2.9 0 1.3l-1.5 3 3.3-.6c.4-.1.9.1 1.2.4l2.4 2.4.4-3.4c.1-.4.3-.8.8-1l3-1.5-3-1.5c-.4-.2-.7-.6-.8-1l-.5-3.3-2.3 2.4c-.3.3-.8.5-1.2.4l-3.4-.5zm7 9.6zm43.7-147.8c-.1 0-.2-.1-.3-.1-.5-.2-.8-.7-.7-1.3l.1-3.6-2.9-2c-.4-.3-.6-.8-.5-1.4.1-.5.5-.9 1-1.1l3.4-1 1-3.3c.2-.5.6-.9 1.1-.9.5-.1 1 .1 1.3.6l2 3h3.5c.5 0 1 .3 1.2.8s.2 1-.1 1.5l-2.2 2.8 1.1 3.3c.2.5 0 1-.4 1.4s-.9.5-1.4.3l-3.4-1.2-2.8 2.1c-.2.1-.6.2-1 .1zm-2.7-8 2.7 2c.4.3.6.7.6 1.1l-.1 3.3 2.7-2c.4-.3.8-.3 1.3-.2l3.2 1.2-1.1-3.2c-.1-.4-.1-.9.2-1.3l2-2.6h-3.3c-.4 0-.9-.2-1.1-.6l-1.9-2.8-1 3.2c-.1.4-.5.8-.9.9l-3.3 1zm10.5 5.5zM24.5 144.6c-.1 0-.2-.1-.3-.1-.5-.2-.8-.7-.7-1.3l.1-3.6-2.9-2c-.4-.3-.6-.8-.5-1.4.1-.5.5-.9 1-1.1l3.4-1 1-3.3c.2-.5.6-.9 1.1-.9.5-.1 1 .1 1.3.6l2 3h3.5c.5 0 1 .3 1.2.8s.2 1-.1 1.4l-2.2 2.8 1.1 3.3c.2.5 0 1-.3 1.4-.4.4-.9.5-1.4.3l-3.4-1.2-2.8 2.1c-.2.2-.7.3-1.1.2zm-2.6-8.1 2.7 2c.4.3.6.7.6 1.1L25 143l2.7-1.9c.4-.3.8-.3 1.3-.2l3.2 1.1-1.1-3.2c-.1-.4-.1-.9.2-1.3l2-2.6H30c-.5 0-.9-.2-1.1-.6l-1.9-2.8-1.1 3.2c-.1.4-.5.8-.9.9l-3.1.9zm10.5 5.6z" fill="#ffe1a6" stroke-width="none" opacity="0.73"></path><path id="SvgjsPath11863" d="M157.3 17.6h.1c.7-.1.7-1 0-1h-.1c-.7-.1-.7 1 0 1zm10.8-5.1c.3 0 .3-.5 0-.5-.4 0-.4.5 0 .5zm1.6 6.2c.2 0 .2-.3 0-.3-.2-.1-.2.3 0 .3zm12.9-7.4c0-.1 0-.1-.1-.2-.1-.2-.3-.2-.3 0 0 .1-.1.1-.1.2 0 .3.6.3.5 0zm.3-8c.2 0 .3 0 .4-.1.2-.1.2-.4 0-.6-.1-.1-.2-.1-.4-.1-.5.1-.5.8 0 .8zM191 17c0-.1 0-.1-.1-.2-.1-.2-.3-.2-.4 0 0 .1-.1.1-.1.2.1.4.7.4.6 0zm3.8-3.1c.3 0 .3-.4 0-.4-.2 0-.2.4 0 .4zm-80.5.7c.5 0 .5-.7 0-.7s-.5.7 0 .7zm-5.5 7.2c.3 0 .3-.5 0-.5-.3.1-.3.5 0 .5zm1.9-10.5c.3 0 .3-.5 0-.5s-.3.5 0 .5zm9.6 6.3c.1 0 .1-.1 0-.1s-.1.1 0 .1zm5.5-6.5c.3 0 .3-.4 0-.4s-.3.4 0 .4zm-.3-7.2c.3 0 .3-.4 0-.4s-.2.4 0 .4zm11.3 3.3c.3 0 .3-.4 0-.4s-.3.4 0 .4zM94.2 35.3c-.2 0-.3 0-.5.2-.1.1-.1.3 0 .4.1.2.3.2.5.2.5-.1.5-.7 0-.8zm2.9 14.4c.2 0 .2-.3 0-.3s-.2.3 0 .3zm5.5-1.8c.3 0 .3-.4 0-.4-.3-.1-.3.4 0 .4zM12.5 56c-.2 0-.2 0-.4.1s-.2.4 0 .5c.2 0 .2.1.4.1.3-.2.3-.8 0-.7zm-4-5.6c.3 0 .3-.5 0-.5s-.3.5 0 .5zm2.5-7c.1 0 .1-.1 0 0 0-.1 0 0 0 0zm22.5-25.7c0-.2 0-.2-.1-.4-.1-.3-.4-.3-.4-.1s-.1.2-.1.4c0 .4.6.4.6.1zm-2.1-7.1c.1 0 .1-.2 0-.2s-.1.2 0 .2zm-2.5.1c.2 0 .2-.4 0-.4s-.2.4 0 .4zm.7-5.7c.3 0 .3-.4 0-.4s-.3.4 0 .4zm5.7 5.4c.3 0 .3-.4 0-.4-.3-.1-.3.4 0 .4zm17.9-5.7c.3 0 .3-.5 0-.5s-.3.5 0 .5zM4.6 15.1c.3 0 .3-.5 0-.5s-.4.5 0 .5zm56.1 88.7c.3 0 .4 0 .6-.2v-.2c-.2-.2-.3-.3-.6-.2-.5-.2-.5.6 0 .6zm-38.9 18.1c.4 0 .4-.6 0-.6s-.4.6 0 .6zm3.9-6.6c.2 0 .2-.3 0-.3s-.2.3 0 .3zm-15.1-12.7c0-.2 0-.2-.1-.4-.1-.1-.3-.1-.4 0-.1.2-.1.2-.1.4-.1.6.7.6.6 0zm7.9-16.4c0-.2 0-.3-.1-.4-.1-.3-.4-.3-.5 0-.1.2-.1.2-.1.4 0 .5.8.5.7 0zm-1.6-10.5c-.1-.1-.3-.2-.4-.3-.1-.1-.3.1-.2.2.1.1.2.3.3.4.2.3.5-.1.3-.3zm-4.1 6.4c.2 0 .2-.4 0-.4s-.2.4 0 .4zm3.6-8.6c.2 0 .2-.3 0-.3s-.2.3 0 .3zm-4.6-2.1c.1 0 .1-.2 0-.2-.2-.1-.2.2 0 .2zm3.2-6.8c.1 0 .1-.2 0-.2-.2-.1-.2.2 0 .2zm164.5 35.6c.1-.1.2-.1.3-.2.2-.1.3-.3.2-.5v-.1c0-.1-.1-.2-.2-.2h-.1c-.2 0-.4 0-.5.2-.1.1-.1.2-.2.3-.3.2.2.7.5.5zm3-5c.4 0 .4-.7 0-.7s-.4.7 0 .7zm2.2 3c.2 0 .2-.3 0-.3s-.2.3 0 .3zm3.9-5.8c.1 0 .1-.2 0-.2s-.2.2 0 .2zm6.1-8.1c.1 0 .2-.1.3-.1s.1-.2 0-.2-.2-.1-.3-.1c-.3-.2-.3.6 0 .4zm-51.5-4.4c.5 0 .5-.8 0-.8s-.5.8 0 .8zm-4 7.5c.1-.1.2-.3.3-.4s-.1-.3-.2-.2c-.1.1-.3.2-.4.3-.5.2 0 .7.3.3zm4.7-3.5c.2 0 .2-.3 0-.3s-.1.3 0 .3zm4-4.3c.2 0 .2-.3 0-.3-.3 0-.3.3 0 .3zm-39.7 6.7c.2 0 .3 0 .5-.1s.2-.4 0-.5-.3-.1-.5-.1c-.5-.1-.5.6 0 .7zm-6.4 8.1c.4 0 .4-.7 0-.7s-.5.7 0 .7zm-5-3.6c.3 0 .3-.5 0-.5s-.3.5 0 .5zm6.8-6.6c.2 0 .2-.3 0-.3-.2.1-.2.3 0 .3zm-1.8 5.4c.2 0 .2-.2 0-.2s-.2.2 0 .2zm-11.1 10c.2 0 .2-.3 0-.3s-.2.3 0 .3zm17.5-1c.3 0 .3-.4 0-.4s-.3.4 0 .4zM31.9 193c.1 0 .2-.1.3-.1.1-.1.1-.3 0-.4-.1 0-.2-.1-.3-.1-.6-.3-.6.9 0 .6zm1.3-8.8c.2 0 .3 0 .5-.1s.2-.5 0-.6-.3-.1-.5-.1c-.5 0-.5.7 0 .8zm1.1 4.8c.2 0 .2 0 .4-.1s.2-.3 0-.3-.2-.1-.4-.1c-.4 0-.4.6 0 .5zm3.7-4.5c0-.1 0-.3-.1-.4 0-.1-.3-.1-.3 0s0 .2-.1.4c.1.3.6.3.5 0zm.2-5.5c.2 0 .2-.4 0-.4-.3 0-.3.4 0 .4zm3.9 6.1c.3 0 .3-.5 0-.5s-.3.5 0 .5zm-9.3-20.4c.3 0 .3-.4 0-.4-.2 0-.2.4 0 .4zm-21.1 22c-.2-.2-.3-.4-.6-.4-.1 0-.3.1-.3.3 0 .3.1.4.4.6.3.4.8-.1.5-.5zM25 165.8c.3 0 .3-.5 0-.5s-.4.5 0 .5zm107.5-37.9c-.1-.1-.1-.2-.2-.4s-.3-.2-.4 0c-.1.1-.1.2-.2.4-.1.7 1 .7.8 0zm-14.7 20.8c.3 0 .3-.5 0-.5s-.3.5 0 .5zm11.8 5.5c.6 0 .6-.9 0-.9s-.5.9 0 .9zm0 8.4c.4 0 .4-.6 0-.6-.3.1-.3.6 0 .6zm-5 6c.2 0 .2-.3 0-.3s-.2.3 0 .3zm-6.8 1.8c.3 0 .3-.4 0-.4s-.2.4 0 .4zm24.3 13.4c.2 0 .3 0 .4-.1.3-.1.3-.5 0-.6-.2-.1-.2-.1-.4-.1-.5 0-.5.8 0 .8zm7.9 10.3c.4 0 .4-.7 0-.7s-.4.7 0 .7zm7.9-8.2c.4 0 .4-.6 0-.6s-.4.6 0 .6zm4.2 7c.3 0 .3-.4 0-.4-.2 0-.2.4 0 .4zm10.1-2.3s0-.1 0 0c-.1-.1-.1 0 0 0zm-16.8-3.1c.2 0 .2-.3 0-.3s-.2.3 0 .3zm3.2-4.3c.2 0 .2-.3 0-.3s-.2.3 0 .3zm-47.6 3.6.3-.9c.1-.3-.3-.5-.5-.3s-.4.4-.5.7c-.2.6.5 1 .7.5zm62.1-57.4c.1-.2.2-.3.3-.5s-.1-.5-.4-.4c-.2.1-.3.2-.5.3-.3.4.3 1 .6.6zm-4.9 12.1c0-.2-.1-.2-.1-.4-.1-.1-.3-.1-.4 0-.1.2-.1.2-.1.4-.2.6.7.6.6 0zm4.3-6.8c.3 0 .3-.4 0-.4-.3-.1-.3.4 0 .4zm5-3.3c.2 0 .2-.3 0-.3s-.2.3 0 .3zm2.2-4.5c.4 0 .4-.6 0-.6s-.4.6 0 .6z" fill="#ffd86c" stroke-width="none" opacity="1"></path></g><g id="svga-group-humanwrap-move" transform="matrix(1,0,0,1,0,-6)"><g id="svga-group-humanwrap" transform="matrix(0.8499994000000002,0,0,0.8499994000000002,15.04572268112409,16.76257055476711)"><g id="svga-group-hair-back-move" transform="matrix(1,0,0,1,0,0)"><g id="svga-group-hair-back"></g></g><g id="svga-group-humanbody-back"><path id="SvgjsPath11793" d="M77.6 118.3c0 19.3 3.4 44.1-10 51.9-13.4 7.9-31.9 11.3-37.8 22s-4.4 25.3-4.4 25.3h149.3s.7-18.9-5.1-26.4c-8.1-10.4-27.8-15.5-37.7-20.9s-13.4-25.1-13.4-52.4l-40.9.5z" fill="#ffffff" stroke-width="none" opacity="1"></path></g><g id="svga-group-chinshadow-single"></g><g id="svga-group-humanbody-front"><path id="SvgjsPath11794" d="M175.8 218.7H24.4l-.1-1c-.1-.6-1.5-15.1 4.5-26 4.1-7.4 13.5-11.3 23.5-15.5 5-2.1 10.2-4.3 14.8-6.9 10.6-6.2 10.1-23.9 9.6-41-.1-3.5-.2-6.8-.2-10v-1.1l43.2-.4v1.1c0 29.9 4.2 46.7 12.8 51.4 2.9 1.6 6.7 3.2 10.8 4.9 10 4.1 21.3 8.8 27.2 16.3 6.1 7.7 5.4 26.4 5.4 27.1l-.1 1.1zm-149.3-2.2h147.1c0-4.1-.2-18.5-4.9-24.6-5.5-7-16.6-11.6-26.3-15.6-4.1-1.7-8-3.3-11-5-5.1-2.8-8.7-8.9-10.9-18.7-2-8.4-2.9-19.4-3-33.5l-38.6.4c0 2.8.1 5.7.2 8.8.5 17.8 1 36.1-10.7 43-4.7 2.7-9.9 4.9-15 7.1-9.6 4-18.7 7.8-22.4 14.5-5 8.6-4.7 20.1-4.5 23.6z" fill="#000000" stroke-width="none" opacity="1"></path><path id="SvgjsPath11795" d="M93.9 153.8c-.5 1.8-.4 3.4.5 5.2.8 1.6 2.1 2.7 3.9 2.9.4 0 .7-.5.5-.8-1.6-2.2-3.5-4.2-3.7-7.1 0-.7-1-.9-1.2-.2z" fill="#000000" stroke-width="none" opacity="1"></path><path id="SvgjsPath11796" d="M112.5 187.5c8.8.5 18.1-.7 26.6-2.9.7-.2.6-1.4-.2-1.3-8.8 1.1-17.7 2-26.5 3.3-.5.1-.3.9.1.9z" fill="#000000" stroke-width="none" opacity="1"></path><path id="SvgjsPath11797" d="M63.1 182.5c3.8.9 7.6 1.9 11.5 2.8 3.6.8 7.4 2 11.1 2.1.7 0 .8-.9.2-1.2-3.5-1.4-7.5-1.7-11.2-2.5-3.8-.7-7.5-1.3-11.3-2-.5 0-.7.7-.3.8z" fill="#000000" stroke-width="none" opacity="1"></path></g><g id="svga-group-clothes-single"><path id="SvgjsPath11683" d="M77.6 140.5s-8.6 2.8-13.1 5.9-5.6 10-5.6 10-2.3-3.3-4.5 1.9-1.8 5.6-4 7.9c-2.3 2.3-1 6.8-.2 7.9 0 0-4 2.8-8.4 4s-10.3 4.2-12.1 6.6-9.6 12.8-5.6 34h153.6s0-21-3-27.5-7.7-7.5-7.7-7.5-9.8-7-11.7-8.2-11-4.2-11-4.2-.5-4.2-1.2-7.2-4.6-8.1-6.6-8.4c-2.1-.4-3-2.8-5.6-7-2.6-4.2-5.8-6.5-7.3-7-1.6-.5-3.3-.2-3.3-.2s1.2 8.9 1.2 13.6-.9 7.7-4.6 12.2c-3.7 4.6-6.1 5.8-11.4 9.3s-6.3 5.4-6.3 5.4-3.2-5.1-8.8-8.6S83 166 79 162.5s-1.1-6.1-1.4-11.2c-.3-5.1 0-10.8 0-10.8z" fill="#ffffff" stroke-width="none" opacity="1"></path><path id="SvgjsPath11684" d="M175.6 190.8c-2.8-6.1-7.1-7.7-8.2-8-1.3-.9-9.8-7-11.6-8.1-1.8-1.1-8.5-3.4-10.6-4.1-.2-1.3-.6-4.3-1.2-6.6-.7-3-4.7-8.7-7.5-9.1-1.1-.2-1.8-1.3-3.3-3.9-.5-.8-1-1.6-1.6-2.6-2.6-4.2-5.9-6.8-7.9-7.4-1.8-.6-3.8-.2-3.8-.2-.5.1-.9.6-.8 1.1 0 .1 1.2 8.9 1.2 13.5 0 4.2-.7 7.1-4.3 11.6-3 3.8-5.1 5.1-9 7.6-.7.4-1.4.9-2.2 1.4-3.1 2.1-4.8 3.6-5.7 4.6-1.3-1.8-4.1-5.1-8.3-7.7-3.3-2.1-5.2-4.4-7.1-6.6-1.2-1.4-2.5-2.9-4.1-4.4-2.2-1.9-1.9-3.4-1.5-5.7.3-1.4.6-2.9.4-4.8-.3-4.9 0-10.7 0-10.7 0-.3-.1-.6-.4-.9-.3-.2-.6-.3-.9-.2-.4.1-8.8 2.9-13.4 6.1-3.5 2.4-5 6.7-5.7 9-.4-.2-.8-.3-1.3-.2-1.4.1-2.5 1.3-3.5 3.6-.7 1.7-1.2 2.9-1.5 3.8-.7 1.9-.9 2.4-2.3 3.8-2.2 2.2-1.7 6.2-.8 8.3-1.3.8-4.3 2.5-7.3 3.4-4.6 1.3-10.7 4.3-12.6 7l-.1.2c-6.4 8.9-8.3 20.6-5.6 34.6.1.5.5.8 1 .8h153.6c.6 0 1-.4 1-1 0-1.2-.1-21.6-3.1-28.2zm-33-23.6c.3 1.9.6 3.7.6 4.1 0 .2-.1.8-.6 1.6.3-1.8.2-3.8 0-5.7zm-20.7-19.4c.5.2 1.2.5 1.9.9-.2.1-.3.1-.5.1l-1.2.3c-.2-.5-.2-.9-.2-1.3zm-.1 12.5h1.5c-.6.4-1.3 1-2 1.6.2-.5.4-1 .5-1.6zm4.2-3.1c-1.2.1-2.6.4-3.8.6.1-.5.1-1 .1-1.5 1.3-.1 2.7-.3 3.9-.5 0 .5-.1 1-.2 1.4zm.1-5c.1.5.1.9.1 1.3-1.3 0-2.7.4-3.9.8 0-.5 0-1-.1-1.5 1.3-.2 2.7-.3 3.9-.6zm-3.8 3.6v-1.1c.7-.2 1.4-.3 2.2-.4.6-.1 1.2-.1 1.8-.2v1.1c-1.3 0-2.7.3-4 .6zm-.1-3.5c0-.4-.1-.8-.1-1.1.6-.1 1.1-.1 1.7-.2.6-.1 1.2-.2 1.7-.3.2.3.3.6.4 1-1.2 0-2.5.3-3.7.6zm1.9-2c-.6.1-1.3.2-1.9.4 0-.3-.1-.7-.1-1 .4-.1.9-.2 1.3-.3.3-.1.7-.1 1-.3l.9.9c-.5.1-.9.2-1.2.3zm-1.9 8c1.1-.1 2.4-.2 3.5-.4-.3.7-.9 1.3-1.6 1.8-.7 0-1.5.1-2.2.1l.3-1.5zM76 159.6c-1.2-1.1-2.3-2.2-2.7-3.1-.1-.1-.1-.2-.1-.4.9.7 1.8 1.5 2.8 2.1-.1.5-.1 1 0 1.4zm-.5-10.9c.3.4.7.7 1.1 1 0 .4 0 .9.1 1.3-.3-.2-.5-.4-.8-.6-.4-.3-.7-.6-1.1-.9.1-.2.4-.5.7-.8zm.3-.3c.2-.2.4-.3.6-.4v1c-.1-.2-.3-.4-.6-.6zm-1.4 1.5c.4.4.8.7 1.2 1 .3.3.6.6 1 .8v1c-.8-.7-1.8-1.4-2.7-2 .2-.2.3-.5.5-.8zm-.7 1.4c.9.8 1.8 1.7 2.8 2.3 0 .3-.1.6-.1.9-.4-.3-.9-.6-1.4-.9-.6-.4-1.2-.8-1.7-1.2.1-.4.3-.8.4-1.1zm-.5 1.5c.5.4 1.1.8 1.6 1.2.5.4 1 .8 1.6 1.1 0 .2-.1.4-.1.5 0 .1-.1.3-.1.4-.5-.3-1-.6-1.4-.9l-1.8-1.2c0-.3.1-.7.2-1.1zm2.7 4.8c-.9-.8-1.9-1.5-2.9-2.1v-1c.4.4.9.7 1.4 1.1.5.4 1.1.8 1.7 1.2-.1.2-.1.5-.2.8zm-22.1 4.8c.3-.9.8-2 1.5-3.7.9-2.1 1.6-2.3 1.8-2.4.3 0 .6.2.8.4.1 2.2 1.5 13.1 16.7 21.5.2.1.3.1.5.1.3 0 .7-.2.8-.5.1.2.2.5.3.7.1.1.3.1.3-.1-.2-2-.6-3.7-.3-5.7 0-.2-.3-.4-.4-.1-.2 1.2-.4 2.5-.2 3.8l-.1-.1c-.1-.1-.2-.1-.3-.2-.3-1.7-.5-3.3-.4-5 0-.3-.4-.3-.4 0-.2 1.5-.2 3.1.1 4.6-.4-.3-.9-.5-1.3-.8-.2-.5-.3-1.1-.4-1.6-.2-1.1-.1-2.1.1-3.1 0-.2-.3-.3-.3-.1-.3 1.3-.4 3 0 4.4-.4-.2-.7-.5-1-.7-.1-2.3-.2-4.5.1-6.8 0-.3-.4-.2-.4 0-.3 2.1-.4 4.2-.2 6.4-.6-.4-1.2-.9-1.7-1.4-.1-2.1-.1-4.2.3-6.4 0-.2-.2-.3-.3-.1-.5 2-.7 4-.6 6-.4-.4-.8-.8-1.2-1.1 0-1-.1-2.1 0-3.1.1-1.4.4-2.8.8-4.1.1-.2-.2-.3-.3-.1-.7 2-1.3 4.5-1 6.7-.4-.4-.7-.8-1.1-1.1-.2-1 .2-3.2.2-3.5.2-1.4.5-2.7 1-4 .1-.2-.2-.2-.3-.1-.8 2.3-1.3 4.7-1.4 7.1-.3-.3-.5-.6-.8-1 .1-.1.1-.2.1-.2.1-.1-.1-.3-.2-.2.2-2.9.8-5.8 1.8-8.5.1-.2-.2-.3-.3-.1-1 2.7-1.7 5.5-1.9 8.3-.3-.5-.6-.9-.9-1.4.7-2.8 1.1-5.7 2.1-8.5.1-.3-.3-.4-.4-.1-.9 2.5-1.8 5.3-2 8-.4-.6-.7-1.2-1-1.8.7-3 1.1-5.8 2.5-8.6.1-.2-.2-.4-.3-.2-1.3 2.4-2.4 5.3-2.6 8.1-.3-.8-.6-1.6-.8-2.2 1.2-2.8 1.9-5.8 3.1-8.6.1-.2-.2-.4-.3-.2-1.2 2.5-2.6 5.3-3.1 8-.3-1.4-.4-2.3-.4-2.6 1.2-2.5 2.1-5.1 3.3-7.6.5-.6 1.1-1.2 1.8-1.7 3.3-2.3 8.9-4.4 11.5-5.3 0 1-.1 2.4-.1 3.9-1.9.7-3.5 2.3-4.5 4.5-1.1 2.5-1.3 5.3-.5 7.1 1.1 2.4 5.2 5.4 8.7 7.8.3.2.5.3.6.4l1.5 1.8c2 2.3 4 4.8 7.6 7 5.3 3.3 8.4 8.2 8.4 8.2.2.3.5.5.9.5.3 0 .7-.2.8-.5 0 0 1.1-1.8 6-5.1.8-.5 1.5-1 2.2-1.4 3.2-2.1 5.4-3.5 7.8-6.2.2 0 .4-.1.5-.3.1-.1 5.5-6.1 8.3-7.9 3.5-2.4 3.9-5.5 3.3-9.8-.6-4.3-5-5.9-6.5-6.3-.2-1.3-.3-2.4-.4-3.2.5 0 1.2 0 1.9.2 1.4.5 4.3 2.6 6.8 6.6.6.9 1.1 1.8 1.5 2.6 0 0 0 .1.1.1l-.7-.7c-.1-.1-.3.1-.2.2.7.8 1.3 1.7 2 2.5v.1s.3 1.1.3 2.9c-.5-.8-1.1-1.6-1.4-2.5-.1-.2-.4-.1-.4.1.4 1.2.9 2.4 1.8 3.3 0 .3 0 .7-.1 1.1-.5-.7-1.1-1.3-1.5-1.9-.1-.2-.5 0-.3.2.5.7.9 1.4 1.4 2.1.1.2.2.3.3.5-.1.6-.2 1.2-.3 1.9-.5-.6-1-1.2-1.4-1.8-.1-.2-.4.1-.3.2.5.7 1 1.6 1.6 2.3-.1.5-.3 1.1-.6 1.7-.2-.4-.4-.9-.5-1.3-.1-.2-.5-.1-.4.1.2.6.4 1.4.6 2.1-.2.5-.5 1.1-.9 1.6-.1-.3-.1-.6-.1-.9 0-.3-.4-.3-.4 0 0 .5.1 1.1.1 1.6-.4.5-.8 1.1-1.2 1.6-.1-.6-.2-1.3-.3-1.9 0-.2-.4-.2-.4.1.1.8.1 1.6.2 2.3-.4.4-.8.9-1.2 1.3 0-.8-.1-1.5-.2-2.3 0-.3-.4-.3-.4 0 0 .9-.1 1.9 0 2.9-.3.3-.6.6-.9.8 0-.2 0-.5-.1-.7 0-.8-.1-1.5-.1-2.2 0-.3-.4-.3-.4 0 0 .8 0 1.5.1 2.2v1.2c-.4.4-.9.7-1.3 1.1 0-.2-.1-.4-.1-.7 0-.6 0-1.1.1-1.7 0-.3-.3-.4-.4-.1-.2.9-.4 2-.1 2.9-.3.3-.7.5-1 .8 0-.4-.1-.8-.1-1.2 0-.3-.5-.3-.5 0v1.6c-.4.3-.7.5-1.1.8 0-.4-.1-.9-.1-1.3 0-.3-.5-.3-.5 0 0 .6 0 1.1.1 1.6-.4.3-.8.5-1.1.7v-1.8c0-.3-.4-.3-.4 0 0 .6-.1 1.1-.1 1.7v.5c-.4.2-.7.4-1.1.6v-1.4c0-.3-.4-.2-.4 0-.1.5-.1 1.1-.1 1.6-.2.1-.5.2-.7.3-.1 0-.1 0-.1.1 0-.4.1-.7.1-1.1 0-.2-.4-.2-.4 0-.1.4-.1.8-.2 1.3-.3.1-.7.3-1 .4v-1.3c0-.2-.4-.2-.4 0 0 .5-.1 1-.2 1.5-.5.2-1 .4-1.4.5v-1c0-.3-.4-.3-.4 0 0 .4-.1.8-.1 1.2-.3.1-.6.2-.8.3 0-.4.1-.7.1-1.1 0-.2-.4-.3-.4-.1-.1.4-.1.9-.2 1.3-.2.1-.4.1-.4.1-.5.2-.8.7-.7 1.2.1.4.5.7 1 .7h.3c.1 0 1.5-.5 4.4-1.6v.1c0 .2.3.1.3 0s0-.1.1-.2c.4-.1.7-.3 1.1-.4 3.7-1.5 13.6-8.3 16.3-15 1.5-3.6 1.7-6.9 1.6-9 .4.2.8.4 1.2.4 1.4.2 5 4.6 5.8 7.4-.1 0-.2.1-.2.2.3 3.2.1 6.4.2 9.5-.2.2-.4.5-.6.7v-8.7c0-.2-.4-.2-.4 0-.1 3.1-.2 6.2-.2 9.3l-.5.5c0-2.4-.3-4.8-.4-7.2 0-.2-.4-.3-.4 0 .1 2.6-.1 5.2.2 7.8-.2.1-.4.3-.5.4.1-2 0-4.1-.1-6.1 0-.2-.4-.2-.4 0-.1 2.2-.4 4.5-.3 6.7-.2.2-.5.3-.7.5.2-2 .1-4 0-6 0-.2-.4-.2-.4 0 0 2.1-.2 4.3-.3 6.4-.4.2-.9.5-1.4.7.2-1.9 0-3.9 0-5.8 0-.3-.4-.3-.4 0-.1 2-.3 4.1-.2 6.1-.4.2-.8.4-1.3.6.2-1.3.2-2.7.3-4 0-.3-.4-.3-.4 0-.2 1.4-.5 2.9-.6 4.3-.4.2-.9.4-1.3.5.2-1.4.2-2.9.6-4.3.1-.3-.4-.4-.4-.1-.3 1.4-.8 3.1-.9 4.7-.5.2-.9.3-1.4.5.1-1.2 0-2.6.1-3.8 0-.3-.4-.3-.4 0-.1 1.2-.4 2.7-.3 4-.6.2-1.3.4-1.9.7 0-.4 0-.9.1-1.3.1-.9.3-1.7.6-2.5.1-.2-.3-.3-.4-.1-.5 1.2-1 2.7-1 4.1l-.9.3v-.1c.1-.7.1-1.4 0-2.1 0-.3-.5-.3-.5 0 0 .7 0 1.3-.1 2 0 .1-.1.3-.1.5-.4.1-.8.3-1.2.4.1-.6.1-1.2.1-1.8 0-.3-.4-.3-.5 0-.1.6-.2 1.3-.3 2-.5.1-1 .3-1.5.5v-1c0-.3-.5-.3-.4 0v1.2c-.5.2-1 .3-1.5.5.1-.5.3-1.1.4-1.6.1-.3-.3-.4-.4-.1-.2.6-.4 1.3-.6 1.9-.4.1-.8.2-1.2.4.1-.6.2-1.1.3-1.6.1-.3-.4-.4-.4-.1-.2.6-.4 1.3-.5 1.9-.2.1-.4.1-.6.2.1-.4.2-.9.4-1.3.1-.2-.3-.4-.4-.1-.2.5-.4 1-.6 1.6-.2.1-.3.1-.5.1 0-.2.1-.4.1-.6.1-.2-.3-.3-.3-.1-.1.3-.2.5-.3.8-.5.1-.9.3-1.3.4 0-.1-.2-.2-.3 0 0 .1-.1.1-.1.1-.8.2-1.6.4-2.2.6-1.6.4-2.7.8-3.1.9-.3.1-1.2.2-2.4.2-.2-1.3-.6-2.7-1.5-4.8-.2-.5-.8-.7-1.3-.5s-.7.8-.5 1.3c.8 1.7 1.1 2.9 1.3 3.9H101c-.3-.4-.6-.7-1-1-.2-.2-.5.1-.3.3l.7.7h-1.2c-.2-.2-.4-.5-.6-.7-.4-.6-.7-1.2-.9-1.9-.1-.3-.5-.2-.4.1.2.8.6 1.7 1.1 2.5-.4 0-.9 0-1.3-.1-.1-1.8-.1-3.5-.1-4.4 0-.6-.4-1-1-1s-1 .4-1 1c0 .4 0 2.2.1 4.3h-.2c-.3-.4-.7-.8-.9-1.3-.4-.7-.6-1.5-.7-2.3 0-.2-.4-.3-.4 0 .1 1.1.4 2.6 1.2 3.5-.5 0-.9-.1-1.4-.1-.2-.4-.5-.9-.7-1.3-.3-.7-.5-1.5-.5-2.3 0-.2-.4-.3-.4 0 0 1.1.3 2.6 1 3.6-.3 0-.5 0-.8-.1-.2-.6-.7-1.1-.9-1.7-.3-.7-.4-1.4-.4-2.1 0-.3-.4-.3-.4 0-.1 1.1.2 2.9 1.1 3.8-.4 0-.8-.1-1.3-.1-.3-.6-.8-1.2-1.1-1.8-.3-.8-.5-1.6-.5-2.4 0-.3-.4-.3-.4 0 0 1.3.3 3.1 1.3 4.1-.6-.1-1.2-.1-1.8-.2-.3-.4-.5-.9-.7-1.4-.3-.8-.4-1.6-.5-2.4 0-.3-.5-.3-.4 0 0 1.2.3 2.6.9 3.7-.4-.1-.9-.1-1.3-.2-.2-.4-.5-.9-.7-1.4-.3-.8-.5-1.5-.5-2.3 0-.3-.4-.3-.4 0 .1 1.2.3 2.5 1 3.6-.5-.1-.9-.1-1.3-.2-.4-.6-.8-1.1-1-1.7-.4-.8-.6-1.7-.8-2.6 0-.2-.4-.1-.3.1.1 1.3.5 3 1.3 4.1-.7-.1-1.3-.3-1.8-.4-1-1.4-1.8-2.7-2.2-4.5-.1-.2-.3-.1-.3.1.2 1.4.8 2.9 1.7 4.1-.2-.1-.5-.2-.6-.3-.3-.2-.8-.4-1.3-.6-.7-1.5-1.4-3-1.8-4.7-.1-.3-.5-.2-.4.1.2 1.4.6 2.9 1.3 4.1-.3-.1-.7-.3-1-.4-.8-1.6-1.6-3-1.9-4.9 0-.2-.4-.2-.4.1.2 1.5.6 3.2 1.4 4.5-.3-.1-.6-.2-.9-.4-.4-.8-.8-1.5-1.1-2.2-.4-1.1-.7-2.2-.8-3.3 0-.3-.5-.2-.5.1.2 1.6.6 3.6 1.5 5.1l-1.5-.6c-.3-.7-.7-1.3-1-2-.4-.9-.7-1.9-.9-2.9-.1-.3-.5-.2-.4.1.3 1.4.7 3.2 1.6 4.5-.2-.1-.4-.1-.5-.2-.5-.2-1-.4-1.6-.6-.9-1.5-1.5-3-1.8-4.8 0-.2-.4-.2-.4.1 0 1.5.5 3.1 1.3 4.4-.7-.3-1.4-.6-2.1-.8-.8-1.7-1.5-3.4-1.7-5.3 0-.3-.4-.3-.4 0 .1 1.7.5 3.5 1.3 5-.4-.2-.8-.3-1.2-.5-.5-.8-1-1.5-1.4-2.4-.5-1.2-.8-2.5-.9-3.8 0-.3-.4-.3-.4 0 .1 1.9.6 4.1 1.7 5.8-.6-.3-1.3-.5-1.9-.8-1.2-2.1-2.1-4-2.2-6.6 0-.3-.4-.3-.4 0 0 2.1.5 4.4 1.6 6.1-.5-.2-1.1-.5-1.6-.7-1.3-2.3-2.1-4.5-2-7.2 0-.3-.4-.3-.4 0-.2 2.3.3 4.8 1.6 6.8-.3-.2-.7-.3-1-.5-1.3-2.7-2.2-5.2-2.2-8.2 0-.3-.4-.3-.4 0-.1 2.7.5 5.6 1.9 7.9-.7-.4-1.3-.7-1.9-1-1.6-2.4-2.2-4.8-2-7.9v-.1c.8-1.9 1.1-2.7 1.9-4.7zm-3.3 5.3c-.3 2.1.2 4.4 1.3 6.3-.3-.2-.6-.4-.8-.6-.6-.7-1.5-3.7-.5-5.7zM33.2 183c.3.9.8 2.5 1.4 4.6-.7-.3-1.5-.5-2.1-.9-.7-.4-1.3-1-1.8-1.6.5-.7 1.4-1.4 2.5-2.1zm-2.8 2.5c1.1 1.3 2.7 2.5 4.4 2.6.2.8.5 1.7.7 2.7l-.1-.1c-2.4-.9-4.4-1.8-6.2-3.4l1.2-1.8zm-6.2 27.4c3.5 2.2 7.7 4.1 11.8 4.8H24.9c-.3-1.6-.5-3.2-.7-4.8zm12.9 4.8c0-.1 0-.2-.1-.3-4.5-1.5-8.6-2.9-12.8-5.1-.1-.9-.1-1.9-.2-2.8 4.6 2.7 10 5.1 15.2 6.1.2 0 .3-.2.1-.3-5.1-2.2-10.2-4.2-15.3-6.5v-2.9c3.5 2.5 7.6 4.5 11.9 5.4.3.1.4-.4.1-.5-4.2-1.6-8.2-3.2-12-5.5 0-1.2.1-2.3.3-3.4 2.9 1.7 5.9 3.1 9.1 4 .3.1.4-.4.1-.5-3.1-1.3-6.2-2.6-9.2-4.1.1-.9.3-1.8.4-2.6 3 2.4 6.6 4.4 10.4 5 .2 0 .3-.2.1-.3-3.7-1.5-7.1-3.1-10.4-5.2l.6-2.4c2.8 1.9 5.8 3.8 9 4.7.2.1.3-.2.1-.3-3-1.7-6-3.1-8.9-4.9.3-.9.5-1.7.9-2.5 2.4 1.8 5.3 3.1 8.3 3.6.3 0 .4-.3.1-.4-2.9-1-5.6-2.2-8.2-3.8.2-.6.5-1.2.8-1.8 2.2 2 4.9 3.6 7.8 3.9.2 0 .2-.2 0-.3-2.8-1.1-5.3-2.2-7.6-4.1.4-.7.7-1.4 1.1-2.1 1.7 1.8 4.1 3.1 6.5 3.3.1 0 .1 0 .2-.1 1.4 5.9 3.1 14.8 4.1 26.7h-2.5zm4.5 0C39.9 196.6 36 184.9 35 182c2.2-1.2 4.9-2.3 7-2.9 3.5-1 6.7-2.9 8.1-3.7 3.3 2.5 11.8 5.9 18.6 8.6 3.8 1.5 7.2 2.8 8.6 3.6 2.4 1.3 10.3 2.2 17.6 2.6.2 1.5.4 2.9.7 3.8.7 1.9.5 3.3-.2 7.5l-.3 1.8c-.3 1.9-.7 3.4-1.1 4.8-.7 2.6-1.3 4.6-.2 6.8.2.4.5.6.9.6.1 0 .3 0 .4-.1.5-.2.7-.8.5-1.3-.8-1.6-.3-3 .3-5.4.4-1.3.8-3 1.2-5l.3-1.8c.7-4.3 1-6.1.1-8.5-.2-.6-.4-1.8-.6-3 2.3.1 4.5.2 6.4.2 0 .5-.1 1.1-.1 1.7-.1.7-.1 1.5-.2 2.4-.2 4.4.8 10 .9 10.9l-.2 9c0 .6.4 1 1 1 .5 0 1-.4 1-1l.2-9.1v-.2c0-.1-1.1-6-.9-10.5 0-.9.1-1.7.2-2.4s.1-1.3.1-1.9c1.5 0 2.5-.1 2.9-.3.4-.1 1.5-.4 3-.9 2.4-.7 5.7-1.6 9.2-2.7.1.1.3.1.4 0l.1-.1c6.8-2.1 14.4-4.6 17.7-6.8 4.4-2.9 5.9-5.5 6.4-7 3 1 8.4 2.9 9.8 3.8 1.6 1 9.1 6.4 11.1 7.8-.6 3.2-3.3 18.3-2.9 33.6l-121.4-.2zm123.3-1.3c.9.5 1.8.9 2.8 1.3H165c0-.4 0-.9-.1-1.3zm4.4 1.3c-1.4-.7-2.9-1.4-4.4-1.9v-3.1c2.8 2 6 3.5 9.3 4 .3 0 .4-.4.1-.4-3.4-1.1-6.5-2.3-9.4-4.2 0-1.1.1-2.1.1-3.2 2.6 1.2 5.3 2.4 8 3.2.2.1.4-.3.2-.4-2.6-1.3-5.4-2.4-8.1-3.4.1-1.1.1-2.1.2-3.1 2.3 1.5 4.8 2.8 7.4 3.6.2.1.4-.3.2-.4-2.6-1.2-5.1-2.3-7.6-3.8.1-.9.1-1.8.2-2.7 1.8 1.7 4.7 2.7 7.1 2.8.2 0 .3-.3.1-.4-1.4-.4-2.8-.8-4.2-1.4-1-.5-1.9-1.1-2.9-1.7.1-.9.2-1.7.2-2.6 2.1 1.2 4.2 2.5 6.4 3.3.2.1.3-.2.1-.3-2-1.4-4.3-2.4-6.5-3.4.1-1.1.2-2.1.4-3 1.6 1.1 3.2 2.2 4.9 3.1.2.1.3-.1.1-.2-1.6-1.2-3.3-2.3-5-3.2.3-2.3.6-4.3.8-6 1 .9 2 1.8 3.1 2.5.2.1.4-.1.2-.3-.9-1-2.1-1.9-3.2-2.7.2-1.4.4-2.5.6-3.2 1.4.7 4.1 2.4 6 6.6 2.5 5.4 2.8 21.9 2.9 26.1l-7.3-.2zm-2.3-25.9c-.3-.1-.4.2-.2.4 1.2.9 2.5 1.9 3.8 2.4.2.1.5-.2.3-.4-1.2-1-2.6-1.8-3.9-2.4zm-87.4-12.2c-.1-.8-.4-1.6-.6-2.5-.2-1-.2-1.9-.1-2.9 0-.3-.4-.3-.4 0-.2 1.7-.1 4 .8 5.5.1.2.3.1.3-.1zm1.9.9c.1-1.6-.3-3.4-.5-5 0-.3-.4-.3-.4 0 .1 1.7.1 3.5.5 5.1.1.2.4.1.4-.1zm1.2.1c.1-1.3-.3-2.7-.5-4.1 0-.2-.3-.1-.3.1.1 1.3.1 2.8.5 4.1 0 .2.3.1.3-.1zm2 1c-.2-1.5-.8-2.8-1-4.3 0-.3-.4-.3-.4 0 .1 1.4.3 3.2 1.1 4.4.1.2.3.1.3-.1zm2.1.2c.1.1.2-.1.1-.2-.3-.3-.6-.6-.8-1-.2-.4-.4-.8-.4-1.2 0-.3-.5-.2-.4.1 0 .9.5 2 1.5 2.3zm2.4.7c.1.1.3 0 .3-.2-.4-.9-1.1-1.8-1.7-2.6-.2-.2-.6 0-.4.2.6.9 1.1 1.8 1.8 2.6zm19 .3c.2-.5.2-1.2.2-1.8 0-.2-.4-.2-.4 0-.1.6-.3 1.2-.1 1.8.1.1.3.1.3 0zm1.3-.4c.2-.4.2-.8.3-1.2.1-.5.2-.9.3-1.4.1-.3-.3-.4-.4-.1l-.3 1.5c-.1.4-.2.8-.1 1.2-.1.1.1.2.2 0z" fill="#000000" stroke-width="none" opacity="1"></path></g><g id="svga-group-head" transform="matrix(1,0,0,1,0,0)"><g id="svga-group-ears-left-move" transform="matrix(1,0,0,1,0,0)"><g id="svga-group-ears-left"><path id="SvgjsPath11697" d="M58.9 77.8s-2.5-2.4-5.4-3.5c-2.9-1.1-6.1.7-7.1 3.7-1 2.9 1.3 15.1 5 19.5s6.2 4.8 8.7 2.5c2.6-2.4 7-10.8-1.2-22.2z" fill="#ffffff" stroke-width="none" opacity="1"></path><path id="SvgjsPath11698" d="M56.8 102.3c-1.9-.1-3.8-1.5-6.1-4.2-3.9-4.7-6.3-17.1-5.2-20.5.6-1.8 1.9-3.3 3.6-4.1 1.5-.7 3.2-.8 4.8-.2 3.1 1.2 5.6 3.6 5.7 3.7l.1.1c8.7 12.2 3.5 21.2 1.1 23.5-1.2 1.1-2.4 1.6-3.7 1.6-.1.1-.2.1-.3.1zm-3.6-27.1c-1.3-.5-2.5-.2-3.2.1-1.2.6-2.1 1.6-2.6 2.9-.8 2.5 1.3 14.3 4.9 18.5 1.9 2.3 3.4 3.4 4.7 3.5.8.1 1.6-.3 2.5-1.1 2.1-1.9 6.5-9.8-1.3-20.7-.4-.3-2.6-2.2-5-3.2z" fill="#000000" stroke-width="none" opacity="1"></path><path id="SvgjsPath11699" d="M50.2 77.4c3.3.6 5.4 6.1 6 9.8.1.1.1.2.2.3.4.6-.4 1.2-.8.6-.5-.8-1-1.6-1.8-1.9-1.4-.5-2.1 1.1-1.8 2.6.4 1.9 1.6 3 2.6 4.4.1.1 0 .3-.1.2-1.7-1-4.3-4.8-3.1-7.2.9-1.7 2.3-1.4 3.4-.4-.8-2.1-1.4-4.3-3-5.9-.5-.5-1.5-1.4-2.2-1.3-1.3.2-1.3 2.1-1.3 3.4-.1 1.7.1 3.4.4 5 0 .2-.2.2-.3.1-.6-2.4-2-10.4 1.8-9.7z" fill="#000000" stroke-width="none" opacity="1"></path></g></g><g id="svga-group-ears-right-move" transform="matrix(1,0,0,1,0,0)"><g id="svga-group-ears-right"><path id="SvgjsPath11700" d="M141.1 77.8s2.5-2.4 5.4-3.5c2.9-1.1 6.1.7 7.1 3.7 1 2.9-1.3 15.1-5 19.5s-6.2 4.8-8.7 2.5c-2.6-2.4-7-10.8 1.2-22.2z" fill="#ffffff" stroke-width="none" opacity="1"></path><path id="SvgjsPath11701" d="M142.9 102.3c-1.3 0-2.5-.5-3.7-1.6-2.5-2.2-7.6-11.3 1.1-23.5l.1-.1c.1-.1 2.7-2.5 5.7-3.7 1.5-.6 3.2-.5 4.8.2 1.7.8 3 2.3 3.6 4.1 1.1 3.3-1.3 15.8-5.2 20.5-2.3 2.7-4.2 4.1-6.1 4.2-.1-.1-.2-.1-.3-.1zm-1.1-23.9c-7.8 10.9-3.4 18.8-1.3 20.7.9.8 1.7 1.2 2.5 1.1 1.3-.1 2.8-1.2 4.7-3.5 3.5-4.2 5.7-16.1 4.9-18.5-.4-1.3-1.4-2.4-2.6-2.9-.7-.3-1.9-.6-3.2-.1-2.4 1-4.6 2.9-5 3.2z" fill="#000000" stroke-width="none" opacity="1"></path><path id="SvgjsPath11702" d="M149.8 77.4c-3.3.6-5.4 6.1-6 9.8-.1.1-.1.2-.2.3-.4.6.4 1.2.8.6.5-.8 1-1.6 1.8-1.9 1.4-.5 2.1 1.1 1.8 2.6-.4 1.9-1.6 3-2.6 4.4-.1.1 0 .3.1.2 1.7-1 4.3-4.8 3.1-7.2-.9-1.7-2.3-1.4-3.4-.4.8-2.1 1.4-4.3 3-5.9.5-.5 1.5-1.4 2.2-1.3 1.3.2 1.3 2.1 1.3 3.4.1 1.7-.1 3.4-.4 5 0 .2.2.2.3.1.6-2.4 2-10.4-1.8-9.7z" fill="#000000" stroke-width="none" opacity="1"></path></g></g><g id="svga-group-faceshape-wrap"><g id="svga-group-faceshape-single"><path id="SvgjsPath11775" d="M142.4 53.6c-2.3-11.4-15.1-28.8-42.4-28.8S63.6 38.2 59.6 48.1c-2.5 6.2-3.2 15.2-3.4 19.7 0 0 .5 33.6 2.2 41.1 1.8 7.4 11.2 32.6 35.6 33.9 21.8 1.1 35.2-11.4 41.9-27 6.7-15.6 7.8-48 7.8-48 .1-3.2-.2-8.9-1.3-14.2z" fill="#ffffff" stroke-width="none" opacity="1"></path><path id="SvgjsPath11776" d="M96.8 144c-.9 0-1.9 0-2.8-.1-10.8-.6-19.9-5.6-27.1-15.1-5.2-6.8-8.4-14.9-9.5-19.7-1.8-7.5-2.2-39.9-2.3-41.3.2-4.8.9-13.8 3.4-20.1 6.6-16.2 20.1-24 41.5-24 12.3 0 23.2 3.6 31.3 10.4 6.3 5.2 10.9 12.5 12.2 19.3 1.1 5.5 1.3 11.4 1.4 14.4 0 1.3-1.2 32.8-7.9 48.4-4.5 10.6-15.7 27.8-40.2 27.8zM57.3 67.9c0 1.2.5 33.7 2.2 40.8 1.1 4.6 4.1 12.3 9.1 18.8 6.8 8.9 15.3 13.7 25.4 14.2 25.1 1.3 36.4-15.9 40.8-26.3 6.5-15 7.7-46.4 7.7-47.5 0-3-.3-8.7-1.4-14-1.3-6.4-5.6-13.1-11.5-18-7.7-6.5-18-9.9-29.9-9.9-20.3 0-33.2 7.4-39.4 22.6-2.1 5.9-2.8 14.6-3 19.3z" fill="#000000" stroke-width="none" opacity="1"></path></g></g><g id="svga-group-mouth-single-move" transform="matrix(1,0,0,1,0,0)"><g id="svga-group-mouth-single"><path id="SvgjsPath11953" d="M115.55 116.07c.18-.22-.08-.5-.28-.38-.11-.02-.24.02-.28.16-.02.06-.04.11-.06.16-2.25 2.41-5.13 2.38-8.06 1.18-1.75-.72-2.75-.81-4.41.16-1.52.89-2.64.71-4.26.25-.82-.23-1.58-.39-2.42-.19-2.78.69-4.07 4.88-7.37 3.7-.23-.08-.35.19-.25.36-.03.1-.01.21.09.28.79.59 1.66.91 2.55 1.06-.05.1-.04.24.08.32a16.452 16.452 0 0 0 22.95-4.33c.01-.01 0-.02 0-.02.68-.64 1.21-1.47 1.53-2.53.07-.05.14-.11.19-.18zm-21.66 3.06c2.17-1.87 3.47-.92 5.85-.56.75.11 1.36.04 2.05-.26.57-.25 1.05-.69 1.63-.93 1.66-.67 2.46-.03 3.82.53.94.39 1.85.69 2.87.71 1.65.03 3.19-.55 4.43-1.56-.3.6-.68 1.1-1.12 1.5-2.76 2.54-7.99 1.69-11.5 1.81-4.06.13-8.82 3.46-12.67 1.43 1.89.16 3.19-1.42 4.64-2.67zm-2.45 3.79c1.08.08 2.2-.08 3.3-.36 1.28-.33 2.5-.84 3.78-1.18 1.85-.5 3.71-.54 5.61-.48 2.69.09 6.01.12 8.42-1.17-5.17 6.28-14.19 7.69-21.11 3.19z" fill="#000000" stroke-width="none" opacity="1"></path></g></g><g id="svga-group-eyes-left-move" transform="matrix(1,0,0,1,0,0)"><g id="svga-group-eyes-left"><g id="svga-group-eyesback-left"></g><g id="svga-group-eyesiriswrapper-left"><g id="svga-group-eyesiriscontrol-left" transform="matrix(1,0,0,1,0,0)"><g id="svga-group-eyesiris-left"><path id="SvgjsPath11812" d="M75.2 84.6c-1.5 1.9-1.3 4.5.4 6 1.8 1.7 4.9 2.1 7.1.1 1.1-1.1 1.8-2.7 1.5-4.1-.1-.5-.3-1-.6-1.4-.2-.6-.5-1.1-1-1.5-2.1-1.9-5.6-1.5-7.4.9z" fill="#ffffff" stroke-width="none" opacity="1"></path><path id="SvgjsPath11813" d="M79.3 92.3c-1.5 0-2.9-.6-3.9-1.5-1.8-1.7-2-4.4-.4-6.4 1-1.2 2.4-2 4-2.1 1.4-.1 2.8.3 3.8 1.2.5.4.8 1 1.1 1.6.3.4.5 1 .6 1.5.3 1.4-.3 3.2-1.6 4.4-1.1.9-2.4 1.3-3.6 1.3zm-3.9-7.5c-1.4 1.7-1.2 4.1.4 5.6 1.7 1.5 4.7 2 6.6.1 1.1-1.1 1.7-2.6 1.4-3.8-.1-.4-.3-.9-.5-1.3v-.1c-.2-.5-.5-1-.9-1.4-.9-.8-2.1-1.2-3.3-1.1-1.5.2-2.8.9-3.7 2zm4.7 4.9c0-.1-.1-.1-.1-.2 0-.2 0-.4.1-.5.2-.3.4-.4.7-.4.2 0 .4.1.5.2l.2.2c.4-.4.6-.9.6-1.5 0-.5-.2-1-.5-1.3-.2-.7-.8-1.2-1.5-1.4-.4-.1-.9-.1-1.3 0 .3.8-.1 1.9-1.1 1.9-.3 0-.6-.1-.8-.2-.4 1-.2 2.2.7 3 .6.4 1.6.5 2.5.2z" fill="#000000" stroke-width="none" opacity="1"></path></g></g></g><g id="svga-group-eyesfront-left"><path id="SvgjsPath11741" d="M79 72.1c-8.2 0-14.8 6.6-14.8 14.8s6.6 14.8 14.8 14.8 14.8-6.6 14.8-14.8c0-8.1-6.6-14.8-14.8-14.8zM86.6 91c-1 .7-4.1 2.3-8.1 2.2s-11-2.6-11.7-3.5c-.7-1 2-3.2 3.2-4 1.1-.8 4.2-3.3 7.8-3.4 3.6-.1 6.2.8 8.4 2.2 2.2 1.3 3.7 3.7 3.7 3.7s-2.4 2.2-3.3 2.8z" fill="#ffffff" stroke-width="none" opacity="1"></path><path id="SvgjsPath11742" d="M79.4 93.7h.3c5.7-.1 9.7-4.3 9.8-4.5.2-.2.2-.5 0-.7s-.5-.2-.7 0c0 0-3.9 4.1-9.2 4.2-5.3.1-11.5-2.6-12.5-3.4.2-1 4.8-5.5 8.2-6.2 3.4-.7 10.8-.5 14.4 5.8.1.2.4.3.7.2.2-.1.3-.4.2-.7-3.9-6.7-11.8-7-15.4-6.2-3.4.7-8.4 5.1-8.9 6.8-.1.5 0 .8.2.9 1 1 7.4 3.8 12.9 3.8z" fill="#000000" stroke-width="none" opacity="1"></path></g></g></g><g id="svga-group-eyes-right-move" transform="matrix(1,0,0,1,0,0)"><g id="svga-group-eyes-right"><g id="svga-group-eyesback-right"></g><g id="svga-group-eyesiriswrapper-right"><g id="svga-group-eyesiriscontrol-right" transform="matrix(1,0,0,1,0,0)"><g id="svga-group-eyesiris-right"><path id="SvgjsPath11814" d="M117.2 84.6c-1.5 1.9-1.3 4.5.4 6 1.8 1.7 4.9 2.1 7.1.1 1.1-1.1 1.8-2.7 1.5-4.1-.1-.5-.3-1-.6-1.4-.2-.6-.5-1.1-1-1.5-2.1-1.9-5.6-1.5-7.4.9z" fill="#ffffff" stroke-width="none" opacity="1"></path><path id="SvgjsPath11815" d="M122.1 89.7c0-.1-.1-.1-.1-.2 0-.2 0-.4.1-.5.2-.3.4-.4.7-.4.2 0 .4.1.5.2l.2.2c.4-.4.6-.9.6-1.5 0-.5-.2-1-.5-1.3-.2-.7-.8-1.2-1.5-1.4-.4-.1-.9-.1-1.3 0 .3.8-.1 1.9-1.1 1.9-.3 0-.6-.1-.8-.2-.4 1-.2 2.2.7 3 .7.4 1.7.5 2.5.2zm-.8 2.6c-1.5 0-2.9-.6-3.9-1.5-1.8-1.7-2-4.4-.4-6.4 1-1.2 2.4-2 4-2.1 1.4-.1 2.8.3 3.8 1.2.5.4.8 1 1.1 1.6.3.4.5 1 .6 1.5.3 1.4-.3 3.2-1.6 4.4-1.1.9-2.3 1.3-3.6 1.3zm-3.9-7.5c-1.4 1.7-1.2 4.1.4 5.6 1.7 1.5 4.7 2 6.6.1 1.1-1.1 1.7-2.6 1.4-3.8-.1-.4-.3-.9-.5-1.3v-.1c-.2-.5-.5-1-.9-1.4-.9-.8-2.1-1.2-3.3-1.1-1.5.2-2.8.9-3.7 2z" fill="#000000" stroke-width="none" opacity="1"></path></g></g></g><g id="svga-group-eyesfront-right"><path id="SvgjsPath11743" d="M121 72.1c-8.2 0-14.8 6.6-14.8 14.8s6.6 14.8 14.8 14.8 14.8-6.6 14.8-14.8c0-8.1-6.6-14.8-14.8-14.8zm-.1 21.1c-3.9.1-7.1-1.5-8.1-2.2s-3.4-2.8-3.4-2.8 1.5-2.4 3.7-3.7c2.2-1.3 4.9-2.2 8.4-2.2 3.6.1 6.6 2.6 7.8 3.4 1.1.8 3.9 3.1 3.2 4-.7 1-7.7 3.4-11.6 3.5z" fill="#ffffff" stroke-width="none" opacity="1"></path><path id="SvgjsPath11746" d="M120 93.7h-.3c-5.7-.1-9.7-4.3-9.8-4.5-.2-.2-.2-.5 0-.7s.5-.2.7 0c0 0 3.9 4.1 9.2 4.2 5.3.1 11.5-2.6 12.5-3.4-.2-1-4.8-5.5-8.2-6.2-3.4-.7-10.8-.5-14.4 5.8-.1.2-.4.3-.7.2-.2-.1-.3-.4-.2-.7 3.9-6.7 11.8-7 15.4-6.2 3.4.7 8.4 5.1 8.9 6.8.1.5 0 .8-.2.9-1 1-7.4 3.8-12.9 3.8z" fill="#000000" stroke-width="none" opacity="1"></path></g></g></g><g id="svga-group-facehighlight-single"></g><g id="svga-group-eyebrows-left-move" transform="matrix(1,0,0,1,0,0)"><g id="svga-group-eyebrows-left-rotate" transform="matrix(1,1.7453292519943295e-9,-1.7453292519943295e-9,1,1.2851410247094464e-7,-1.3499310114184482e-7)"><g id="svga-group-eyebrows-left"><path id="SvgjsPath11669" d="M63.38 74.47c.22-.18 5.53-4.4 8.18-4.68 2.64-.28 18.4 3.81 19.44 5.45.47.75.57 1.33.28 1.75-.23.33-.68.5-1.35.5-.44 0-.98-.07-1.61-.21-1.05-.23-3.78-1.19-6.94-2.29-4.07-1.43-8.69-3.04-9.81-3.12-1.58-.1-6.16 2.28-7.79 3.21-.16.09-.37.04-.48-.11a.408.408 0 0 1 .08-.5z" fill="#000000" stroke-width="none" opacity="1"></path></g></g></g><g id="svga-group-eyebrows-right-move" transform="matrix(1,0,0,1,0,0)"><g id="svga-group-eyebrows-right-rotate" transform="matrix(1,1.7453292519943295e-9,-1.7453292519943295e-9,1,1.2851410247094464e-7,-2.140719459475804e-7)"><g id="svga-group-eyebrows-right"><path id="SvgjsPath11670" d="M136.62 74.47c-.22-.18-5.53-4.4-8.18-4.68-2.64-.28-18.4 3.81-19.44 5.45-.47.75-.57 1.33-.28 1.75.23.33.68.5 1.35.5.44 0 .98-.07 1.61-.21 1.05-.23 3.78-1.19 6.94-2.29 4.07-1.43 8.69-3.04 9.81-3.12 1.58-.1 6.16 2.28 7.79 3.21.16.09.37.04.48-.11.09-.17.06-.38-.08-.5z" fill="#000000" stroke-width="none" opacity="1"></path></g></g></g><g id="svga-group-beardwrap"><g id="svga-group-beard-single-move" transform="matrix(1,0,0,1,0,0)"><g id="svga-group-beard-single"></g></g></g><g id="svga-group-mustache-single-move" transform="matrix(1,0,0,1,0,0)"><g id="svga-group-mustache-single"></g></g><g id="svga-group-nose-single-move" transform="matrix(1,0,0,1,0,0)"><g id="svga-group-nose-single"><path id="SvgjsPath11936" d="M107.63 99.2c1.29 1 2.64 2.88 2 4.05-.65 1.17-5.7 2.82-9.1 3.29-3.41.47-9.98-.82-11.04-2-1.06-1.17-.06-2.94.41-3.88s4.4-8.69 5.46-10.04 4.11-2.06 6.69 1.06c2.59 3.12 5.58 7.52 5.58 7.52z" fill="#ffffff" stroke-width="none" opacity="1"></path><path id="SvgjsPath11937" d="M107.86 98.84c-.48-.37-.95.45-.48.81 1.48 1.13 2.98 3.12.69 4.31-1.34.7-2.91 1.17-4.34 1.6-3.34 1-6.52.84-9.88.01-.18-.04-.4-.09-.64-.14.28.01.57.05.84.01.4-.05.36-.1.7-.15.23-.04.38-.34.31-.54 0 .01-.11-.27-.12-.28-.03-.13-.04-.26-.11-.39-.18-.33-.5-.63-.77-.89-.64-.61-1.63-1.09-2.54-.98-.63.07-1.19.39-1.36 1.04-.14.52.04 1.04.41 1.4-.68-.34-1.16-.82-1.12-1.51.08-1.45 1.24-2.99 1.89-4.25 1.57-3.02 3.14-6.03 4.71-9.05.28-.54-.53-1.02-.81-.48-1.15 2.21-2.3 4.41-3.45 6.62-.97 1.86-2.09 3.69-2.89 5.63-.55 1.33-.63 2.87.78 3.68.77.44 1.72.6 2.56.83 1.06.29 2.12.56 3.2.76 4.37.82 8.34-.11 12.39-1.79 1.1-.46 2.25-1.1 2.43-2.39.24-1.72-1.18-2.93-2.4-3.86z" fill="#000000" stroke-width="none" opacity="1"></path><path id="SvgjsPath11938" d="M103.34 105.26c.57.04 1.22-.13 1.76-.27.6-.16 1.32-.39 1.85-.71 1-.6.62-2.31-.61-2.26-.8.03-1.76.4-2.39.91-.32.26-.57.52-.79.86-.06.15-.07.16-.03.05l-.14.17c-.12.15-.18.3-.24.49-.11.4.21.73.59.76z" fill="#000000" stroke-width="none" opacity="1"></path></g></g><g id="svga-group-hair-front"><path id="SvgjsPath11992" d="M53.2 71.9S56 77 56.8 84.7c.3 2.8 3.1 3.5 3.1 3.5s.6-20.4 2.6-23.8c2-3.4 1.1-9.6 3.1-14.1s6.1-11.5 9.2-11.7 17.6 9.2 25.8 9.2 23.7-9.2 25.7-9.2 7.1 6.9 8.6 10.6c1.6 3.7 1.4 17.5 2.4 18.4 1 1 1.8 4.7 2.2 7.8s.7 12.6.7 12.6 2.7-.5 3.5-3.8.4-9.9 1.4-11.1 2-2.4 2-4.9.2-15.7-1.1-20c-1.4-4.3-4.7-13.5-7.6-15.3 0 0 .4-3.5-3.3-7.1-3.7-3.5-10.4-8.6-20.4-10.4 0 0-10.4-3.7-19.2-2.9s-12.7-8-12.7-8-1.2 5.9.8 9.8c0 0-7.6-5.1-8.6-9 0 0-.4 4.1 1.2 8.2 0 0-3.3-2.5-4.1-5.3 0 0-1.6 3.3-.6 6.9 0 0-3.5-.6-4.1-2.9 0 0-5.1 8.2-3.5 18.4 0 0-2.5 1.8-4.1 5.3s-3.9 11-4.3 15.7c-.7 4.7-2.3 20.3-2.3 20.3z" fill="#ffffff" stroke-width="none" opacity="1"></path><path id="SvgjsPath11993" d="M146.9 47.9c-1.2-3.9-4.4-12.9-7.6-15.5v-.5c.1-.2.1-.5-.1-.6-.3-1.5-1.1-3.8-3.5-6.1-6-5.7-13-9.2-20.8-10.6-1.1-.4-10.9-3.7-19.6-3-8 .7-11.6-7.1-11.7-7.5-.2-.4-.6-.6-1-.6s-.8.4-.9.8c0 .2-.7 3.8-.1 7.4-2.4-1.9-5.3-4.6-5.8-6.6-.1-.5-.6-.8-1-.8-.5 0-.9.4-.9.9 0 .1-.2 2.3.3 5-.6-.7-1-1.5-1.2-2.2-.1-.4-.5-.7-.9-.7s-.8.2-1 .6c-.1.1-1.3 2.7-1 5.9-.8-.4-1.7-.9-1.9-1.8-.1-.4-.4-.7-.8-.7-.4-.1-.8.1-1 .5-.2.3-5.1 8.4-3.8 18.5-.9.7-2.7 2.5-4 5.3-1.6 3.6-4 11.1-4.4 16-.4 4.6-1.9 20.2-1.9 20.3 0 .2 0 .4.1.6 0 0 2.7 5 3.5 12.4.4 3.4 3.7 4.3 3.9 4.3h.3c.2 0 .4-.1.6-.2.2-.2.4-.5.4-.8.3-8.1 1.1-21 2.5-23.3.3-.6.6-1.3.8-2 .1-.1.1-.2.1-.3.4-1.5.6-3.1.8-4.9.3-2.4.5-5 1.4-7 2.3-5.2 6.1-10.9 8.3-11.1 1-.1 4.3 1.5 7.5 3 5.8 2.8 13.1 6.2 18.3 6.2 5.8 0 14.7-4.2 20.6-7 2.2-1 4.6-2.2 5.1-2.2 1.3.1 6 6 7.7 10 .8 1.9 1.1 6.9 1.4 11 .4 5.6.5 7.1 1.2 7.7.5.5 1.4 3.2 1.9 7.3.4 3.1.6 12.4.6 12.5 0 .3.1.6.4.7.2.2.5.3.8.2.1 0 3.4-.6 4.3-4.5.4-1.6.5-3.7.6-5.8.1-1.7.3-4.4.6-4.9 1-1.2 2.2-2.6 2.2-5.5v-1c-.1-4.3 0-15.3-1.3-19.4zm-1 7.5c-1.5 4.3-3.4 9.1-8 10.6-.2-1.3-.3-3.6-.5-5.5-.1-.9-.1-1.9-.2-2.8 3.6-2.4 6.2-6 7.4-10.2.1.3.2.7.3 1 .6 1.5.8 4.1 1 6.9zm-1.9-9.9c-.1.1-.2.2-.2.3-.9 4.2-3.2 7.8-6.7 10.4-.2-2.1-.4-4.1-.7-5.6 3-1.3 5.5-3.5 7.1-6.3.2.4.3.8.5 1.2zM137.3 32c-2.4 2-5.1 3.5-8 4.6-.7-4.1.8-8.1 3.9-11 .4.3.7.6 1.1 1 2.3 2.2 2.9 4.3 3 5.4zM126 37.5c-.1 0-.2.1-.2.1-1.5-2.4-2.5-5-2.8-7.8-.2-2.6.2-7.8 3.1-9.2 2.1 1.2 4.2 2.6 6.1 4.2-3.4 3.1-4.9 7.6-4.1 12.2-.7.2-1.4.4-2.1.5zm-13.5-21.7c-6 6.5 1.7 19.4 6.7 24.7-1.1.5-2.3 1.1-3.5 1.6-5.6-3.3-10.6-7.6-14.4-12.9-1.3-1.7-9.2-15.3-6.4-15.7h.5c6.5-.6 13.8 1.4 17.1 2.3zm-20.1-2.4c3.3 12.3 11.1 22.7 22 29.3-.9.4-1.7.8-2.6 1.1-14.4-3.7-24.8-15-27.5-29.1.1-.3.2-.6 0-.9l-.3-.6c-.3-1.7-.4-3.5-.4-5.3 1.7 2.2 4.6 4.9 8.8 5.5zm-9.6 1.7c.1.1.2.1.3.1 2 9.8 7.5 18.3 15.5 23.9-10.2-5.9-18-15.3-21.9-26.7 0-.1-.1-.2-.2-.3-.3-1.1-.5-2.1-.7-3 2.6 3 6.5 5.6 7 6zm-7.5-.8c.2.2.5.2.8.2 5.6 14.7 17.7 26 32.8 30.5-2.3.8-4.4 1.4-6.4 1.7C85.8 42.3 73.9 28.5 72 11.3c0-.1 0-.3.1-.4 1.3 1.9 3.1 3.3 3.2 3.4zm-4.2 1.8h.5c3.1 14 12.9 25.4 26.4 30.4-4.3-.8-9.8-3.3-14.3-5.5 0-.1-.1-.1-.2-.1-9.8-5.4-15.8-15.4-16.1-26.5 1.5 1.3 3.5 1.6 3.7 1.7zm-4.8.1c.7 8.6 4.7 16.5 11.2 22-1.2-.5-2.1-.7-2.8-.7h-.4c-4.1-1.5-8.1-3.6-9.9-7.5-.7-5.5.7-10.6 1.9-13.8zm-8.9 29c1.5 2.9 3.7 5.3 6.5 7.1-.4 1.7-.6 3.5-.8 5.2-.1 1.3-.3 2.6-.5 3.8-2.9-1.8-5.1-4.3-6.6-7.4.1-.9.1-1.6.2-2.2.1-1.9.6-4.2 1.2-6.5zm2.2 31.5c-2.4-3.4-4-7.2-4.7-11.3.1-.7.1-1.3.2-2 1.3 2.5 3.1 4.6 5.2 6.5-.3 2-.5 4.4-.7 6.8zm-1.8 7.8c-.8-6.9-3-11.7-3.6-12.9 0-.4.1-1.3.2-2.5 1 3.4 2.7 6.5 5 9.4-.2 3.2-.4 6.2-.4 7.9-.5-.3-1.1-.9-1.2-1.9zm2.7-16.2c-2.3-2.1-4-4.6-5.2-7.4.2-1.7.3-3.4.5-4.9 1.6 2.7 3.8 4.9 6.5 6.5-.2.5-.3.9-.6 1.3-.5.9-.9 2.5-1.2 4.5zm4.2-18.4c-.2.4-.3.8-.4 1.2-2.9-1.8-5.1-4.5-6.4-7.7l.9-3c2 2.6 4.7 4.5 7.8 5.5-1.1 2.1-1.8 3.8-1.9 4zm2.6-5.1c-3.3-1-6-3-8-5.9.4-1 .7-1.9 1.1-2.7 1.1-2.6 2.8-4.1 3.5-4.6 1.9 3.3 5.3 5.3 8.9 6.7-2.1 1.3-4 4-5.5 6.5zm53.1-4.8c-4.4-4.5-13-17.8-6.6-23.7.2.1.4.1.4.1h.2c3.7.6 7.2 1.8 10.4 3.5-1.9 1.4-2.6 4.1-2.9 6.4-.6 4.2.5 8.3 2.7 11.8-1 .4-2.3 1-4.2 1.9zm7.6-1.7c3.5-1 6.6-2.6 9.4-4.8l.3.3c.7.4 1.4 1.4 2.2 2.7-2 2.8-4.7 4.9-7.9 6.2-1.2-1.9-2.7-3.5-4-4.4zm4.9 5.4c3.1-1.3 5.7-3.3 7.8-6 .8 1.5 1.6 3.2 2.3 5.1-1.4 3-3.8 5.3-6.9 6.6-.1-.2-.1-.4-.2-.6-.5-1.3-1.7-3.2-3-5.1zm5.3 23.4c4.1-1.3 6.3-4.8 7.8-8.6 0 1.6.1 3.1.1 4.5-1.1 3.4-3.4 6.1-6.4 7.8-.4-1.4-.9-2.9-1.5-3.7zm4.5 16.9c-.3 1.3-1 2.1-1.6 2.5 0-1.4-.1-3.6-.2-5.7.9-.5 1.7-1.1 2.4-1.9-.2 1.9-.3 3.8-.6 5.1zm3.4-15.8c0 2.1-.8 3.1-1.8 4.3-.5.6-.7 1.9-.9 3.8-.5 1.3-1.4 2.4-2.6 3.2-.1-1.6-.2-3.1-.3-4.1-.1-.8-.3-1.9-.5-3.1 2.6-1.4 4.7-3.5 6.1-6.1v2z" fill="#000000" stroke-width="none" opacity="1"></path></g><g id="svga-group-glasses-single-move" transform="matrix(1,0,0,1,0,0)"><g id="svga-group-glasses-single"><path id="SvgjsPath11962" d="M92.34 97.11c-1.02.74-24.85.93-25.54 0s-1.16-9.88-.39-10.49c.77-.62 25.54-.46 26.31.31.78.76.47 9.56-.38 10.18z" fill="#ffffff" stroke-width="none" opacity="0.71"></path><path id="SvgjsPath11963" d="M107.25 97.11c1.02.74 24.85.93 25.54 0s1.16-9.88.39-10.49c-.77-.62-25.54-.46-26.31.31-.78.76-.47 9.56.38 10.18z" fill="#ffffff" stroke-width="none" opacity="0.71"></path><path id="SvgjsPath11964" d="M135.41 87.79c-.11-.92-.54-1.88-1.63-1.86-.08 0-.15.02-.22.04-.36-.19-2.01-.58-13.55-.47-12.9.12-13.43.64-13.68.89-.38.38-.56 1.48-.63 2.71-4.69-1.6-9.75-.74-11.84-.26-.08-1.12-.25-2.1-.61-2.45-.25-.25-.78-.78-13.68-.89-10.97-.1-13 .24-13.48.44a.965.965 0 0 0-.48-.04c-1.32.29-1.74 1.97-1.05 3.01.17.26.43.42.71.48-.07 3.18.43 7.49.93 8.15.52.69 5.77.94 11.47.94 6.93 0 14.53-.37 15.11-.79.26-.19.75-.54 1.02-3.96.01-.13.13-1.7.12-3.38 1.76-.43 7.11-1.47 11.75.31.01 1.55.11 2.94.12 3.07.27 3.42.75 3.77 1.01 3.96.57.41 8.17.79 15.1.79 5.7 0 10.96-.25 11.48-.94.52-.7 1.06-5.42.92-8.63.59-.03 1.19-.49 1.11-1.12zm-43.54 8.7c-2.48.65-22.12.69-24.51.05-.5-1.36-.8-7.91-.42-9.3 2.76-.49 22.8-.27 25.26.28.43 1.34.19 7.76-.33 8.97zm40.37.05c-2.35.63-22.03.59-24.51-.05-.53-1.22-.77-7.82-.37-8.96 2.32-.55 22.52-.77 25.29-.29.38 1.4.08 8-.41 9.3z" fill="#000000" stroke-width="none" opacity="1"></path></g></g></g></g></g><rect id="svga-credit-rect" width="200" height="15" x="0" y="185" fill="#ecf0f1" opacity="0.5" style="display: none;"></rect><text id="svga-credit-text" font-family="Avenir Next, Roboto, Helvetica, Arial, sans-serif" font-size="10px" text-anchor="start" font-weight="400" size="10px" anchor="start" weight="400" fill="#333333" x="33.40447998046875" y="182.60824704170227" style="display: none;"><tspan id="SvgjsTspan11663" dy="13" x="33.40447998046875">Created on AvatarMaker.com</tspan></text></g><defs id="SvgjsDefs11610"></defs></svg>