<svg xmlns="http://www.w3.org/2000/svg" version="1.1" width="600px" height="600px" viewBox="0 0 200 200" style="overflow:hidden!important;"><g id="svga-group-wrapper"><g id="svga-group-backs-single"><path id="SvgjsPath7508" d="M0 0h200v200H0V0z" fill="#270051" stroke-width="none" opacity="1"></path><path id="SvgjsPath7509" d="M75.9 12.6C50 52.8 18 117.1 50.4 133.9S129.8 94.2 151 97.2s12.5 39.3-9.9 65.2c-17.2 19.8-61.2 31.1-86.7 37.6H200V0H80.6c-.2 3.7-1.7 7.9-4.7 12.6zM39.6 161.1c-15.5-5.6-22-17.7-15.1-47.5C28.7 95.6 16 84.2 0 83.2V200h37.5c11-12.4 13.5-34.7 2.1-38.9z" fill="#13004f" stroke-width="none" opacity="1"></path><path id="SvgjsPath7510" d="M98.7 29.5c-9.3-15.5-28.5-24.1-46-19-7.4 2.2-14.6 6.2-19.8 12-5.5 6.1-8.1 12.2-9.3 20.2-.7 4.4 5.8 8.3 8 3.4 3.6-8.1 11.7-15.6 20.1-18.4 4.6-1.5 9.7-1.9 14.3-.2 4.5 1.6 8.1 5.9 11.4 9.2 3.4 3.5 4.8 7.1 4.2 12-.4 3.9-1.9 8.9-4.9 11.6-2.9 2.5-6.9 3.1-10.5 2.5-2.4-.4-4.9-1.2-7.2-2-2.6-.9-4.5-2.8-7.3-3.2-2.9-.4-6.6.7-7.2 4.1-1.5 8.5 6.3 17 13.6 20.3 9 4.2 20 3.3 28.4-1.8 16.1-9.8 21.9-34.5 12.2-50.7zM200 107.6c-4.1 3.3-7.7 7.1-10.7 11.2-6.3 8.8-10.7 22.6-1.5 31.1 3.5 3.3 7.8 4.7 12.2 5v-47.3zm-73 58.2c-2.5-.7-5.1-1.1-7.7-1.2.3-.4.7-.8 1-1.3 4.1-5.4 9.2-12.6 9.1-19.7-.4-17.7-24.9-18.4-37.7-17.5-15 1.1-29.3 5.9-42.5 13-6.2 3.3-12 7.2-17.7 11.4-4.8 3.5-9.8 7.1-13.4 11.9-.3.2-.5.5-.8.7-3.5 3.1-7.3 6.7-8.3 11.4-1.2 5.5.6 11.4 5.5 14.4 8.4 5.3 21.2 2.1 30.4.6 4-.6 7.9-1.4 11.8-2.2 3.8 3.1 9.2 4.9 13.7 5.5 10.1 1.4 21-.2 28.8-7.2 4.6.6 9.8-.1 14.2-.2 1.4 0 2.9-.1 4.3 0-1 1-2 2-2.9 3-3.7 3.9-7.3 7.6-10.5 11.6h28.4c4.5-4.6 8.7-9.9 9-16.3.4-8.9-6.6-15.6-14.7-17.9zm-.1-122.4c-4.2 11.8-.1 24.1 12 28.7 10.6 4.1 23.2.7 33.2-3.4 9.9-4 19.3-9.1 27.8-15.4V0h-27.2c-9.6 4.4-18.5 10.3-26.6 17.2-8.2 7.1-15.5 15.8-19.2 26.2z" fill="#0a0035" stroke-width="none" opacity="1"></path><path id="SvgjsPath7511" d="M200 145c-1.6 1.1-3.1 2.2-4.6 3.2-22.9 15.8-46.9 31.1-65.8 51.8h.4c2.7-3 5.6-5.9 8.5-8.7 18.6-17.7 40.5-31.3 61.5-45.9v-.4zM10.9 200c2-3.4 4.2-6.6 6-9.4 15.4-22.6 36.5-40.8 58.9-56.3 26.9-18.7 56-33.8 83.2-51.9 14.4-9.5 29.4-20 41-33.1v-.5c-12.4 14.1-28.8 25.2-44.2 35.3-25.5 16.6-52.3 30.8-77.4 48-21.2 14.5-41.3 31.1-57 51.7-3.7 4.8-7.9 10.3-11.2 16.2h.7zm73.2-7.8c20.7-19.7 40.2-40.8 62.6-58.7 16.1-12.9 33.9-24.4 53.3-31.6v-.3c-8.6 3.2-16.9 7.3-24.9 11.9-38.6 22.4-67.1 56.9-99.8 86.6h.4c2.9-2.7 5.6-5.3 8.4-7.9zM0 154.1v.6c15.9-14.9 36.8-25.3 57.4-31.9 33.6-11 69.9-15 102.6-28.8-50.6 20.8-114.9 20.3-156.8 57.2-1.1 1-2.2 1.9-3.2 2.9zm200-85.3c-7.1 6.6-15.1 12.3-23.5 17.1-5.4 3.1-10.9 5.7-16.5 8.1 14.8-6.1 28.4-14 40-25.2zM144.1 0c-.3 1.5-.6 2.9-1.2 4.3-5.5 14.8-21.3 24.1-34.8 30.6C93.2 42.2 77 46.6 60.5 47.8c-16.4 1.3-34.6.3-48.9-8.4C7.1 36.7 3.1 33.1 0 28.9v.8c1.1 1.4 2.3 2.7 3.5 4C16.6 46.4 36 49 53.5 48.6c18.9-.5 37.7-5 54.7-13.2 14.2-7 31.5-17.4 35.8-33.8.1-.5.3-1.1.4-1.6h-.3z" fill="#49006b" stroke-width="none" opacity="1"></path><path id="SvgjsPath7512" d="M55.2 17.1c20.4 0 36.9 16.5 36.9 36.9S75.6 90.9 55.2 90.9 18.3 74.4 18.3 54s16.5-36.9 36.9-36.9z" fill="#b74513" stroke-width="none" opacity="1"></path><path id="SvgjsPath7513" d="M74.6 130.2c16.2 0 29.4 13.2 29.4 29.4S90.8 189 74.6 189s-29.4-13.2-29.4-29.4 13.2-29.4 29.4-29.4z" fill="#1350bc" stroke-width="none" opacity="1"></path><path id="SvgjsPath7514" d="M145.8 29c11.6 0 21 9.4 21 21s-9.4 21-21 21-21-9.4-21-21 9.4-21 21-21z" fill="#48a1af" stroke-width="none" opacity="1"></path><path id="SvgjsPath7515" d="M63.2 21.2c0 7.9-3 17-10.2 24.2s-24.2 22-9.2 20.1S60.4 43.7 67 37.1c5.7-5.7 10.3-9.5 15.3-8.2-5.4-5.8-12.7-9.9-20.9-11.3 1.1 1 1.8 2.2 1.8 3.6zM21.7 69.3c1.5-3.1 2-9 3.8-11.7 2.6-3.9 15.9-17.5 18.3-24 2.4-6.5 3.3-13.5.2-8.3s-2 6.3-7.8 12-9.6 15-8.9 8.1c.6-7 3.9-13.3 7.2-15.9s7.2-3.9 8.1-7.6c.3-1.3.2-2-.1-2.4-14 5.2-24 18.7-24 34.6-.1 5.4 1 10.6 3.2 15.2zm44.4 20c1.7-5.5 4.6-11.8 7.4-16.8 6.3-11.1 10.9-35.3 6.3-23.8-4.6 11.6-5.2 18.5-13.7 26-8.5 7.4-14.4 9.2-17.5 9.6s6.8-7 8.7-9.2c2-2.2 4.6-7.8-1.5-3.3S49 77.9 44 80.3c-4.5 2.2-8.2-.3-11.9 2.4 6.3 5.1 14.3 8.1 23.1 8.1 3.8.1 7.5-.5 10.9-1.5z" fill="#c62500" stroke-width="none" opacity="1"></path><path id="SvgjsPath7516" d="M58.1 46.4c-3.4 4.2-5.3 4.4-8.5 8.9S44 62.6 47 61.4c3-1.2 6.4-3.7 8.3-7.4s2.8-7.6 2.8-7.6zM21 59.4c1-4 .2-6.3 1.6-8.3S26 45 26 45s-2.2 6.1-2.8 8.3-2.2 6.1-2.2 6.1zm69.5-1.7c-1 7.5-8.7 15.3-12.1 17.8-3.4 2.6-7.9 9.7-5.7 7.9s5.3-5.9 8.5-7.9 4.9-3.2 6.9-6.5c.5-.9 1.2-1.8 1.9-2.8 1.3-3.8 2.1-7.9 2.1-12.1 0-4.4-.8-8.6-2.2-12.5.3 4.8 1.3 10.7.6 16.1zM58.3 86.8c-3.4 2.5-6.3 3-10.7 3.3 2.5.5 5 .8 7.7.8 1.8 0 3.6-.1 5.3-.4 1.5-1.9 3-4.2 5-6.5 4.2-4.8 6.5-11.7 5.7-11.9-.8-.2-8.1 11.1-13 14.7zM84 30.9c-6.3 1.5-12.6 6.1-15.4 8.6-3.6 3.2-6.3 15.8-12.5 24.7s-18 4.6-20 1.2 1.2-3.4 3.4-8.1 5.9-6.5 9.3-9.5c3.4-3 10.1-15.2 11.7-20 1.3-4 1-7.4-.5-10.3-.3 0-.6-.1-1-.1-.1 1.6-.3 4.2-.5 6.7-.4 4-4.2 12.3-7.3 16.8C48 45.4 36.9 55.1 33.9 59c-3 4-4.9 12.7 2 15.2s19.4-3.2 22.2-6.9S68.4 45.2 70.3 41c1.4-2.8 9.5-6.8 14.5-9-.2-.4-.5-.8-.8-1.1zm2.8 4c-5.6 2.9-11.3 5.2-13.5 12.1-2.6 7.9-1.6 7.7-3.8 13.7s-5.7 10.9-3 8.1c2.7-2.8 6.5-17.4 7.7-20.6s2-6.1 4.6-7.9c2.3-1.6 6.9-3.4 8.5-4.4-.1-.4-.3-.7-.5-1zM49 17.9c-.4 3.6 1 3.8 1.6 8.5s-.2 5.5-1 9.1-5.7 7.1-8.1 9.7-8.9 7.9-10.5 10.1-3.4 11.1-3.6 15.8c-.1 1.8-.6 3.8-1.3 5.5.3.4.7.9 1.1 1.3 1.2-5.9 2.7-17.4 4.6-21.5 2.2-4.8 8.3-8.1 15.6-15s3.8-7.1 5.7-12.7c1.4-3.9.8-8.2-.1-11.6-1.4.1-2.7.2-4 .5v.3zM18.4 53.5c1-1.9 2-4.2 2.7-6.7 1.8-6.9 2.8-5.2 6.7-12.3 2.4-4.3 4.3-7.4 5-9.8-8.6 6.7-14.3 17.1-14.4 28.8z" fill="#d66c03" stroke-width="none" opacity="1"></path><path id="SvgjsPath7517" d="M30.2 81.6s-4 10.9-5 17.3 3.3 18.8 32.7-15.3 37.7-64.8 35.5-70.4S78 17.7 78 17.7 88.1 7.4 95 9.5c6.8 2.1-.7 23.8-13.7 45.7s-31.8 45-48 52.7-12.2-9.1-3.1-26.3z" fill="#841000" stroke-width="none" opacity="1"></path><path id="SvgjsPath7518" d="M30.2 82.4s-8.4 18.3-4.5 23.7c3.5 4.8 26.4-11.9 41.7-35.2s29.7-51.3 27.3-58.4-20.2 7.8-20.2 7.8 12.2-7.8 16.2-7.8-.7 13.7-4.9 22.4-20 35.1-32 49.4-25.9 22.1-27.1 18.4c-1.2-3.8.9-14.6 3.5-20.3z" fill="#ffb852" stroke-width="none" opacity="1"></path><path id="SvgjsPath7519" d="M162.4 62.8c-4.5 3.6-9.8 6.4-15.5 6.7 1.5-1.4 2.9-2.9 4.2-4.4 4.5-5.1 9.1-8.3 14.8-11.7l.6-.3c.1-.4.1-.8.1-1.2-1.7 1.2-3.6 2-5.5 3-.5.3-1 .5-1.4.8l3.9-3c1-.8 2.1-1.5 3.1-2.2v-.2c0-.5 0-.9-.1-1.4-3.7 3.5-8.4 6.8-12.5 9.5-6.9 4.5-15.2 4.2-22.7 6.9 0 0 0-.1-.1-.1 3.2-2.3 6.8-4.3 9.6-6.3 5.6-4 11-8.4 15.4-13.6 1.9-2.3 3.8-5.5 5-8.9l-1.2-1.2c-3.1 8.3-13.5 17-18.9 21-2.7 2-6.3 4-9.6 6.2.3-.4.6-.8.9-1.1 5.3-6.2 11.6-11.5 16.6-17.9 2.6-3.3 5.2-7.7 5.3-12.1-.7-.3-1.5-.6-2.2-.9.1.4.1.8.1 1.1-.1 2.1-.9 4.2-1.8 6-1.5 2.9-3.6 5.5-5.9 7.9-4.4 4.8-9.3 9.3-13.6 14.3-.2.2-.3.4-.5.6.4-3.2 2.1-6.6 3.7-9.2.8-.7 1.5-1.4 2.2-2.1 1.4-1.5 2.9-3.2 4.1-5.1 1.6-1.6 3.2-3.1 4.6-4.9 2.2-2.8 3.4-6.3 2.6-9.4h-.7c.9 3.5-1.5 7.2-4.6 10.7.8-2.2 1.1-4.5.3-6.7-.6-1.6-1.4-2.7-2.4-3.4-2 .5-3.8 1.3-5.5 2.3 1.6.4 3.1.8 4.7 1.3-1.1 3.9-3.6 6.8-7.1 9.1-.8.6-1.7 1.1-2.6 1.5-.7.2-1.3.5-2 .7-1 .5-1.8.6-2.5.2-.4 1.7-.7 3.4-.7 5.2v.5c.8.6 2.1.9 3.8.8.9 0 1.8-.3 2.7-.6-.8.6-1.5 1.1-2.4 1.6-1.1.7-2.4 1.5-3.8 1.8.1.6.3 1.1.4 1.6 2.1-.6 4.1-1.6 5.9-2.8-1.3 2.6-2.4 5.8-2.3 8.7-.2.2-.3.4-.5.6 1.1 1.5 2.3 2.8 3.7 4 4.9-1.8 10.2-2.1 15.3-3.6 2.6-.8 5-2 7.2-3.5-1.2 1-2.3 2.1-3.4 3.2-2.9 2.9-5.6 6-8.8 8.5.8.1 1.6.2 2.4.2l.2-.2c1.6.1 3.2 0 4.9-.3 5.3-1.6 9.6-4.4 12.5-8.2zm-33.8-13.3c-1.9.4-3.1-.5-3.5-2.8.6.1 1.3 0 2.1-.1 5.8-.8 12.9-6.7 13.7-12.9.1 0 .1 0 .2.1 1.4 1.9-.5 5.6-1.5 7.3-.5.9-1.1 1.8-1.7 2.6-1.4 1.6-3.1 3-5.1 4.2-1.2.9-2.5 1.7-4.2 1.6zm34.9-9.1c.1-.4.3-.7.4-1.1-.3-.5-.6-1-.9-1.4-1 2.5-2.3 5-2.4 7.6-.1 2.2 1.4 3.8 3.6 3.7.9 0 1.8-.3 2.5-.8 0-.5-.1-1-.1-1.4-.2.2-.4.3-.6.4-1.4 1.3-2.8.7-4-1.9.1-.9.3-1.7.6-2.5.2-.8.5-1.7.9-2.6z" fill="#6bd3dd" stroke-width="none" opacity="1"></path><path id="SvgjsPath7520" d="M139 63.7c3.7-2 7.5-3 10.8-5.7-3.3 2.4-7.5 3.7-10.9 5.6-.1 0 0 .1.1.1zm15.6-11.9c-1-1.3-3.6 1.8-4.1 2.2-2.1 1.8-4.1 3.6-6.6 5-1.7 1-3.4 1.9-4.6 3.5-.1.1.1.2.1.1 2.1-2.3 5.2-3.4 7.7-5.3 1-.8 1.9-1.6 2.8-2.4.5-.5 1-1 1.6-1.4.9-.6 3.3-2 2.2.1-.5 1-1.1 1.8-1.8 2.5 1.5-1.4 3.4-3.4 2.7-4.3zm-4.8 6.2c.7-.5 1.4-1.1 2.1-1.8-.9.8-1.6 1.5-1.9 1.7-.1 0-.1.1-.2.1zm-2.1-19.3c-1.1 1.8-2.6 3.5-4.1 5-2.1 2.1-4.3 4-6.6 5.9-3.5 2.9-7.1 5.7-10.3 9 .1.1.1.2.2.4 5.8-5.6 12.7-10.1 18.1-16.1 3.6-4 6.5-9.5 3-13.7h-.7c1.8 2.6 1.9 6.9.4 9.5zm13.9 24.1c-4 3.1-9 6.4-14.3 8.2.9-.1 1.7-.2 2.5-.3 4.5-1.9 8.7-4.8 12.1-7.4.1-.1.2-.1.3-.2.5-.6.9-1.2 1.3-1.8-.6.4-1.2.9-1.9 1.5zM154 34.9c-.1.7-.5 3-1.1 3.2-2.4.7-1-1.7-.8-2.4.6-2 .6-4.1-.4-5.8-.1 0-.2-.1-.3-.1.8 1.4 1 3 .7 4.7-.2 1-1.1 2.4-1 3.5.1.8.7 1.3 1.4.9 1.2-.6 1.8-3.5 1.9-4.6.2-1.2.1-2.3-.1-3.5-.1 0-.2-.1-.3-.1.2 1.3.2 2.7 0 4.2zm-26.3 4.6c1.3-.8 2.8-1.4 4.1-2 .5-.2 1-.5 1.5-.8.1-.1.2-.1.3-.2.1 0 .2-.1.2-.2.3-.2.6-.5.9-.7 1.7-1.4 3.1-3.3 3.8-5.2-.3.1-.5.2-.8.3-.1.2-.2.3-.2.5-.1.2-.2.5-.4.7.1-.2.1-.4.2-.6V31c-.3.1-.5.2-.8.4-.1.7-.3 1.3-.6 1.8-1.1 2.4-3.2 3.5-5.5 4.5-.2.1-.3.1-.5.2-.5.1-.9.2-1.4.3-.1.1-.1.2-.2.3h.6c-.3.1-.5.2-.8.4-.1 0-.2.3-.4.6zm8.3 4.1c1.5-1.9 3.3-5.4 4.2-8.9.8-1.7 1.6-3.5 2.2-5.4-.1 0-.3 0-.4.1-.4 1.2-.9 2.4-1.4 3.5.1-.5.1-1 .1-1.5.2-.4.3-.8.3-1.2v-.6c-.2 0-.4.1-.7.2v.2c-.1.6-.2 1.2-.6 1.9-.5 1-1.6 1.9-2.4 2.7-2.8 2.7-6.4 5.5-10.3 6-.1.2-.2.3-.2.5 2.5-.2 4.8-1.4 6.9-2.9 2.1-1.4 5.2-3.6 6.6-6.2 0 .5-.1 1.1-.2 1.6C139 36 137.8 38 137 39c-1.2 1.7-7.7 8.8-12.1 9.1v.5c4.4-.4 11-7.2 12.5-9.3.6-.8 1.4-2.1 2.2-3.6-.7 2.3-1.8 4.5-2.7 5.9-1.1 1.6-2.4 3.1-3.8 4.4-1.1 1-2.4 2-3.7 2.7-1.8 1.1-3.3 1.5-4.6 1.2v.5c4.4.4 8.7-3.7 11.2-6.8zm-4.4 8.4c3.8-4 9-7.1 12-11.8 2.1-3.2 3.1-7.3 1.1-10.9-.1-.1-.1-.2-.2-.2-.8 0-1.5.1-2.2.2l2.7 1.6c.1 1.1.3 2.1.4 3.2-.1 3-1.5 5-3.2 7.2-1.6 1.9-3.4 3.5-5.2 5-3.4 2.9-6.7 6-9.4 9.5-.4.6-.9 1.2-1.3 1.9.1.1.1.3.1.4 1.7-2.3 3.6-4.4 5.2-6.1zm30.8 3.8c-.2.3-.3.6-.5.9-3.2 2.1-6.6 3.9-9.2 6.7-2.5 2.7-4.7 5.3-7.2 7.4-.1.1-.2.1-.3.2h1.5l.3-.3c6.3-3.1 11.8-7.5 15.4-13.7 1.5-.9 2.8-1.8 4.1-2.9.1-.3.1-.6.1-.8-1.1 1.1-2.4 2-3.7 2.9.2-.4.5-.9.7-1.3 1.4-2.8 2.3-6.2 2.6-9.8-.1-.4-.2-.8-.3-1.3-.3 4.2-1.5 8.4-3.5 12zm-14.3 13.7c1.1-1.1 2.1-2.2 3.1-3.5 3-3.5 6.2-6.2 10.2-8.5-3.3 5.3-8 9.2-13.3 12zm-2.9-3.9c-2.6 1.4-5.4 2.6-8.3 3.4.6.3 1.2.5 1.8.7 2.3-.9 4.4-2 6.4-3.3 3.4-1.9 6.5-4.2 9.3-7.3 5.4-6.1 8.4-14 7.9-21.9-.2-.3-.4-.5-.6-.8.6 8.8-2.7 17.4-9.3 23.8-1 .9-2 1.8-3 2.5 2-2 3.8-4.4 5.2-7.1 1.4-2.6 2.4-5.2 3.1-7.8 1.5-4.7 1.8-9.6.8-14.5-.2-.2-.5-.4-.8-.6.4 1.4.6 2.8.7 4.3-.2-1.3-.5-2.5-.9-3.8V33v.2c-.1-.3-.2-.5-.3-.8-.2-.1-.3-.2-.5-.3.3.7.5 1.3.7 2-.2 2.3-1.2 4.7-2.6 7 .1-.4.3-.8.4-1.1.7-2.3 1-5.4.7-8.3l-.6-.3c.3 2.6 0 5.4-.6 7.7-.5 1.8-1.1 3.6-2 5.2-2.2 3-4.7 5.7-6.4 7-4.7 3.8-12.9 8.5-19.7 7.7.1.1.1.2.2.3 8.3 1.2 18.9-6.2 23.8-11.4-1.2 1.7-2.5 3.2-4 4.6-3.9 3.6-13 7.2-15.4 12.7.1.1.3.2.4.4 2.9-5.6 11.1-8.5 15.5-12.6 2.9-2.7 5.2-5.9 6.8-9.5 1.7-2.8 3.1-6.2 3.4-9.3.6 1.9 1 3.8 1 5.8 0 .5 0 1-.1 1.6 0 .4-.1.8-.1 1.2 0 .2 0 .3-.1.5-.1.5-.1 1-.2 1.4 0 .2-.1.4-.1.6-.1.5-.2.9-.3 1.4 0 .1-.1.2-.1.3-.7 2.4-1.7 4.7-3.1 6.9-2.6 4.2-6.2 7.7-10.3 10.3-2.2 1.4-5.4 3.3-8.5 4.1.3.2.6.3 1 .5 5.9-1.8 12.2-7.1 15.2-10.5.8-.9 1.5-1.9 2.2-2.8-.1.2-.2.3-.3.5-2 4.1-4.9 7.2-8.3 9.6z" fill="#ffffff" stroke-width="none" opacity="1"></path><path id="SvgjsPath7521" d="M57 137.1c6.6 3.6 13.7 6.1 21.1 7.3 6.2 1 14.8 2.1 19.7-2.9-.3-.4-.6-.7-.8-1.1-1.2-1.4-2.6-2.8-4-3.9-.2.1-.4.3-.6.4-2.2 1.3-5.9.8-8.2.5-5.1-.5-10.2-1.8-14.9-3.7-1.5-.6-3-1.3-4.5-2-3 1.1-5.9 2.7-8.5 4.8.1.3.4.5.7.6zm15.3 32.7c-7.6-1.2-15.3-3-22.1-6.7-1.8-1-3.5-2.1-5.1-3.2.1 6.7 2.4 13.4 7 18.8 8.3 9.7 21.5 12.7 32.8 8.4-3.1-.3-6.3-1-9.2-2-6.1-2.1-11.5-5.6-16.8-9.2 5 1.3 10.2 2 15.2 2.6 8 .9 16.3.7 23.9-1.3 2.5-3.4 4.3-7.2 5.2-11.2-.5 0-.9-.1-1.4-.1-8.8-.7-17.3-3.7-25.5-7-8.2-3.4-16.3-7.4-23.2-13.1-1-.8-2-1.7-3-2.6-1.4 2.1-2.5 4.3-3.3 6.6 5 4.4 11.2 7.7 16.3 10.3 8.9 4.5 18.6 8.3 28.5 10.4-6.5.7-13.1.2-19.3-.7z" fill="#003daa" stroke-width="none" opacity="1"></path><path id="SvgjsPath7522" d="M104.2 161.9c.4-3.9-.1-7.8-1.2-11.6-1.2-3.7-3.1-7.2-5.7-10.2s-5.7-5.5-9.2-7.2c-3.5-1.8-7.3-2.8-11.2-3.1-7.8-.6-15.8 2.1-21.6 7.2-2.9 2.6-5.3 5.7-7.1 9.1-1.7 3.5-2.8 7.2-3.1 11.1-.3 3.9.1 7.8 1.3 11.5s3 7.2 5.5 10.2 5.6 5.5 9.1 7.2c3.5 1.8 7.3 2.8 11.2 3 7.8.5 15.6-2.2 21.5-7.2 5.9-4.9 9.7-12.2 10.5-20zm-.7-.3c-6.8 1.4-14.5.7-20.9-.7-1.4-.3-2.8-.7-4.2-1 .9 0 1.8 0 2.8-.1 7.3-.5 15.9-2.5 21.2-7.9.9 3.1 1.3 6.4 1.1 9.7zm-1.3-10.6c-4.5.6-9.4-.4-13.4-1.3-5.7-1.4-11.1-3.7-16-6.8-4-2.6-7.7-5.8-10.8-9.4 1.2-.6 2.4-1 3.6-1.4.1 0 .2-.1.3-.1 4.6 2.6 10.9 3.3 15.6 3.8 2.9.3 6.3.5 9.6.2 2 1.4 3.8 3.1 5.4 4.9 2.6 2.9 4.5 6.3 5.7 10.1zm-25.4-20.3c4.7.4 9.2 1.9 13.2 4.4-1.8.2-3.6.2-5.1.2-3.9-.1-7.9-.7-11.7-1.6-1.3-.3-2.7-.7-4-1.1-.8-.3-1.6-.6-2.3-1 3.2-.8 6.6-1.2 9.9-.9zm-15.4 2.9c2.3 2.6 4.9 4.9 7.4 6.9 6.2 4.9 13.6 8.2 21.3 9.8 3.5.7 8.1 1.5 12.1 1v.1c-1.4 1.4-2.9 2.6-4.6 3.6-6.1 3.5-13.7 4.7-20.8 4.5-4.2-1.3-8.2-2.9-12-5.1-2.7-1.5-5.2-3.2-7.5-5.3-1.2-1.1-2.4-2.2-3.4-3.6-.5-.7-1.6-2.2-2.5-4 1.2-1.5 2.6-2.9 4.1-4.2 1.9-1.4 3.9-2.6 5.9-3.7zM51.2 142c1 1.9 2.3 3.6 3 4.5 5.3 6.3 13.2 10.3 21 12.9-.3 0-.6 0-.9-.1-9.2-.6-19.3-3.5-27.6-8.7 1-3 2.5-6 4.5-8.6zm-4.7 9.3c9.1 5.6 20.4 8.4 30.4 8.6 7.5 2.3 17.8 4 26.6 2.2-.3 3.7-1.2 7.3-2.9 10.7-.9 1.8-2 3.5-3.3 5.1-1.9.8-3.9 1.5-5.9 1.9-14.6 3.1-30.2-2.8-41.8-11.7-1.3-1-2.5-2.1-3.7-3.2-.5-2.6-.7-5.2-.5-7.8.1-1.8.5-3.8 1.1-5.8zm-.4 14.5c5.9 5.4 13.4 9.4 20.5 12 9.6 3.6 20.6 4.4 30.2.8-.7.8-1.3 1.5-2.1 2.2-3.3 1.8-6.9 3.1-10.7 4-3.9.4-7.9.3-11.8-.2-6.3-.8-13.9-3.2-20.5-7.1-2.7-3.4-4.6-7.4-5.6-11.7zM93.4 182c-.6.5-1.3 1-2 1.5-1.4.3-2.7.6-4.1.9 2.1-.6 4.1-1.4 6.1-2.4zm-41.1-3.8c6.5 3.9 13.9 6.4 21.5 7.2 2.2.2 4.4.3 6.6.2-4 .7-8 .9-11.8.8-2.2-.1-4.3-.3-6.4-.6-3.7-1.8-7-4.3-9.7-7.4 0-.1-.1-.1-.2-.2zm20 10.4c-2.9-.3-5.7-1-8.4-2.1 1.5.2 3.1.4 4.7.4 4.9.1 10.2-.3 15.4-1.6 2.1-.2 4.3-.6 6.4-1-2.1 1.3-4.3 2.4-6.7 3.1-3.8 1.1-7.6 1.5-11.4 1.2z" fill="#ffffff" stroke-width="none" opacity="1"></path><path id="SvgjsPath7523" d="m111.5 40.1-2.4-.2c-.1 0-.3 0-.4.2l-1.5 1.8c-.2.3-.7.2-.7-.2l-.5-2.3c0-.1-.1-.2-.2-.3l-2.2-.9c-.3-.1-.4-.6-.1-.7l2-1.2c.1-.1.2-.2.2-.3l.1-2.4c0-.3.4-.5.7-.3l1.8 1.5c.1.1.2.1.4.1l2.3-.6c.3-.1.6.2.5.6l-.9 2.2c-.1.1 0 .3 0 .4l1.3 2c.2.3 0 .7-.4.6zm42.6 118.5-2.4-.2c-.1 0-.3.1-.4.1l-1.5 1.9c-.2.3-.6.2-.7-.2l-.6-2.3c0-.1-.1-.2-.2-.3l-2.2-.9c-.3-.1-.4-.6-.1-.7l2-1.2c.1-.1.2-.2.2-.3l.1-2.4c0-.3.4-.5.7-.3l1.8 1.6c.1.1.2.1.4.1l2.3-.6c.3-.1.6.2.5.6l-.9 2.2c-.1.1 0 .3 0 .4l1.3 2c.3.2 0 .5-.3.5zM17.2 34.2l-2.4-.2c-.1 0-.3 0-.4.2L13 36c-.2.3-.6.2-.7-.2l-.6-2.3c0-.1-.1-.2-.2-.3l-2.2-.9c-.3-.1-.4-.6-.1-.7l2-1.2c.1-.1.2-.2.2-.3l.1-2.4c0-.3.4-.5.7-.3L14 29c.1.1.2.1.4.1l2.3-.6c.3-.1.6.2.5.6l-.9 2.2v.4l1.3 2c.2.2-.1.5-.4.5zm81.6 75.5-2.4-.2c-.1 0-.3.1-.4.2l-1.5 1.8c-.2.3-.7.2-.7-.2l-.6-2.3c0-.1-.1-.2-.2-.3l-2.2-.9c-.3-.1-.4-.6-.1-.7l2-1.2c.1-.1.2-.2.2-.3l.1-2.4c0-.3.4-.5.7-.3l1.8 1.6c.1.1.2.1.4.1l2.3-.6c.3-.1.6.2.5.6l-.9 2.2c-.1.1 0 .3 0 .4l1.3 2c.2.1 0 .5-.3.5zm-43.3 20.9-2.4-.2c-.1 0-.3.1-.4.1l-1.5 1.9c-.2.3-.7.2-.7-.2l-.5-2.3c0-.1-.1-.2-.2-.3l-2.2-.9c-.3-.1-.4-.6-.1-.7l2-1.2c.1-.1.2-.2.2-.3l.1-2.4c0-.3.4-.5.7-.3l1.8 1.6c.1.1.2.1.4.1l2.3-.6c.3-.1.6.2.5.6l-.9 2.2v.4l1.3 2c.1.1-.1.5-.4.5zM172.7 112l-1.5-.1c-.1 0-.2 0-.2.1l-1 1.2c-.1.2-.4.1-.5-.1l-.4-1.5c0-.1-.1-.2-.2-.2l-1.4-.6c-.2-.1-.2-.4 0-.5l1.3-.8c.1-.1.1-.1.1-.2l.1-1.5c0-.2.3-.3.4-.2l1.1 1c.1.1.2.1.2.1l1.5-.4c.2-.1.4.2.3.4l-.6 1.4v.2l.8 1.3c.4.2.2.5 0 .4zm20.7 76-1.5-.1c-.1 0-.2 0-.2.1l-1 1.2c-.1.2-.4.1-.5-.1l-.4-1.5c0-.1-.1-.1-.2-.2l-1.4-.6c-.2-.1-.2-.4 0-.5l1.3-.8c.1-.1.1-.1.1-.2l.1-1.5c0-.2.3-.3.4-.2l1.1 1c.1.1.2.1.2.1l1.5-.4c.2-.1.4.1.3.4l-.6 1.4v.2l.8 1.3c.3.2.2.4 0 .4zM78.6 96.5l-1.6-.1c-.1 0-.2 0-.2.1l-1 1.2c-.1.2-.4.1-.5-.1l-.3-1.5c0-.1-.1-.2-.2-.2l-1.4-.6c-.2-.1-.2-.4 0-.5l1.3-.8c.1-.1.1-.1.1-.2l.1-1.5c0-.2.3-.3.4-.2l1.2 1c.1.1.2.1.2.1l1.5-.4c.2-.1.4.2.3.4l-.5 1.4v.2l.8 1.3c.1.1 0 .4-.2.4zm47.6 61.6-1.5-.1c-.1 0-.2 0-.2.1l-1 1.2c-.1.2-.4.1-.5-.1l-.3-1.5c0-.1-.1-.1-.2-.2l-1.4-.6c-.2-.1-.2-.4 0-.5l1.3-.8c.1-.1.1-.1.1-.2l.1-1.5c0-.2.3-.3.4-.2l1.2 1c.1.1.2.1.2.1l1.5-.4c.2-.1.4.1.3.4l-.6 1.4v.2l.8 1.3c.1.2 0 .5-.2.4zm54.9-74.2-1.2-.9c-.1-.1-.2-.1-.2 0l-1.4.5c-.2.1-.4-.1-.3-.3l.4-1.4v-.2l-.9-1.2c-.1-.2 0-.4.2-.4h1.5c.1 0 .2 0 .2-.1l.8-1.3c.1-.2.4-.2.5.1l.5 1.4c0 .1.1.2.2.2l1.5.4c.2.1.3.3.1.5l-1.2.9c-.1.1-.1.1-.1.2l.1 1.5c-.2.1-.5.3-.7.1zM19.7 20.1l-1.2-.9c-.1 0-.2-.1-.2 0l-1.4.5c-.2.1-.4-.1-.3-.3l.5-1.5v-.2L16 16.5c-.1-.2 0-.4.2-.4h1.5c.1 0 .2 0 .2-.1l.8-1.3c.1-.2.4-.1.5.1l.5 1.4c0 .1.1.1.2.2l1.5.4c.2.1.3.3.1.5l-1.2.9c-.1 0-.1.1-.1.2l.1 1.5c-.1.2-.4.3-.6.2zm-4.6 160.4-1.2-.9c-.1-.1-.2-.1-.2 0l-1.4.5c-.2.1-.4-.1-.3-.3l.4-1.4v-.2l-.9-1.2c-.1-.2 0-.4.2-.4h1.5c.1 0 .2 0 .2-.1l.8-1.3c.1-.2.4-.1.5.1l.5 1.4c0 .1.1.1.2.2l1.5.4c.2.1.3.3.1.5l-1.2.9c-.1.1-.1.1-.1.2l.1 1.5c-.2 0-.5.2-.7.1zm9.2-23.9-1.2-.9c-.1-.1-.2-.1-.2 0l-1.4.5c-.2.1-.4-.1-.3-.3l.5-1.4v-.2l-.9-1.2c-.1-.2 0-.4.2-.4h1.5c.1 0 .2 0 .2-.1l.8-1.3c.1-.2.4-.1.5.1l.5 1.4c0 .1.1.1.2.2l1.5.4c.2.1.3.3.1.5l-1.2.9c-.1.1-.1.1-.1.2l.1 1.5c-.4.1-.6.2-.8.1zM126.9 91l-2.5-2.6c-.1-.2-.3-.2-.6-.2l-3.5.6c-.5.1-.9-.4-.7-.9l1.7-3.2c.1-.2.1-.4 0-.6l-1.7-3.2c-.2-.5.1-1 .7-.9l3.5.6c.2 0 .4 0 .6-.2l2.5-2.6c.4-.4 1-.2 1.1.3l.5 3.6c0 .2.2.4.3.5l3.2 1.6c.5.2.5.9 0 1.1l-3.2 1.6c-.2.1-.3.3-.3.5l-.5 3.6c-.1.6-.8.8-1.1.4zm7.1 92.6-2.5-2.6c-.1-.1-.4-.2-.6-.2l-3.5.6c-.5.1-.9-.4-.7-.9l1.7-3.2c.1-.2.1-.4 0-.6l-1.7-3.2c-.2-.5.1-1 .7-.9l3.5.6c.2 0 .4 0 .6-.2l2.5-2.6c.4-.4 1-.2 1.1.3l.5 3.6c0 .2.2.4.3.5l3.2 1.6c.5.2.5.9 0 1.1l-3.2 1.6c-.2.1-.3.3-.3.5l-.5 3.6c-.2.6-.8.8-1.1.4zm51.8-150.1-3.4-1.2c-.2-.1-.4 0-.6.1l-2.9 2.1c-.4.3-1 0-1-.5l.1-3.6c0-.2-.1-.4-.3-.5l-2.9-2.1c-.4-.3-.3-1 .2-1.1l3.4-1c.2-.1.4-.2.4-.4l1.1-3.4c.2-.5.8-.6 1.1-.2l2 3c.1.2.3.3.5.3h3.6c.5 0 .8.6.5 1l-2.2 2.8c-.1.2-.2.4-.1.6l1.1 3.4c.3.4-.2.9-.6.7zM32.1 142.8l-3.4-1.2c-.2-.1-.4 0-.6.1l-2.9 2.1c-.4.3-1 0-1-.5l.1-3.6c0-.2-.1-.4-.3-.5l-2.9-2.1c-.4-.3-.3-1 .2-1.1l3.4-1c.2-.1.4-.2.4-.4l1.1-3.4c.2-.5.8-.6 1.1-.2l2 3c.1.2.3.3.5.3h3.6c.5 0 .8.6.5 1l-2.2 2.8c-.1.2-.2.4-.1.6l1.1 3.4c.4.4-.1.8-.6.7z" fill="#ffd86c" stroke-width="none" opacity="1"></path><path id="SvgjsPath7524" d="M107 42.6h-.2c-.3-.1-.6-.3-.7-.7l-.6-2.3-2.2-.8c-.3-.1-.6-.4-.6-.8s.1-.7.4-.9l2-1.2.1-2.3c0-.3.2-.7.6-.8s.7-.1 1 .2l1.8 1.5 2.2-.6c.3-.1.7 0 .9.3.2.3.3.6.2 1l-.9 2.2 1.3 1.9c.2.3.2.7 0 1s-.5.5-.9.4l-2.4-.2-1.4 1.8c-.1.2-.4.3-.6.3zm-3.1-4.7 2.1.8c.3.1.5.3.6.6l.5 2.2 1.4-1.7c.2-.2.5-.4.8-.3l2.3.2-1.3-1.9c-.2-.2-.2-.6-.1-.8l.8-2-2.1.6c-.3.1-.6 0-.8-.2l-1.7-1.4-.1 2.2c0 .3-.2.6-.4.7l-2 1zm7.7 1.7zm37.9 121.5h-.2c-.3-.1-.6-.3-.7-.7l-.6-2.3-2.2-.8c-.3-.1-.6-.4-.6-.8s.1-.7.4-.9l2-1.2.1-2.3c0-.4.2-.6.6-.8s.7-.1 1 .1l1.8 1.6 2.2-.6c.3-.1.7 0 .9.3s.3.6.2.9l-.9 2.2 1.3 1.9c.2.3.2.7 0 1s-.5.5-.9.4l-2.4-.2-1.4 1.8c0 .3-.3.4-.6.4zm-3.1-4.7 2.1.8c.3.1.5.4.6.6l.5 2.2 1.4-1.7c.2-.2.5-.4.8-.3l2.3.2-1.3-1.9c-.2-.2-.2-.6-.1-.9l.9-2.1-2.1.6c-.3.1-.6 0-.8-.2l-1.7-1.4-.1 2.2c0 .3-.2.6-.4.7l-2.1 1.2zm7.7 1.7zM12.6 36.7h-.2c-.3-.1-.6-.3-.7-.7l-.6-2.3-2.1-.8c-.3-.1-.6-.4-.6-.8s.1-.7.4-.9l2-1.2.1-2.3c0-.4.2-.6.6-.8.3-.1.7-.1 1 .1l1.8 1.5 2.2-.6c.3-.1.7 0 .9.3s.3.6.2 1l-.9 2.2 1.3 1.9c.2.3.2.7 0 1s-.5.5-.9.4l-2.4-.2-1.4 1.8c-.1.3-.4.4-.7.4zM9.5 32l2.1.8c.3.1.5.3.6.6l.5 2.2 1.4-1.7c.2-.2.5-.4.8-.3l2.3.2-1.3-1.9c-.2-.2-.2-.6-.1-.9l.9-2-2.1.6c-.3.1-.6 0-.8-.2L12 27.9l-.1 2.2c0 .3-.2.6-.4.7l-2 1.2zm7.7 1.7zm77 78.4H94c-.3-.1-.6-.3-.7-.7l-.6-2.3-2.2-.8c-.3-.1-.6-.4-.6-.8s.1-.7.4-.9l2-1.2.1-2.3c0-.3.2-.7.6-.8s.7-.1 1 .2l1.8 1.6 2.2-.6c.3-.1.7 0 .9.3.2.3.3.6.2.9l-.9 2.2 1.3 1.9c.2.3.2.7 0 1s-.5.5-.9.4l-2.4-.2-1.4 1.8c-.1.2-.3.3-.6.3zm-3.1-4.7 2.1.8c.3.1.5.3.6.6l.5 2.2 1.4-1.7c.2-.2.5-.4.8-.3l2.3.2-1.3-1.9c-.2-.2-.2-.6-.1-.8l.8-2.1-2.2.6c-.3.1-.6 0-.8-.2l-1.7-1.4-.1 2.2c0 .3-.2.6-.4.7l-1.9 1.1zm7.7 1.8zm-47.9 23.9h-.2c-.3-.1-.6-.3-.7-.7l-.5-2.3-2.2-.8c-.3-.1-.5-.4-.6-.8s.1-.7.4-.9l2-1.2.1-2.3c0-.3.2-.7.5-.8s.7-.1 1 .2l1.8 1.6 2.2-.6c.3-.1.7 0 .9.3s.3.6.2.9l-.9 2.2 1.3 1.9c.2.3.2.7 0 1s-.5.5-.9.4l-2.4-.2-1.4 1.8c-.1.1-.3.3-.6.3zm-3.1-4.7 2.1.8c.3.1.5.4.6.6l.5 2.2 1.4-1.7c.2-.2.5-.4.8-.3l2.3.2-1.3-1.9c-.2-.2-.2-.6-.1-.8l.8-2.1-2.1.6c-.3.1-.6 0-.8-.2l-1.7-1.4-.1 2.2c0 .3-.2.6-.4.7l-2 1.1zm7.7 1.7zm114.3-16.5h-.1c-.2-.1-.4-.2-.4-.4l-.4-1.5-1.4-.5c-.2-.1-.4-.3-.4-.5s.1-.4.3-.6l1.3-.8.1-1.5c0-.2.1-.4.4-.5.2-.1.4-.1.6.1l1.1 1 1.4-.4c.2-.1.4 0 .6.2s.2.4.1.6l-.6 1.4.8 1.2c.1.2.1.4 0 .6s-.3.3-.6.3l-1.5-.1-.9 1.2c0 .1-.2.2-.4.2zm-1.9-3 1.3.5c.2.1.3.2.4.4l.3 1.4.9-1.1c.1-.2.3-.2.5-.2l1.4.1-.8-1.2c-.1-.2-.1-.4-.1-.5l.5-1.3-1.4.4c-.2.1-.4 0-.5-.1l-1.1-.9-.1 1.4c0 .2-.1.4-.3.5l-1 .6zm4.9 1.1zm17.7 77.9h-.1c-.2-.1-.4-.2-.4-.4l-.4-1.5-1.4-.5c-.2-.1-.4-.3-.4-.5s.1-.4.3-.6l1.3-.8.1-1.5c0-.2.1-.4.4-.5.2-.1.4-.1.6.1l1.1 1 1.4-.4c.2-.1.4 0 .6.2s.2.4.1.6l-.6 1.4.8 1.2c.1.2.1.4 0 .6s-.3.3-.6.3l-1.5-.1-.9 1.2c-.1.1-.3.2-.4.2zm-2-3 1.3.5c.2.1.3.2.4.4l.3 1.4.9-1.1c.1-.1.3-.2.5-.2l1.4.1-.8-1.2c-.1-.2-.1-.4-.1-.5l.5-1.3-1.4.4c-.2.1-.4 0-.5-.1l-1-1-.1 1.4c0 .2-.1.4-.3.5l-1.1.7zm4.9 1.1zM75.7 98c-.3-.1-.5-.2-.5-.4l-.3-1.5-1.4-.5c-.2-.1-.3-.3-.4-.5s.1-.4.3-.6l1.3-.8.1-1.5c0-.2.2-.4.3-.5.2-.1.4-.1.6.1l1.2 1 1.4-.4c.2-.1.4 0 .6.2s.2.4.1.6l-.6 1.4.8 1.2c.1.2.1.4 0 .6s-.3.3-.6.3H77l-.9 1.2c-.1.1-.3.1-.4.1zm-2-2.9 1.3.5c.2.1.3.2.4.4l.3 1.4.9-1.1c.1-.2.3-.2.5-.2l1.4.1-.8-1.2c-.1-.2-.1-.4-.1-.5l.5-1.3-1.4.4c-.2.1-.4 0-.5-.1l-1.1-.9L75 94c0 .2-.1.4-.3.5l-1 .6zm4.9 1.1zm44.7 63.5c-.3-.1-.5-.2-.5-.4l-.3-1.5-1.4-.5c-.2-.1-.3-.3-.4-.5 0-.2.1-.4.3-.6l1.3-.8.1-1.5c0-.2.2-.4.3-.5.2-.1.4-.1.6.1l1.2 1 1.4-.4c.2-.1.4 0 .6.2s.2.4.1.6l-.6 1.4.8 1.2c.1.2.1.4 0 .6s-.3.3-.6.3l-1.5-.1-.9 1.2c-.2.1-.4.2-.5.2zm-2-3 1.3.5c.2.1.3.2.4.4l.3 1.4.9-1.1c.1-.1.3-.2.5-.2l1.4.1-.8-1.2c-.1-.2-.1-.4-.1-.5l.5-1.3-1.4.4c-.2.1-.4 0-.5-.1l-1.1-.9-.1 1.4c0 .2-.1.4-.3.5l-1 .6zm4.9 1.1zm51.7-74-.1-.1c-.2-.2-.2-.4-.2-.6l.4-1.4-.9-1.1c-.1-.2-.2-.4-.1-.6.1-.2.3-.3.5-.3h1.5l.8-1.2c.1-.2.3-.3.6-.2s.4.2.5.4l.5 1.4 1.4.4c.2.1.4.2.4.4s0 .4-.2.6l-1.2.9.1 1.5c0 .2-.1.4-.3.5s-.4.1-.6 0l-1.2-.9-1.4.5c-.2-.1-.4-.1-.5-.2zm-.2-3.6.9 1.1c.1.2.2.3.1.5l-.4 1.3 1.3-.5c.2-.1.4 0 .5.1l1.2.8-.1-1.4c0-.2.1-.4.2-.5l1.1-.8-1.4-.4c-.2-.1-.3-.2-.4-.4l-.4-1.3-.8 1.2c-.1.2-.3.3-.5.3h-1.3zm3.6 3.5zM16.5 20s-.1 0-.1-.1c-.2-.1-.2-.4-.2-.6l.5-1.5-.9-1.1c-.1-.2-.2-.4-.1-.6.1-.2.3-.3.5-.3h1.5l.8-1.2c.1-.2.3-.3.6-.2s.4.2.5.4l.5 1.4 1.4.4c.2.1.4.2.4.5 0 .2 0 .4-.2.6l-1.2.9.1 1.5c0 .2-.1.4-.3.5-.2.1-.4.1-.6 0l-1.2-.9-1.5.3c-.2.1-.4 0-.5 0zm-.2-3.6.9 1.1c.1.1.2.4.1.5l-.4 1.3 1.3-.5c.2-.1.4 0 .5.1l1.2.8-.1-1.4c0-.2.1-.4.2-.5l1.1-.8-1.4-.4c-.2 0-.3-.2-.4-.4l-.3-1.3-.8 1.2c-.1.2-.3.3-.5.3h-1.4zm3.6 3.4zm-8.1 160.5-.1-.1c-.2-.1-.2-.4-.2-.6l.4-1.4-.9-1.1c-.1-.2-.2-.4-.1-.6.1-.2.3-.3.5-.3h1.5l.8-1.2c.1-.2.3-.3.6-.2s.4.2.5.4l.5 1.4 1.4.4c.2.1.4.2.4.4s0 .4-.2.6l-1.2.9.1 1.5c0 .2-.1.4-.3.5s-.4.1-.6 0l-1.2-.9-1.4.5c-.1-.1-.3-.1-.5-.2zm-.1-3.5.9 1.1c.1.1.2.4.1.5l-.4 1.3 1.3-.5c.2-.1.4 0 .5.1l1.2.8-.1-1.4c0-.2.1-.4.2-.5l1.1-.8-1.4-.4c-.2-.1-.3-.2-.4-.4l-.4-1.3-.8 1.2c-.1.2-.3.3-.5.3h-1.3zm3.6 3.4zm5.7-23.8-.1-.1c-.2-.1-.2-.4-.2-.6l.5-1.4-.9-1.1c-.1-.2-.2-.4-.1-.6.1-.2.3-.3.5-.3h1.5l.8-1.3c.1-.2.3-.3.6-.2s.4.2.5.4l.5 1.4 1.4.4c.2.1.4.2.4.4s0 .4-.2.6l-1.2.9.1 1.5c0 .2-.1.4-.3.5-.2.1-.4.1-.6 0L23 156l-1.4.5c-.3 0-.5 0-.6-.1zm-.2-3.5.9 1.1c.1.1.2.4.1.5l-.4 1.3 1.3-.5c.2-.1.4 0 .5.1l1.2.8-.1-1.4c0-.2.1-.4.2-.5l1.1-.8-1.4-.4c-.2-.1-.3-.2-.4-.4l-.5-1.3-.8 1.2c-.1.2-.3.3-.5.3h-1.2zm3.7 3.4zm94.7-67c-.1-.1-.2-.1-.2-.2-.3-.4-.4-1-.1-1.4l1.7-3.2-1.7-3.1c-.2-.5-.2-1 .1-1.4s.8-.6 1.3-.6l3.5.6 2.4-2.5c.4-.4.9-.5 1.4-.3s.9.6.9 1.1l.5 3.6 3.2 1.5c.5.2.8.7.8 1.2s-.3 1-.8 1.2l-3.2 1.6-.4 3.5c-.1.5-.4.9-.9 1.1-.5.2-1.1 0-1.4-.3l-2.5-2.6-3.4.7c-.4-.1-.8-.2-1.2-.5zm1.2-8.4 1.6 2.9c.2.4.2.9 0 1.3l-1.5 3 3.3-.6c.4-.1.9.1 1.2.4l2.4 2.4.4-3.4c.1-.4.3-.8.8-1l3-1.5-3-1.5c-.4-.2-.7-.6-.8-1l-.5-3.3L125 81c-.3.3-.8.5-1.2.4l-3.4-.5zm7 9.6zm-1.1 91.4c-.1-.1-.2-.1-.2-.2-.3-.4-.4-1-.1-1.4l1.7-3.2-1.7-3.1c-.2-.5-.2-1 .1-1.4s.8-.6 1.3-.6l3.5.6 2.4-2.5c.4-.4.9-.5 1.4-.4.5.2.9.6.9 1.1l.5 3.6 3.2 1.5c.5.2.8.7.8 1.2s-.3 1-.8 1.2l-3.2 1.6-.4 3.5c-.1.5-.4.9-.9 1.1-.5.2-1.1 0-1.4-.3l-2.5-2.6-3.4.7c-.4 0-.8-.1-1.2-.4zm1.2-8.4 1.6 2.9c.2.4.2.9 0 1.3l-1.5 3 3.3-.6c.4-.1.9.1 1.2.4l2.4 2.4.4-3.4c.1-.4.3-.8.8-1l3-1.5-3-1.5c-.4-.2-.7-.6-.8-1l-.5-3.3-2.3 2.4c-.3.3-.8.5-1.2.4l-3.4-.5zm7 9.6zm43.7-147.8c-.1 0-.2-.1-.3-.1-.5-.2-.8-.7-.7-1.3l.1-3.6-2.9-2c-.4-.3-.6-.8-.5-1.4.1-.5.5-.9 1-1.1l3.4-1 1-3.3c.2-.5.6-.9 1.1-.9.5-.1 1 .1 1.3.6l2 3h3.5c.5 0 1 .3 1.2.8s.2 1-.1 1.5l-2.2 2.8 1.1 3.3c.2.5 0 1-.4 1.4s-.9.5-1.4.3l-3.4-1.2-2.8 2.1c-.2.1-.6.2-1 .1zm-2.7-8 2.7 2c.4.3.6.7.6 1.1l-.1 3.3 2.7-2c.4-.3.8-.3 1.3-.2l3.2 1.2-1.1-3.2c-.1-.4-.1-.9.2-1.3l2-2.6h-3.3c-.4 0-.9-.2-1.1-.6l-1.9-2.8-1 3.2c-.1.4-.5.8-.9.9l-3.3 1zm10.5 5.5zM24.5 144.6c-.1 0-.2-.1-.3-.1-.5-.2-.8-.7-.7-1.3l.1-3.6-2.9-2c-.4-.3-.6-.8-.5-1.4.1-.5.5-.9 1-1.1l3.4-1 1-3.3c.2-.5.6-.9 1.1-.9.5-.1 1 .1 1.3.6l2 3h3.5c.5 0 1 .3 1.2.8s.2 1-.1 1.4l-2.2 2.8 1.1 3.3c.2.5 0 1-.3 1.4-.4.4-.9.5-1.4.3l-3.4-1.2-2.8 2.1c-.2.2-.7.3-1.1.2zm-2.6-8.1 2.7 2c.4.3.6.7.6 1.1L25 143l2.7-1.9c.4-.3.8-.3 1.3-.2l3.2 1.1-1.1-3.2c-.1-.4-.1-.9.2-1.3l2-2.6H30c-.5 0-.9-.2-1.1-.6l-1.9-2.8-1.1 3.2c-.1.4-.5.8-.9.9l-3.1.9zm10.5 5.6z" fill="#ffe1a6" stroke-width="none" opacity="0.73"></path><path id="SvgjsPath7525" d="M157.3 17.6h.1c.7-.1.7-1 0-1h-.1c-.7-.1-.7 1 0 1zm10.8-5.1c.3 0 .3-.5 0-.5-.4 0-.4.5 0 .5zm1.6 6.2c.2 0 .2-.3 0-.3-.2-.1-.2.3 0 .3zm12.9-7.4c0-.1 0-.1-.1-.2-.1-.2-.3-.2-.3 0 0 .1-.1.1-.1.2 0 .3.6.3.5 0zm.3-8c.2 0 .3 0 .4-.1.2-.1.2-.4 0-.6-.1-.1-.2-.1-.4-.1-.5.1-.5.8 0 .8zM191 17c0-.1 0-.1-.1-.2-.1-.2-.3-.2-.4 0 0 .1-.1.1-.1.2.1.4.7.4.6 0zm3.8-3.1c.3 0 .3-.4 0-.4-.2 0-.2.4 0 .4zm-80.5.7c.5 0 .5-.7 0-.7s-.5.7 0 .7zm-5.5 7.2c.3 0 .3-.5 0-.5-.3.1-.3.5 0 .5zm1.9-10.5c.3 0 .3-.5 0-.5s-.3.5 0 .5zm9.6 6.3c.1 0 .1-.1 0-.1s-.1.1 0 .1zm5.5-6.5c.3 0 .3-.4 0-.4s-.3.4 0 .4zm-.3-7.2c.3 0 .3-.4 0-.4s-.2.4 0 .4zm11.3 3.3c.3 0 .3-.4 0-.4s-.3.4 0 .4zM94.2 35.3c-.2 0-.3 0-.5.2-.1.1-.1.3 0 .4.1.2.3.2.5.2.5-.1.5-.7 0-.8zm2.9 14.4c.2 0 .2-.3 0-.3s-.2.3 0 .3zm5.5-1.8c.3 0 .3-.4 0-.4-.3-.1-.3.4 0 .4zM12.5 56c-.2 0-.2 0-.4.1s-.2.4 0 .5c.2 0 .2.1.4.1.3-.2.3-.8 0-.7zm-4-5.6c.3 0 .3-.5 0-.5s-.3.5 0 .5zm2.5-7c.1 0 .1-.1 0 0 0-.1 0 0 0 0zm22.5-25.7c0-.2 0-.2-.1-.4-.1-.3-.4-.3-.4-.1s-.1.2-.1.4c0 .4.6.4.6.1zm-2.1-7.1c.1 0 .1-.2 0-.2s-.1.2 0 .2zm-2.5.1c.2 0 .2-.4 0-.4s-.2.4 0 .4zm.7-5.7c.3 0 .3-.4 0-.4s-.3.4 0 .4zm5.7 5.4c.3 0 .3-.4 0-.4-.3-.1-.3.4 0 .4zm17.9-5.7c.3 0 .3-.5 0-.5s-.3.5 0 .5zM4.6 15.1c.3 0 .3-.5 0-.5s-.4.5 0 .5zm56.1 88.7c.3 0 .4 0 .6-.2v-.2c-.2-.2-.3-.3-.6-.2-.5-.2-.5.6 0 .6zm-38.9 18.1c.4 0 .4-.6 0-.6s-.4.6 0 .6zm3.9-6.6c.2 0 .2-.3 0-.3s-.2.3 0 .3zm-15.1-12.7c0-.2 0-.2-.1-.4-.1-.1-.3-.1-.4 0-.1.2-.1.2-.1.4-.1.6.7.6.6 0zm7.9-16.4c0-.2 0-.3-.1-.4-.1-.3-.4-.3-.5 0-.1.2-.1.2-.1.4 0 .5.8.5.7 0zm-1.6-10.5c-.1-.1-.3-.2-.4-.3-.1-.1-.3.1-.2.2.1.1.2.3.3.4.2.3.5-.1.3-.3zm-4.1 6.4c.2 0 .2-.4 0-.4s-.2.4 0 .4zm3.6-8.6c.2 0 .2-.3 0-.3s-.2.3 0 .3zm-4.6-2.1c.1 0 .1-.2 0-.2-.2-.1-.2.2 0 .2zm3.2-6.8c.1 0 .1-.2 0-.2-.2-.1-.2.2 0 .2zm164.5 35.6c.1-.1.2-.1.3-.2.2-.1.3-.3.2-.5v-.1c0-.1-.1-.2-.2-.2h-.1c-.2 0-.4 0-.5.2-.1.1-.1.2-.2.3-.3.2.2.7.5.5zm3-5c.4 0 .4-.7 0-.7s-.4.7 0 .7zm2.2 3c.2 0 .2-.3 0-.3s-.2.3 0 .3zm3.9-5.8c.1 0 .1-.2 0-.2s-.2.2 0 .2zm6.1-8.1c.1 0 .2-.1.3-.1s.1-.2 0-.2-.2-.1-.3-.1c-.3-.2-.3.6 0 .4zm-51.5-4.4c.5 0 .5-.8 0-.8s-.5.8 0 .8zm-4 7.5c.1-.1.2-.3.3-.4s-.1-.3-.2-.2c-.1.1-.3.2-.4.3-.5.2 0 .7.3.3zm4.7-3.5c.2 0 .2-.3 0-.3s-.1.3 0 .3zm4-4.3c.2 0 .2-.3 0-.3-.3 0-.3.3 0 .3zm-39.7 6.7c.2 0 .3 0 .5-.1s.2-.4 0-.5-.3-.1-.5-.1c-.5-.1-.5.6 0 .7zm-6.4 8.1c.4 0 .4-.7 0-.7s-.5.7 0 .7zm-5-3.6c.3 0 .3-.5 0-.5s-.3.5 0 .5zm6.8-6.6c.2 0 .2-.3 0-.3-.2.1-.2.3 0 .3zm-1.8 5.4c.2 0 .2-.2 0-.2s-.2.2 0 .2zm-11.1 10c.2 0 .2-.3 0-.3s-.2.3 0 .3zm17.5-1c.3 0 .3-.4 0-.4s-.3.4 0 .4zM31.9 193c.1 0 .2-.1.3-.1.1-.1.1-.3 0-.4-.1 0-.2-.1-.3-.1-.6-.3-.6.9 0 .6zm1.3-8.8c.2 0 .3 0 .5-.1s.2-.5 0-.6-.3-.1-.5-.1c-.5 0-.5.7 0 .8zm1.1 4.8c.2 0 .2 0 .4-.1s.2-.3 0-.3-.2-.1-.4-.1c-.4 0-.4.6 0 .5zm3.7-4.5c0-.1 0-.3-.1-.4 0-.1-.3-.1-.3 0s0 .2-.1.4c.1.3.6.3.5 0zm.2-5.5c.2 0 .2-.4 0-.4-.3 0-.3.4 0 .4zm3.9 6.1c.3 0 .3-.5 0-.5s-.3.5 0 .5zm-9.3-20.4c.3 0 .3-.4 0-.4-.2 0-.2.4 0 .4zm-21.1 22c-.2-.2-.3-.4-.6-.4-.1 0-.3.1-.3.3 0 .3.1.4.4.6.3.4.8-.1.5-.5zM25 165.8c.3 0 .3-.5 0-.5s-.4.5 0 .5zm107.5-37.9c-.1-.1-.1-.2-.2-.4s-.3-.2-.4 0c-.1.1-.1.2-.2.4-.1.7 1 .7.8 0zm-14.7 20.8c.3 0 .3-.5 0-.5s-.3.5 0 .5zm11.8 5.5c.6 0 .6-.9 0-.9s-.5.9 0 .9zm0 8.4c.4 0 .4-.6 0-.6-.3.1-.3.6 0 .6zm-5 6c.2 0 .2-.3 0-.3s-.2.3 0 .3zm-6.8 1.8c.3 0 .3-.4 0-.4s-.2.4 0 .4zm24.3 13.4c.2 0 .3 0 .4-.1.3-.1.3-.5 0-.6-.2-.1-.2-.1-.4-.1-.5 0-.5.8 0 .8zm7.9 10.3c.4 0 .4-.7 0-.7s-.4.7 0 .7zm7.9-8.2c.4 0 .4-.6 0-.6s-.4.6 0 .6zm4.2 7c.3 0 .3-.4 0-.4-.2 0-.2.4 0 .4zm10.1-2.3s0-.1 0 0c-.1-.1-.1 0 0 0zm-16.8-3.1c.2 0 .2-.3 0-.3s-.2.3 0 .3zm3.2-4.3c.2 0 .2-.3 0-.3s-.2.3 0 .3zm-47.6 3.6.3-.9c.1-.3-.3-.5-.5-.3s-.4.4-.5.7c-.2.6.5 1 .7.5zm62.1-57.4c.1-.2.2-.3.3-.5s-.1-.5-.4-.4c-.2.1-.3.2-.5.3-.3.4.3 1 .6.6zm-4.9 12.1c0-.2-.1-.2-.1-.4-.1-.1-.3-.1-.4 0-.1.2-.1.2-.1.4-.2.6.7.6.6 0zm4.3-6.8c.3 0 .3-.4 0-.4-.3-.1-.3.4 0 .4zm5-3.3c.2 0 .2-.3 0-.3s-.2.3 0 .3zm2.2-4.5c.4 0 .4-.6 0-.6s-.4.6 0 .6z" fill="#ffd86c" stroke-width="none" opacity="1"></path></g><g id="svga-group-humanwrap-move" transform="matrix(1,0,0,1,0,-6)"><g id="svga-group-humanwrap" transform="matrix(0.8499995000000001,0,0,0.8499995000000001,15.079935176866513,17.917559267234793)"><g id="svga-group-hair-back-move" transform="matrix(1,0,0,1,0,0)"><g id="svga-group-hair-back"></g></g><g id="svga-group-humanbody-back"><path id="SvgjsPath5778" d="M166.5 181.1c-10.9-6.6-27.6-8.4-35-12.1-4.9-2.5-9.1-4.7-8.9-17.8s1.9-42.4 1.9-42.4H75.4s1.6 29.4 1.9 42.4-4.2 15.6-8.9 17.8c-7.4 3.5-24.1 5.4-35 12.1-10.8 6.6-10 18.9-10 18.9v19.7h153.3V200c-.1 0 .7-12.3-10.2-18.9z" fill="#e4a97f" stroke-width="none" opacity="1" stroke="none"></path></g><g id="svga-group-chinshadow-single"><path id="SvgjsPath9680" d="M124.5 108.9H75.4c.1 1.8 1.6 29.7 1.9 42.3.1 2.6-.1 4.8-.3 6.6 11.9 10.2 23 9 23 9s11.1 1.2 23-8.9c-.3-1.8-.4-4-.4-6.6.2-12.8 1.8-40.6 1.9-42.4z" fill="#c57b46" stroke-width="none" opacity="0.65"></path></g><g id="svga-group-humanbody-front"><path id="SvgjsPath5779" d="M78.7 156.8c.5 4.8 1.7 9.4 3.1 13.9.8 2.3 1.6 4.6 2.6 6.9.8 2 1.7 4.2 3.1 5.9.3.4 1 0 .9-.5-.5-2.2-1.6-4.3-2.4-6.4-.9-2.2-1.7-4.4-2.5-6.6-1.5-4.4-2.8-8.9-4.1-13.3-.2-.4-.8-.3-.7.1zm41.3-1c-1.3 8.2-3.9 16.1-5.4 24.2-.1.4.4.5.6.2 3.1-7.7 4.1-16.1 5.1-24.3-.1-.2-.3-.2-.3-.1zm-25.8 11.9c-.9 3.6 1.9 8.6 6.2 7.6.5-.1.4-.8 0-1-1.4-.5-2.9-.9-3.9-2.1-1.1-1.2-1.5-2.9-1.4-4.5 0-.4-.8-.5-.9 0z" fill="#c57b46" stroke-width="none" opacity="1" stroke="none"></path><path id="SvgjsPath5780" d="M177.3 219.7c-.1-6.6-.3-13.1-.3-19.7l-.3-.3c.1 0 .1 0 .2.1s.1.2.1.1v-1.4c0-.5-.1-.9-.1-1.4-.1-.9-.3-1.9-.5-2.8-.5-1.8-1.1-3.6-2-5.3-1.7-3.4-4.4-6.2-7.7-8.1-3.6-2.2-7.6-3.8-11.6-5.1-4-1.3-8.1-2.4-12.1-3.5-4-1.2-8.1-2.2-11.8-4.2-1.9-1-3.6-2.1-4.8-3.6-1.2-1.6-1.9-3.5-2.3-5.5-.8-4-.4-8.2-.3-12.4l.7-12.6 1.5-25.2.1-1.4h-1.4c-8.2 0-16.4 0-24.6.1l-24.6.3h-.9l.1.9c.8 11.9 1.6 23.8 2.1 35.7.1 3 .3 6 .2 8.9-.1 2.9-.4 5.9-1.6 8.6-.6 1.3-1.4 2.5-2.4 3.5s-2.3 1.8-3.6 2.4c-2.6 1.3-5.4 2.2-8.3 3-5.8 1.5-11.6 2.8-17.3 4.7-2.8.9-5.7 2-8.4 3.4-1.3.7-2.7 1.4-4 2.4-1.3.9-2.4 1.9-3.5 3.1-2.1 2.3-3.6 5.2-4.5 8.1-.5 1.5-.8 3-1 4.6-.1.8-.1 1.6-.1 2.4v2.3l-.2 17.9v1.3h1.4l38.3.2c12.8.1 25.5.1 38.3 0 12.8-.1 25.6-.1 38.3-.3 12.8-.2 25.6-.5 38.3-.7h.6v-.5zm-77.2-1.6H61.8l-37 .2-.1-16.6v-2.2c0-.7 0-1.4.1-2.1.1-1.4.4-2.8.8-4.2.8-2.7 2.1-5.3 3.9-7.5.9-1.1 2-2.1 3.1-2.9 1.1-.9 2.4-1.6 3.7-2.3 2.6-1.4 5.3-2.5 8.1-3.5 5.6-2 11.4-3.4 17.1-5.1 2.9-.8 5.8-1.7 8.5-3.1 1.3-.7 2.7-1.5 3.8-2.6 1.1-1.1 2-2.4 2.6-3.9 1.2-2.9 1.5-5.9 1.6-8.9 0-3-.1-6-.2-9l-1.3-34.8 23.5.4c7.7.1 15.4.1 23.1.1-.4 7.9-.8 15.9-1.1 23.8-.2 4.2-.2 8.4-.3 12.6 0 4.2-.2 8.5.8 12.8.5 2.1 1.3 4.2 2.8 6 1.4 1.7 3.4 2.9 5.3 3.8 3.9 1.9 8 2.8 12.1 3.8s8.2 2 12.2 3.3c4 1.3 7.9 2.8 11.5 5 3.2 1.9 5.8 4.7 7.5 8 .9 1.6 1.5 3.4 1.9 5.2.2.9.4 1.8.4 2.7.1.5.1.9.1 1.4V200l-.3 19c-12.6-.2-25.1-.5-37.7-.7-12.7-.1-25.5-.1-38.2-.2z" fill="#b6672f" stroke-width="none" opacity="1" stroke="none"></path></g><g id="svga-group-clothes-single"><path id="SvgjsPath7370" d="M100.8 184.4c-1.1-3-8.2-7.8-13.2-10.6s-7-4.9-10-8.8c-1.8-3.6-1-8.9-1-8.9-.1-4.7-.6-9.5-.9-14.7-8.2-1.1-13.1 3.7-14 4.6-6.5 6.3-3.1 8.5-5.7 11.5-9.2 2.1-7.1 14.2-10.7 15-8.7 1.9-21.2 7-24.2 21 0 0-1.6 9.2-1.6 26.7h160.7c0-17.5-1.6-26.7-1.6-26.7-3.2-15.2-17.6-19-26.1-21.4-1.4-.6.2-5.2-2.5-10.5-1.4-2.7-3.9-6.5-9.3-7.8 0 0-1.2-6.6-5.4-9.9-4.2-3.3-11.2-2.5-11.2-2.5s-.3 14.1-.3 16.1c0 3.2-.2 4.9-1.6 6.6s-4.4 3.9-6.9 7.5-10.1 7.5-11.7 9c-1.4 1.4-2.8 3.8-2.8 3.8z" fill="#386e77" stroke-width="none" opacity="1" stroke="none"></path><path id="SvgjsPath7371" d="M105.6 187.4c-.6.6-1.7 3.4-1.8 5.7s1.8 11.5 2.1 13.4-1 7.4-1 8.5 2.8 2.8 3.1 1.7c.3-1.1 1.2-8.4.2-10.9s-2.2-10.1-2.2-11.6 1.1-5.6 1.6-6.5c0 0 .2-.8-.6-.9-.8-.1-1.4.6-1.4.6z" fill="#d6d6d6" stroke-width="none" opacity="1"></path><path id="SvgjsPath7372" d="m95.6 186.8.1-.2s1.8-1.3 1.9.9c0 0-1.2 2.8-1.2 4.8s2.2 11.9 2.5 14.1-2.7 10.4-3.1 10.5-2.1-.9-2.6-1.3c-.4-.4 2.5-6.9 2.8-9.9.3-2.9-.4-8.7-1.2-12.2-.8-3.5.4-5.9.8-6.6v-.1z" fill="#d6d6d6" stroke-width="none" opacity="1"></path><path id="SvgjsPath7373" d="M181.4 204.3c-.2-2.6-.4-5.2-.7-7.9l-.2-2-.1-1v-.3c0-.1 0-.2-.1-.3l-.1-.5c-.3-1.4-.7-2.7-1.2-4-1.1-2.6-2.6-5-4.4-7.1-1.9-2.1-4.1-3.8-6.5-5.2-4.6-2.7-9.6-4.2-14.5-5.5v-.1c-.1-.4-.1-.9-.1-1.4-.1-1-.1-2-.3-3.1-.3-2.1-1.1-4.2-2.1-6-1-1.8-2.4-3.6-4.1-4.9-1.5-1.2-3.2-2-5-2.6-.4-1.4-.8-2.8-1.4-4.1-.7-1.6-1.6-3.1-2.9-4.4-1.3-1.4-3.4-2.5-5-3-5.1-1.2-8.6-.4-8.6-.4s-1.2 9.6-2.9 22.5c0 0-3.9 4.9-5.3 6.8-.4.4-.7 1-1.1 1.4-.2.2-.3.4-.5.6l-.6.6c-.8.8-1.7 1.5-2.6 2.2-1.8 1.4-3.8 2.7-5.7 4-.5.3-1 .7-1.4 1.1-.5.4-.8.9-1.2 1.3-.4.5-.7.9-1 1.4l-.5.8-.2.4-.1.1-.2-.3-.3-.6c-.2-.4-.5-.7-.8-1l-1.8-1.8c-1.3-1.1-2.6-2.2-4-3.2s-2.8-1.9-4.2-2.8c-1.4-.9-2.9-1.7-4.2-2.7-2.7-2-4.5-4.6-6.6-7.1-1.1-1.3-1.7-3.5-1.9-4.9-.1-1 .6-10.8-.2-17.9 0-.4-.7-.9-5.6-1.1-5 .1-8.8 3.3-10.4 4.9-1.5 1.6-3.1 3.3-3.9 5.6-.4 1.1-.5 2.4-.7 3.4-.1.9-.3 1.4-.7 1.9-1.7.4-3.3 1.3-4.5 2.5-1.4 1.4-2.3 3-2.9 4.7-.7 1.7-1.1 3.4-1.5 4.9-.2.8-.5 1.5-.8 2.1-.1.3-.3.4-.4.5 0 0-.1 0-.1.1l-.6.1c-3.3.8-6.6 1.9-9.8 3.4-3.1 1.6-6 3.6-8.4 6.2-2.4 2.6-4.2 5.7-5.3 9-.3.8-.5 1.7-.7 2.5l-.1.7c0 .1 0 .2-.1.4v.3l-.2 1.3c-.2 1.7-.3 3.4-.5 5-.5 6.7-.6 13.4-.5 20.1 0 .4.1 1.3.5 1.3 13.4-.2 160.9.2 160.9.2.8 0 1.5-.7 1.5-1.5-.1-5-.2-10.3-.6-15.6zm-27.8-33.4zm-28.8-26.1c1 .6 4.7 2.5 6 5.1.1.8.2 1.8 0 2.6s-.6 1.5-1.1 2.3c-2.1 2.6-6.1 6.3-6.5 6.8 5.1-8.8 1.6-16.8 1.6-16.8zm-50.4 17.7c.9 1.4 4 4.3 5 5.5-.4-.3-3.9-3-4.3-3.2-1.2-.8-1.8-1.7-2.7-2.9-1.8-2.2-2.7-5.1-3.4-8-.3-1.4-.6-2.9.3-3.8 2.2-1.5 5.9-2 6.1-2.1.2 2.7-3.2 5.8-3.1 8.5-.1.3-.1.4-.1.7v.8c.1.5.2 1 .3 1.4.3.7 1.4 2.3 1.9 3.1zM48 171.8c.5-.9.8-1.8 1-2.6.5-1.7.8-3.2 1.4-4.7.5-1.5 1.3-2.8 2.3-3.8s2.3-1.7 3.7-2c.2 0 .3-.1.5-.2.1 1.1.2 2.2.4 3.3.3 1.7.7 3.4 1.4 5 .3.9.8 1.6 1.2 2.4.5.7 1 1.5 1.5 2.2 2.3 2.8 5.1 4.8 8.2 6.4 3.1 1.6 6.3 2.8 9.7 3.4-3.1-1.4-6.1-3-8.9-4.8-1.4-.9-2.8-1.8-4-2.9-1.3-1.1-2.5-2.2-3.4-3.4-.5-.6-1-1.3-1.4-1.9-.4-.7-.8-1.4-1.1-2.1-.7-1.4-1.1-3.1-1.6-4.6-.4-1.4-.7-2.9-.9-4.3.1-.2-.8-5.1 4.4-9.9 1.4-1.5 3-2.8 4.6-3.8 4.2-2.4 6.8-1.4 8.1-1.2.1 2 .2 3.1.3 5.1-.3.1-4.2 1-4.5 1.1-.7.3-1.5.5-2.2 1.1-.7.5-1.1 1.5-1.2 2.3-.1.9 0 1.7.1 2.5.4 3.1 1.3 6.3 3.3 8.9 1 1.3 2.3 2.4 3.6 3.2l3.9 2.4c1.3.8 2.6 1.5 3.9 2.2.8.6 1.5 1.2 2.3 1.7 1.4 1 2.9 1.8 4.4 2.6 1.4.8 2.9 1.7 4.3 2.6s2.8 1.9 4.1 2.9c.7.5 1.3 1.1 1.9 1.7.3.3.6.6.8.9.1.2.2.3.3.5l.2.3c.1.1.2.3.3.4 0 0 .1 0 .2-.1v-.1l.1-.1.1-.2.2-.4.5-.7c.3-.5.7-.9 1.1-1.4.4-.4.8-.9 1.2-1.2.4-.3.9-.7 1.4-1 2-1.2 4-2.4 5.9-3.8 1-.7 1.9-1.4 2.8-2.2.2-.2.4-.4.7-.6.2-.2.4-.4.6-.7.4-.5.7-.9 1.1-1.4 1.5-1.7 3.2-3.3 4.9-4.9l2.6-2.4c.7-.7 3.2-2.8 3.6-3.2 1.5-1.3 2.8-2.7 3.8-4.5 1-1.8.9-4 .2-6.1-1.1-2.4-5.6-5-6.9-5.8l-.1-2.5c.2.1 4.4-.9 8.1 1.4 2.5 1.6 4.6 5.3 5.3 6.7.6 1.4 1.1 2.9 1.4 4.4.1.5.5.9 1 1.1.1 0 .1 0 .2.1-.2 2-.6 4-1.4 5.8-.6 1.5-1.3 2.9-2.3 4-1 1.2-2.2 2.3-3.4 3.3-.6.5-1.2 1-1.8 1.6l-1.9 1.5c-1.3 1-2.6 2-3.9 2.9-2.6 1.9-5.3 3.8-7.9 5.8 3.1-1.3 6-2.8 8.8-4.5 2.8-1.7 5.6-3.6 8.1-5.8.6-.6 1.3-1.1 1.8-1.7l.9-.9.8-1c1.1-1.4 1.8-3 2.3-4.7.6-2 .8-4 .7-6.1 1.4.5 2.6 1.1 3.7 2.1 1.4 1.1 2.4 2.6 3.3 4.2.9 1.6 1.5 3.3 1.7 5.1.1.9.2 1.8.2 2.8 0 .5 0 1 .1 1.6 0 .3.1.6.2 1.1.1.2.2.5.4.7l.1.1-1.4 1.4c-.9.8-1.9 1.6-2.8 2.4-1.9 1.6-3.9 3.1-5.9 4.5-2 1.4-4 2.9-6.1 4-1.1.6-2.1 1.1-3.2 1.5-1.1.4-2.3.8-3.5 1.1-2.4.7-4.8 1.3-7.2 1.8-2.4.6-4.8 1.1-7.2 1.5l-3.6.6c-.6.1-1.2.1-1.7.1-.6 0-1.1-.2-1.6-.4l-.2-.1c.3-1.1.6-2.3 1-3.3.1-.2 0-.5-.1-.7s-.4-.3-.7-.3c-.5 0-.9.3-1.2.6.3-.4.8-.6 1.2-.6.2 0 .5.1.6.3.1.2.2.4.1.7-.5 1.2-.8 2.4-1.2 3.7-.3 1.2-.6 2.6-.4 3.9.2 2.6.6 5.1 1.1 7.7.1.6.3 1.3.4 1.9l.3.9c.1.3.2.6.2.9.2 1.2.2 2.5.2 3.8-.1 1.3-.2 2.6-.3 3.8-.1.6-.2 1.3-.3 1.9 0 .1-.1.3-.1.4-.1 0-.4 0-.6-.1-.5-.2-1-.6-1.3-1-.1-.1-.1-.2-.2-.3v-.3c0-.3.1-.6.1-.9.2-1.3.4-2.5.6-3.8.1-.6.2-1.3.2-1.9 0-.6 0-1.4-.1-2l-.8-3.8c-.5-2.5-1.1-5.1-1.4-7.6-.1-.6-.1-1.3-.1-1.9 0-.5.1-.9.2-1.4 0 0 .1-.4.1-.5.2-.6.3-1.2.6-1.9-.2.6-.4 1.2-.6 1.9 0 .1-.1.3-.1.4-1-.6-2.1-.9-3.3-1.1-1.3-.2-2.5-.3-3.8-.5.2-.8.4-1.5.7-2.2 0-.2-.1-.5-.2-.7s-.2-.4-.5-.6c-.5-.2-1 0-1.4.3.4-.2.9-.4 1.3-.2s.5.8.5 1.2c-.5 1.2-1 2.4-1.2 3.8-.1.6-.2 1.4-.1 2 .1.7.2 1.3.3 2 .4 2.6.9 5.2 1.4 7.8l.3 1.9c.1.6.2 1.3.2 1.9-.1 1.2-.4 2.5-.8 3.7-.4 1.2-.8 2.5-1.2 3.7-.2.6-.5 1.2-.7 1.8-.1.1-.1.2-.2.4-.2-.1-.4-.1-.7-.3-.3-.1-.6-.3-.8-.5-.1-.1-.2-.2-.4-.3l-.1-.1c0-.2.1-.5.2-.8l.3-.9 1.3-3.7c.4-1.3.8-2.5 1-3.9.2-1.4.1-2.7 0-4-.2-2.6-.7-5.2-1.2-7.8-.6-1.8-.6-3.9-.1-5.7h.1s0-.1-.1-.1c.2-.6.4-1.2.7-1.8-.3.5-.6 1.1-.8 1.7-.5-.6-.8-1.4-.6-1.9.2-.6.8-1 1.6-.9.7 0 1.4.4 2 .9.3.3.5.6.6 1 .1.3-.1.7-.5 1 .2 0 .5-.1.7-.3s.3-.5.3-.7c0-.5-.2-1-.5-1.4-.6-.8-1.5-1.4-2.5-1.5-.5 0-1.1.1-1.6.4s-.8.8-.8 1.4c-.1 1.1.6 1.8 1.4 2.2-.1.4-.2.7-.3 1.1l-5.5-.7c-2.6-.4-5.2-.6-7.8-1-2.6-.4-5.2-.8-7.7-1.3-1.3-.2-2.5-.5-3.7-.9-1.2-.3-2.4-.9-3.6-1.4-2.4-1-4.7-2.3-6.9-3.5-2.3-1.3-4.5-2.6-6.7-4-1.1-.7-2.2-1.4-3.2-2.2l-1.5-1.2-.6-.6c-.1-1 .1-1.3.3-1.6zm52 47.5-20.1.2-20.1.1c-13.2.1-26.3 0-39.5-.2.1-6.4.4-12.9 1.1-19.3.2-1.6.4-3.3.6-4.9l.2-1.2v-.3c0-.1 0-.2.1-.3l.1-.6c.2-.8.4-1.5.7-2.3 1.1-3 2.8-5.7 5-8s4.9-4.1 7.8-5.5c2.9-1.4 6-2.5 9.1-3.2l.6-.1c.4-.1.7-.2 1-.5.2-.1.3-.2.4-.4.5.8 1.2 1.4 1.9 2.1 1 .9 2 1.8 3 2.6 2.1 1.6 4.2 3.1 6.5 4.6 2.2 1.4 4.5 2.7 6.9 3.9 1.2.6 2.4 1.1 3.8 1.5 1.3.4 2.6.7 3.9 1 5.2 1 10.4 1.6 15.7 1.9 2.2.1 3.4.2 5.5.2-.1 1.2 0 2.5.2 3.7.5 2.6.8 5.2.9 7.8.1 1.3.1 2.6-.1 3.9-.2 1.2-.6 2.5-1 3.7l-1.3 3.7c-.1.3-.2.6-.3 1-.1.3-.2.6-.2 1.1v.3c0 .1.1.2.1.2l.1.1c.1.1.2.1.2.2.1.1.3.2.4.3.3.2.6.4.9.5.3.2.6.3 1.1.4h.4c.2-.1.2-.1.3-.2.1-.1.2-.2.2-.3.1-.2.2-.3.2-.5.3-.6.5-1.2.7-1.9.4-1.2.8-2.5 1.2-3.8.3-1.3.7-2.6.8-4 0-.8-.2-1.4-.3-2-.1-.6-.2-1.3-.4-1.9-.5-2.6-1.1-5.1-1.6-7.7-.1-.6-.2-1.3-.3-1.9-.1-.6-.1-1.3 0-1.9 0-.2.1-.4.1-.6 2.4.1 4.9-.1 7.2.7-.1.5-.2.9-.2 1.4-.1.6 0 1.3.1 1.9.3 2.6.7 5.1 1.1 7.7l.6 3.8c.2 1.2-.1 2.5-.3 3.7l-.7 3.8c-.1.3-.1.6-.1 1 0 .1 0 .5.1.7.1.2.2.4.3.5.5.6 1.1 1 1.7 1.3.3.1.7.3 1.3.2.3-.1.6-.4.7-.6.1-.2.1-.4.1-.5.1-.7.2-1.3.3-2 .2-1.3.2-2.6.3-3.9 0-1.3 0-2.6-.3-3.9-.1-.3-.2-.7-.3-1l-.3-.9c-.2-.6-.4-1.2-.5-1.9-.6-2.5-1.1-5-1.5-7.6-.2-1-.1-2.1.2-3.1.6.3 1.3.5 1.9.6.3.1.7.1 1 .1h1c1.3 0 2.5-.2 3.8-.3 5-.6 9.9-1.6 14.7-2.9 1.2-.4 2.4-.7 3.6-1.2 1.2-.4 2.4-1 3.5-1.7 2.2-1.3 4.2-2.8 6.1-4.4 1.9-1.6 3.8-3.2 5.6-5 .9-.9 1.8-1.8 2.6-2.8.4-.5.8-1 1.2-1.6.2.1.4.3.6.4.1 0 .1.1.2.1 5 1.4 9.9 2.9 14.2 5.5 4.3 2.5 7.7 6.2 9.6 10.7.4 1.1.8 2.3 1.1 3.5l.1.4v.4l.1.9.2 1.9c.3 2.6.5 5.1.7 7.7.3 4.7.5 9.4.5 14.1l-38.6.2c-13.2.2-26.6.4-40 .6zm4.7-30.4c-.3-.4-.4-.8-.4-1.1 0-.4.1-.7.3-1 .4-.5 1.2-.7 1.9-.6.7.1 1.5.5 1.8 1.1.2.3.2.6.1 1s-.4.7-.7 1.1c.4-.1.8-.4 1.1-.9.3-.4.3-1.1.1-1.6-.4-1-1.4-1.6-2.4-1.8-.5-.1-1-.1-1.5.1s-1 .5-1.2 1c-.2.4-.3 1-.2 1.5.3.6.7 1 1.1 1.2zM41 209.2c-.7-2.7-1.6-5.3-2.8-7.8-1.2-2.5-2.7-4.9-4.5-7-1.8-2.1-3.8-4.1-6.2-5.4 1.1.8 2.1 1.8 3 2.8 1 1 1.8 2 2.6 3.1 1.6 2.2 3 4.5 4.2 7 .6 1.2 1.2 2.4 1.6 3.7.5 1.2.9 2.6 1.4 3.8.4 1.3.7 2.6 1.1 3.9.3 1.3.6 2.7.9 4-.1-1.4-.3-2.7-.5-4.1-.2-1.3-.4-2.6-.8-4zm125.6-13.9c-1.8 1.9-3.3 4.1-4.5 6.4-1.2 2.3-2.2 4.8-3 7.3-.4 1.2-.6 2.5-1 3.8l-.6 3.9c.4-1.2.7-2.5 1.1-3.7.4-1.2.8-2.5 1.2-3.7.2-.6.5-1.2.7-1.8s.5-1.2.8-1.8c.5-1.2 1.1-2.3 1.7-3.5 1.2-2.2 2.6-4.4 4.2-6.4.8-1 1.7-1.9 2.6-2.9.9-.9 1.9-1.8 3-2.4-2.4 1.1-4.4 2.9-6.2 4.8z" fill="#184f58" stroke-width="none" opacity="1" stroke="none"></path></g><g id="svga-group-head" transform="matrix(1,0,0,1,0,0)"><g id="svga-group-ears-left-move" transform="matrix(1,0,0,1,0,0)"><g id="svga-group-ears-left"><path id="SvgjsPath6243" d="M61.3 90s-2.5-2.4-5.4-3.5-6.1.7-7.1 3.7c-1 2.9 1.3 15.1 5 19.5s6.2 4.8 8.7 2.5c2.5-2.3 7-10.8-1.2-22.2z" fill="#e4a97f" stroke-width="none" opacity="1" stroke="none"></path><path id="SvgjsPath6244" d="M62.6 91.8c.4.6.8 1.3 1.2 1.9.4.6.7 1.4 1.1 2 .3.7.6 1.4.9 2.2.2.8.5 1.5.6 2.4.1.4.2.8.2 1.2l.1 1.2c0 1.7-.2 3.4-.7 4.9-.5 1.6-1.2 3-2.2 4.2-.2.3-.5.6-.8.8-.3.2-.6.5-.9.7-.6.4-1.3.7-2.1.8-.7.1-1.5 0-2.2-.3s-1.3-.7-1.8-1.2c-.6-.5-1.1-1-1.6-1.6s-.9-1.1-1.4-1.8c-1.7-2.6-2.6-5.7-3.4-8.7-.4-1.5-.8-3-1.1-4.6s-.6-3.2-.5-4.9c0-.4.1-.9.2-1.3.1-.2.1-.4.2-.6l.3-.6c.4-.7.9-1.3 1.5-1.8 1.2-1 2.6-1.4 4-1.2.7.1 1.4.3 2 .6.6.3 1.2.7 1.8 1.1 1.2.8 2.3 1.6 3.3 2.6l1.3 2zm-4.7-4.1c-.6-.3-1.2-.6-1.8-.8-.6-.2-1.2-.3-1.8-.3-1.2.1-2.3.6-3.3 1.4-.5.4-.9.9-1.2 1.5-.2.3-.3.6-.4.9-.1.3-.2.6-.2.9-.2 1.4-.1 3 .1 4.6.2 1.5.4 3.1.8 4.6.8 3 1.9 6 3.6 8.2.9 1.1 1.9 2.1 3 2.9s2.2 1.3 3.3 1.1c.5-.1 1.1-.3 1.6-.7.5-.4 1-.8 1.4-1.3.8-1 1.5-2.3 1.9-3.7.5-1.4.7-2.8.7-4.3s-.2-3-.4-4.5c-.6-3-2-5.8-3.7-8.2-1.3-.9-2.4-1.7-3.6-2.3z" fill="#d59161" stroke-width="none" opacity="1" stroke="none"></path><path id="SvgjsPath6245" d="M52.6 89.6c3.3.6 5.4 6.1 6 9.8.1.1.1.2.2.3.4.6-.4 1.2-.8.6-.5-.8-1-1.6-1.8-1.9-1.4-.5-2.1 1.1-1.8 2.6.4 1.9 1.6 3 2.6 4.4.1.1 0 .3-.1.2-1.7-1-4.3-4.8-3.1-7.2.9-1.7 2.3-1.4 3.4-.4-.8-2.1-1.4-4.3-3-5.9-.5-.5-1.5-1.4-2.2-1.3-1.3.2-1.3 2.1-1.3 3.4-.1 1.7.1 3.4.4 5 0 .2-.2.2-.3.1-.7-2.4-2-10.4 1.8-9.7z" fill="#c57b46" stroke-width="none" opacity="1" stroke="none"></path></g></g><g id="svga-group-ears-right-move" transform="matrix(1,0,0,1,0,0)"><g id="svga-group-ears-right"><path id="SvgjsPath6246" d="M138.7 90s2.5-2.4 5.4-3.5 6.1.7 7.1 3.7c1 2.9-1.3 15.1-5 19.5s-6.2 4.8-8.7 2.5c-2.5-2.3-7-10.8 1.2-22.2z" fill="#e4a97f" stroke-width="none" opacity="1" stroke="none"></path><path id="SvgjsPath6247" d="M138.6 89.9c1.1-1 2.2-1.8 3.3-2.6.6-.4 1.2-.7 1.8-1.1.6-.3 1.3-.6 2-.6 1.4-.2 2.8.3 4 1.2.6.5 1.1 1.1 1.5 1.8l.3.6c.1.2.2.4.2.6.1.4.2.9.2 1.3.1 1.7-.2 3.3-.5 4.9s-.7 3.1-1.1 4.6c-.9 3-1.8 6-3.4 8.7-.4.7-.9 1.2-1.4 1.8-.5.6-1 1.1-1.6 1.6s-1.2.9-1.8 1.2c-.7.3-1.4.4-2.2.3-.7-.1-1.4-.4-2.1-.8-.3-.2-.6-.4-.9-.7-.3-.3-.6-.5-.8-.8-1-1.2-1.7-2.6-2.2-4.2s-.7-3.3-.7-4.9l.1-1.2c0-.4.1-.8.2-1.2.1-.8.4-1.6.6-2.4.3-.7.6-1.5.9-2.2.4-.7.7-1.4 1.1-2 .4-.6.8-1.3 1.2-1.9l1.3-2zm.1.1c-1.7 2.4-3 5.2-3.7 8.2-.3 1.5-.5 3-.4 4.5s.3 2.9.7 4.3 1.1 2.6 1.9 3.7c.4.5.8 1 1.4 1.3.5.4 1 .6 1.6.7 1.1.2 2.2-.3 3.3-1.1 1-.8 2.1-1.8 3-2.9 1.7-2.3 2.8-5.2 3.6-8.2.4-1.5.6-3.1.8-4.6s.3-3.1.1-4.6c0-.4-.1-.6-.2-.9-.1-.3-.3-.6-.4-.9-.3-.6-.7-1-1.2-1.5-.9-.8-2.1-1.3-3.3-1.4-.6 0-1.2.1-1.8.3-.6.2-1.2.5-1.8.8-1.4.6-2.5 1.4-3.6 2.3z" fill="#d59161" stroke-width="none" opacity="1" stroke="none"></path><path id="SvgjsPath6248" d="M147.4 89.6c-3.3.6-5.4 6.1-6 9.8-.1.1-.1.2-.2.3-.4.6.4 1.2.8.6.5-.8 1-1.6 1.8-1.9 1.4-.5 2.1 1.1 1.8 2.6-.4 1.9-1.6 3-2.6 4.4-.1.1 0 .3.1.2 1.7-1 4.3-4.8 3.1-7.2-.9-1.7-2.3-1.4-3.4-.4.8-2.1 1.4-4.3 3-5.9.5-.5 1.5-1.4 2.2-1.3 1.3.2 1.3 2.1 1.3 3.4.1 1.7-.1 3.4-.4 5 0 .2.2.2.3.1.7-2.4 2-10.4-1.8-9.7z" fill="#c57b46" stroke-width="none" opacity="1" stroke="none"></path></g></g><g id="svga-group-faceshape-wrap"><g id="svga-group-faceshape-single"><path id="SvgjsPath9668" d="M143.2 82v-.3c-1.3-29.9-20.7-46.4-43.2-46.4S58.1 51.8 56.9 81.7v.3c0 3 0 30.2 5.7 41.9C77.7 155 100 153.7 100 153.7s22.3 1.4 37.5-29.8c5.7-11.7 5.7-38.9 5.7-41.9z" fill="#e4a97f" stroke-width="none" opacity="1"></path><path id="SvgjsPath9669" d="M137.5 123.9c5.7-11.7 5.7-38.9 5.7-41.9v-.3c-1.3-29.9-20.7-46.4-43.2-46.4S58.1 51.8 56.9 81.7v.3c0 3 0 30.2 5.7 41.9C77.7 155 100 153.7 100 153.7s22.3 1.4 37.5-29.8zM87.7 148c-4.2-1.7-8.5-5.5-11.8-8.8l-2.4-2.5-2.2-2.8c-.8-.9-1.4-1.9-2.1-2.9-.6-1-1.3-1.9-2-3l-1.7-3.1c-.6-1-1.2-2.1-1.6-3.1-1-2-1.6-4.3-2.3-6.6-1.2-4.6-2-9.4-2.6-14.2-.6-4.8-1-9.7-1.2-14.5-.1-2.4-.2-4.9 0-7.2.1-1.2.1-2.4.3-3.6l.6-3.6.1-.9.2-.9.5-1.7.5-1.7c.1-.6.4-1.1.6-1.7.4-1.1.8-2.3 1.3-3.4l1.6-3.2c2.3-4.2 5.3-8 8.8-11.1 3.5-3.1 7.6-5.6 12-7.2s9-2.5 13.6-2.7 9.3.3 13.8 1.5c8.9 2.4 17 7.9 22.6 15.7l2 3c.6 1 1.1 2.1 1.7 3.2.6 1.1 1 2.2 1.5 3.3.4 1.1.9 2.2 1.2 3.4l1 3.5c.2 1.2.5 2.4.7 3.6l.3 1.8.2 1.9c.1 1.5.2 3.8.2 5.3-.1 7.1-.6 14.2-1.8 21.2-.6 3.8-1.4 7.5-2.5 11.2-.3.9-.5 1.8-.9 2.7-.4.9-.6 1.8-1 2.6-.7 1.6-1.8 3.2-2.7 4.9-.5.8-.9 1.6-1.5 2.4l-1.6 2.3c-.6.8-1 1.6-1.6 2.3l-1.8 2.1c-1.1 1.5-2.5 2.7-3.7 4.1-.6.7-3.3 3-4.1 3.5 0 0-2.3 1.8-7.3 4.5-1.2.6-2.4 1.2-3.7 1.6-4.3 1.7-9.1 3.7-21.2-1.2z" fill="#b6672f" stroke-width="none" opacity="1"></path></g></g><g id="svga-group-mouth-single-move" transform="matrix(1,0,0,1,0,0)"><g id="svga-group-mouth-single"><path id="SvgjsPath5849" d="M88.41 126.92c1.99 3.72 6.55 5.56 10.64 5.71 4.32.17 10.29-1.51 13.17-4.89.35-.41-.09-.98-.59-.82-1.89.64-3.52 1.88-5.35 2.66-2.01.86-4.21 1.45-6.42 1.57-4.41.23-7.92-1.55-10.92-4.61-.23-.22-.69.09-.53.38z" fill="#d59161" stroke-width="none" opacity="1" transform="translate(0 2)" stroke="none"></path><path id="SvgjsPath5850" d="M96.23 130.28c3.55.91 9.28.24 11.77-2.7.21-.25.01-.77-.37-.68-1.75.39-3.29 1.35-5 1.85-2.09.61-4.21.75-6.39.94-.34.03-.33.5-.01.59z" fill="#ecb68f" stroke-width="none" opacity="1" transform="translate(0 2)" stroke="none"></path><path id="SvgjsPath5851" d="M94.82 121.9c-1.73-.21-2.43-.06-4.11.75s-2.5.96-3.93.56c-1.5-.42-2.02-2.2-2.02-2.2-.52 0-.65 1.62.65 2.77s5.54 1.43 8.33 1.32c3.47-.13 5.4-.17 5.4-.17h1.36s1.92.04 5.4.17c2.79.1 7.04-.17 8.33-1.32s1.17-2.77.65-2.77c0 0-.52 1.78-2.02 2.2-1.44.4-2.25.25-3.93-.56s-2.38-.96-4.11-.75c-.86.1-3.06.8-5.12.8-1.42 0-4.02-.69-4.88-.8z" fill="#da7c87" stroke-width="none" opacity="1" transform="translate(0 2)" stroke="none"></path></g></g><g id="svga-group-eyes-left-move" transform="matrix(1,0,0,1,0,0)"><g id="svga-group-eyes-left"><g id="svga-group-eyesback-left"><path id="SvgjsPath10288" d="M89.5 94.7s-.9-1.9-2.9-3.3c-2-1.3-4.8-2.7-9-1.7-4.2 1-6.6 3.3-8.1 5.3 0 0 .4.5 1.4 1.1 1 .6 4.7 2.7 8.8 2.5 4.1-.2 7.8-2.5 8.5-2.9.7-.3 1.3-1 1.3-1z" fill="#ffffff" stroke-width="none" opacity="1"></path></g><g id="svga-group-eyesiriswrapper-left" transform="matrix(1,0,0,1,0,0)"><g id="svga-group-eyesiriscontrol-left" transform="matrix(1,0,0,1,0,0)"><g id="svga-group-eyesiris-left"><path id="SvgjsPath8141" d="M80.1 88.1c3 0 5.5 2.4 5.5 5.5S83.1 99 80.1 99s-5.5-2.4-5.5-5.5 2.4-5.4 5.5-5.4z" fill="#4e60a3" stroke-width="none" opacity="1"></path><path id="SvgjsPath8142" d="M80.1 99.3c-3.2 0-5.7-2.6-5.7-5.7 0-3.2 2.6-5.7 5.7-5.7 3.2 0 5.7 2.6 5.7 5.7s-2.6 5.7-5.7 5.7zm0-11c-2.9 0-5.2 2.3-5.2 5.2s2.3 5.2 5.2 5.2 5.2-2.3 5.2-5.2c-.1-2.8-2.4-5.2-5.2-5.2z" fill="#253984" stroke-width="none" opacity="1"></path><path id="SvgjsPath8143" d="M80.1 90.6c1.6 0 2.9 1.3 2.9 2.9s-1.3 2.9-2.9 2.9-2.9-1.3-2.9-2.9 1.2-2.9 2.9-2.9z" fill="#000000" stroke-width="none" opacity="1"></path><path id="SvgjsPath8144" d="M78.7 90.5c.6 0 1 .5 1 1s-.5 1-1 1-1-.5-1-1 .5-1 1-1zm3.4 4.7c.2 0 .4.2.4.4s-.2.4-.4.4-.4-.2-.4-.4.2-.4.4-.4z" fill="#ffffff" stroke-width="none" opacity="1"></path></g></g></g><g id="svga-group-eyesfront-left"><path id="SvgjsPath10296" d="M69.4 94.6c0 6.4 4.7 11.5 10.6 11.5s10.6-5.2 10.6-11.5S85.9 83.1 80 83.1s-10.6 5.1-10.6 11.5zm.1.5c1.5-1.9 4-4.3 8.1-5.3s7 .4 9 1.7c2 1.3 2.9 3.3 2.9 3.3s-.6.6-1.3 1.1c-.7.4-4.4 2.7-8.5 2.9-4.1.2-7.8-1.9-8.8-2.5-.9-.7-1.4-1.2-1.4-1.2z" fill="#e4a97f" stroke-width="none" opacity="1"></path><path id="SvgjsPath10297" d="M89 91.7c-4.4-3.6-9.7-4.3-15-2.6-.2.1-.3-.2-.1-.3 5-2.2 11.3-.9 15.2 2.8.1 0 0 .1-.1.1z" fill="#d59161" stroke-width="none" opacity="1"></path><path id="SvgjsPath10298" d="M68.9 96c.2-.2.5-.4.7-.6 5.1 5.2 15 4.5 20-.4 0 0 0 .1.1.1.1.2.4 0 .3-.2 0-.1-.1-.1-.1-.2.1-.1 0-.3-.2-.3-2.1-3.6-6.3-5.4-10.4-5.2-3.9.2-9.2 2.8-10.7 6.6-.2.3.1.4.3.2zm.9-.8c1.2-1.1 2.2-2.4 3.7-3.3 1.6-1 3.3-1.7 5.2-2 4.2-.7 8.4 1.3 10.6 4.8-2.8 2.1-5.9 3.6-9.5 3.7-3.9.1-6.7-1.3-10-3.2z" fill="#1a1100" stroke-width="none" opacity="1"></path></g></g></g><g id="svga-group-eyes-right-move" transform="matrix(1,0,0,1,0,0)"><g id="svga-group-eyes-right"><g id="svga-group-eyesback-right"><path id="SvgjsPath10289" d="M110.5 94.7s.9-1.9 2.9-3.3c2-1.3 4.8-2.7 9-1.7 4.2 1 6.6 3.3 8.1 5.3 0 0-.4.5-1.4 1.1-1 .6-4.7 2.7-8.8 2.5-4.1-.2-7.8-2.5-8.5-2.9-.7-.3-1.3-1-1.3-1z" fill="#ffffff" stroke-width="none" opacity="1"></path></g><g id="svga-group-eyesiriswrapper-right" transform="matrix(1,0,0,1,0,0)"><g id="svga-group-eyesiriscontrol-right" transform="matrix(1,0,0,1,0,0)"><g id="svga-group-eyesiris-right"><path id="SvgjsPath8145" d="M119.9 88.1c3 0 5.5 2.4 5.5 5.5S123 99 119.9 99s-5.5-2.4-5.5-5.5 2.5-5.4 5.5-5.4z" fill="#4e60a3" stroke-width="none" opacity="1"></path><path id="SvgjsPath8146" d="M119.9 99.3c-3.2 0-5.7-2.6-5.7-5.7 0-3.2 2.6-5.7 5.7-5.7 3.2 0 5.7 2.6 5.7 5.7s-2.5 5.7-5.7 5.7zm0-11c-2.9 0-5.2 2.3-5.2 5.2s2.3 5.2 5.2 5.2 5.2-2.3 5.2-5.2c0-2.8-2.3-5.2-5.2-5.2z" fill="#253984" stroke-width="none" opacity="1"></path><path id="SvgjsPath8147" d="M119.9 90.6c1.6 0 2.9 1.3 2.9 2.9s-1.3 2.9-2.9 2.9-2.9-1.3-2.9-2.9 1.3-2.9 2.9-2.9z" fill="#000000" stroke-width="none" opacity="1"></path><path id="SvgjsPath8148" d="M118.6 90.5c.6 0 1 .5 1 1s-.5 1-1 1-1-.5-1-1 .5-1 1-1zm3.4 4.7c.2 0 .4.2.4.4s-.2.4-.4.4-.4-.2-.4-.4.2-.4.4-.4z" fill="#ffffff" stroke-width="none" opacity="1"></path></g></g></g><g id="svga-group-eyesfront-right"><path id="SvgjsPath10299" d="M120 83.1c-5.9 0-10.6 5.2-10.6 11.5s4.7 11.5 10.6 11.5 10.6-5.2 10.6-11.5-4.8-11.5-10.6-11.5zm9.1 13.1c-1 .6-4.7 2.7-8.8 2.5-4.1-.2-7.8-2.5-8.5-2.9-.7-.4-1.3-1.1-1.3-1.1s.9-1.9 2.9-3.3c2-1.3 4.8-2.7 9-1.7s6.6 3.3 8.1 5.3c0 .1-.5.6-1.4 1.2z" fill="#e4a97f" stroke-width="none" opacity="1"></path><path id="SvgjsPath10302" d="M111 91.7c4.4-3.6 9.7-4.3 15-2.6.2.1.3-.2.1-.3-5-2.2-11.3-.9-15.2 2.8-.1 0 0 .1.1.1z" fill="#d59161" stroke-width="none" opacity="1"></path><path id="SvgjsPath10303" d="M131.5 95.8c-1.5-3.8-6.8-6.4-10.7-6.6-4.1-.2-8.3 1.6-10.4 5.2-.1 0-.3.2-.2.3 0 .1-.1.1-.1.2-.1.2.2.4.3.2 0 0 0-.1.1-.1 5 5 14.9 5.7 20 .4.2.2.4.4.7.6.1.2.4.1.3-.2zm-11.3 2.6c-3.6-.1-6.7-1.7-9.5-3.7 2.2-3.6 6.4-5.5 10.6-4.8 1.8.3 3.6 1 5.2 2 1.5.9 2.5 2.2 3.7 3.3-3.3 1.9-6.1 3.3-10 3.2z" fill="#1a1100" stroke-width="none" opacity="1"></path></g></g></g><g id="svga-group-facehighlight-single"></g><g id="svga-group-eyebrows-left-move" transform="matrix(1,0,0,1,0,0)"><g id="svga-group-eyebrows-left-rotate" transform="matrix(1,1.7453292519943295e-9,-1.7453292519943295e-9,1,1.4176201545978984e-7,-1.3606350535155798e-7)"><g id="svga-group-eyebrows-left"><path id="SvgjsPath8460" d="M71.9 81.2c.2-.2.4-.3.6-.4.2-.1.4-.2.7-.3.4-.2.8-.4 1.3-.5.5-.2 1.4-.5 1.9-.2 1.7-.6 4-.2 5.6.6 2.1.2 4.3.9 5.9 2 .1.1.2.2.2.3l.9.3c1.1.4 2.3.8 3.4 1.3.1 0 .2.1.3.1.4.2.5.7.2.9-.1.1-.1.2-.3.3-.8.6-2 .2-2.9-.1-.8-.3-1.6-.7-2.2-1.3-.8-.3-1.6-.7-2.3-1.2-.1 0-.2-.1-.3-.1-1.4-.2-2.8-.8-4-1.4h-.1c-.7-.2-1.4-.3-2.2-.3-1-.1-2 .2-3-.1h-.1c-.2.1-.4.1-.6.2-.9.3-1.6.4-2.6.4-.1 0-.2-.1-.2-.2H72s-.2-.2-.1-.3z" fill="#2a232b" stroke-width="none" opacity="1"></path><path id="SvgjsPath8461" d="M76.9 79.1c3.4-.3 6.8 1.7 9.9 2.9 1.9.7 5.8 1 6.5 3.3.1.3-.3.5-.5.2-1-1.4-2.6-1.5-4.1-2-1.3-.4-2.6-.9-3.8-1.4-2.7-1.1-5.3-1.7-8-2.4-.3-.2-.2-.6 0-.6z" fill="#3a353a" stroke-width="none" opacity="1"></path><path id="SvgjsPath8462" d="M94.4 85.2c.3-1.5-2-2.1-3.1-2.5-2.7-1.1-5.4-2.3-8.2-3.1-1.7-.5-3.4-.8-5.1-.8-1.3 0-2.6.1-3.8.5-2.2.7-4.3 1.9-6.2 3.4-1 .6-2 1.3-2.8 2.1-.2.2 0 .4.2.3.1 0 .1 0 .1-.1.1.1.1.1.2.1 1.6-.7 3.1-1.8 4.8-2.5 1.6-.7 3.4-1.1 5.1-1.2h.8c2.1 0 4.1.4 6 1.3 2.6 1.2 5.1 2.8 7.7 3.8.5.2 1 .3 1.6.2 1.3.2 2.4-.3 2.7-1.5zm-16.3-5.4c1.8 0 3.6.4 5.3 1 2.2.8 4.4 1.8 6.6 2.6.4.2 2.6.7 2.8 1.3.2.7-.3.9-.8 1-.3 0-.6-.1-.8-.1-.7-.2-1.3-.6-1.9-.9-3.4-1.7-6.9-3.9-10.8-4.1h-1.1c-1.2 0-2.5.1-3.8.3.6-.2 1.1-.4 1.7-.6.8-.4 1.8-.5 2.8-.5z" fill="#1b141c" stroke-width="none" opacity="1"></path></g></g></g><g id="svga-group-eyebrows-right-move" transform="matrix(1,0,0,1,0,0)"><g id="svga-group-eyebrows-right-rotate" transform="matrix(1,1.7453292519943295e-9,-1.7453292519943295e-9,1,1.4176202967064455e-7,-2.127084570702209e-7)"><g id="svga-group-eyebrows-right"><path id="SvgjsPath8463" d="M128.1 81.2c-.2-.2-.4-.3-.6-.4-.2-.1-.4-.2-.7-.3-.4-.2-.8-.4-1.3-.5-.5-.2-1.4-.5-1.9-.2-1.7-.6-4-.2-5.6.6-2.1.2-4.3.9-5.9 2-.1.1-.2.2-.2.3l-.9.3c-1.1.4-2.3.8-3.4 1.3-.1 0-.2.1-.3.1-.4.2-.5.7-.2.9.1.1.1.2.3.3.8.6 2 .2 2.9-.1.8-.3 1.6-.7 2.2-1.3.8-.3 1.6-.7 2.3-1.2.1 0 .2-.1.3-.1 1.4-.2 2.8-.8 4-1.4h.1c.7-.2 1.4-.3 2.2-.3 1-.1 2 .2 3-.1h.1c.2.1.4.1.6.2.9.3 1.6.4 2.6.4.1 0 .2-.1.2-.2h.1s.2-.2.1-.3z" fill="#2a232b" stroke-width="none" opacity="1"></path><path id="SvgjsPath8464" d="M123.1 79.1c-3.4-.3-6.8 1.7-9.9 2.9-1.9.7-5.8 1-6.5 3.3-.1.3.3.5.5.2 1-1.4 2.6-1.5 4.1-2 1.3-.4 2.6-.9 3.8-1.4 2.7-1.1 5.3-1.7 8-2.4.3-.2.2-.6 0-.6z" fill="#3a353a" stroke-width="none" opacity="1"></path><path id="SvgjsPath8465" d="M108.2 86.8c.5 0 1.1-.1 1.6-.2 2.7-1 5.1-2.7 7.7-3.8 1.9-.9 3.9-1.3 6-1.3h.8c1.8.1 3.5.6 5.1 1.2 1.7.7 3.1 1.7 4.8 2.5.1 0 .2 0 .2-.1 0 0 .1 0 .1.1.2.1.4-.1.2-.3-.8-.8-1.7-1.5-2.8-2.1-1.9-1.4-4-2.7-6.2-3.4-1.2-.4-2.5-.6-3.8-.5-1.7 0-3.4.3-5.1.8-2.8.8-5.5 2-8.2 3.1-1.1.4-3.4 1-3.1 2.5.4 1.1 1.5 1.6 2.7 1.5zm16.7-6.6c.6.2 1.2.4 1.7.6-1.3-.2-2.6-.4-3.8-.3h-1.1c-3.9.2-7.4 2.4-10.8 4.1-.6.3-1.2.7-1.9.9-.2.1-.5.1-.8.1-.6 0-1.1-.3-.8-1 .2-.6 2.4-1.1 2.8-1.3 2.2-.9 4.4-1.9 6.6-2.6 1.7-.6 3.5-1 5.3-1 .8.1 1.8.2 2.8.5z" fill="#1b141c" stroke-width="none" opacity="1"></path></g></g></g><g id="svga-group-beardwrap"><g id="svga-group-beard-single-move" transform="matrix(1,0,0,1,0,0)"><g id="svga-group-beard-single"></g></g></g><g id="svga-group-mustache-single-move" transform="matrix(1,0,0,1,0,0)"><g id="svga-group-mustache-single"></g></g><g id="svga-group-nose-single-move" transform="matrix(1,0,0,1,0,0)"><g id="svga-group-nose-single"><path id="SvgjsPath5830" d="M105.3 106.11c.71.61 3.35 3.77 3.81 4.57.46.8.65 1.98-.04 2.67s-3.08 1.03-3.88.95c0 0-2.32 2.25-3.54 2.55-1.22.3-3.27.27-5.33-1.03S94 114.07 94 114.07s-2.7-.27-3.12-.53c-.42-.27-.95-.69-.65-1.68.3-.99 2.25-4.49 3.2-5.33.95-.84 4.26-2.02 6.09-2.09 1.82-.08 3.34-.43 5.78 1.67z" fill="#e4a97f" stroke-width="none" opacity="1" transform="translate(0 1)" stroke="none"></path><path id="SvgjsPath5831" d="M107.2 113.08c-2.47.1-3.62 3.15-6.14 3.51-3.53.5-5.85-2.23-8.4-4.15-.09-.07-.23.07-.16.16.33.44.71.88 1.1 1.29-.55-.38-.96-.36-1.62-.41-.8-.06-1.39-.39-1.51-1.31-.05-.34.61-1.49.8-1.87.91-1.79 2.21-3.19 3.4-4.77.09-.11-.09-.29-.2-.2-.18.13-.36.29-.53.44.82-1.66 1.6-3.36 2.21-5.08.05-.14-.16-.22-.23-.1-1.02 1.85-1.87 3.85-2.66 5.83-1.45 1.5-2.7 3.54-3.29 5.35-.81 2.52 1.89 2.17 3.5 2.48.19.04.29-.17.18-.3 1.66 1.75 3.82 3.18 6.22 3.38 3.3.27 4.84-2.44 7.42-3.92.15-.09.09-.34-.09-.33z" fill="#b6672f" stroke-width="none" opacity="1" transform="translate(0 1)" stroke="none"></path><path id="SvgjsPath5832" d="M109.8 111.67c-.22-1.1-1.19-2.15-1.85-3.01-.79-1.03-1.64-2.02-2.67-2.82-.2-.15-.37.15-.25.32.98 1.25 2.1 2.37 3.05 3.66.63.86 1.72 2.1.77 3.3-.56.71-1.83.82-2.65 1.03-.1.03-.07.17.02.18 1.61.13 3.98-.58 3.58-2.66z" fill="#b6672f" stroke-width="none" opacity="1" transform="translate(0 1)" stroke="none"></path><path id="SvgjsPath5833" d="M96.77 105.2c2.35-.67 4.5-.61 6.9-.42.17.01.18-.23.04-.29-2.26-.82-4.86-.44-7.03.48-.13.06-.04.26.09.23z" fill="#b6672f" stroke-width="none" opacity="1" transform="translate(0 1)" stroke="none"></path><path id="SvgjsPath5834" d="M104.05 106.81c-1.21-1.66-4-.06-2.78 1.63 1.54 2.12-.33 3.8-2.52 3.97-.63.05-.92.74-.5 1.22 1.49 1.73 4.09 1.25 5.56-.32 1.64-1.79 1.64-4.58.24-6.5z" fill="#ecb68f" stroke-width="none" opacity="1" transform="translate(0 1)" stroke="none"></path></g></g><g id="svga-group-hair-front"><path id="SvgjsPath9619" d="M135.8 66.3c-1 3.3-1 5.1-.9 7.6.1 2.4-1 5.1 1.1 4.8 2.1-.3 4.4-.7 5.7-4.2 1.3-3.5 3-8.2 2.9-10-.1-1.8-3.7-9-3.7-9l-3.3 7.8-1.8 3z" fill="#221b23" stroke-width="none" opacity="1" stroke="none"></path><path id="SvgjsPath9620" d="M143.8 74c.4-3.6 1-8.5.2-9.3-.8-.8-5.6 2.2-6 4.8s-.4 7.5-.4 7.5c-.7 2.7-.8 4-.7 5.8.1 1.8-1 3.9.7 3.6.1 0 .2 0 .2-.1-.3 2.3-.1 3.8.2 5.4.3 2.2-.7 4.5 1 4.6s2.7-.6 3.5-3.8c.8-3.2 1.3-6.4 1.4-9.5.1-2.5.2-6.3-.2-8.4.1-.2.1-.4.1-.6zm-81.6 6.8c-.5-1.6-.3-4-1-5.3s-3.5-6.4-3.5-6.4c-.9 1.8-2.3 3.9-2.3 7.1 0 2.7-.4 4.6.2 6.2-.1 1.2-.1 2.4 0 3.1.2 1.1 1.8 8.1 3.4 9.1 1.4.8 2.4-2.9 2.2-6.2 1.6-2.9 1.5-6.1 1-7.6z" fill="#1b141c" stroke-width="none" opacity="1" stroke="none"></path><path id="SvgjsPath9621" d="M59.3 61c-.9.8-2.3 3.2-2.7 5.7s-.4 5 .1 6.2c.6 1.1 3.6 7.3 5.6 6.3 2-1 1.3-3 1.1-6.2s.1-3.7-.7-6.4c-.8-2.8-3.4-5.6-3.4-5.6zm8.9-37.1c-.7-2.5 3 1.4 2.9 7.5-.1 6.2 1 10.6 3.8 13 2.8 2.4 13.2 11.2 13.2 11.2s-2.4.7-7.2-.7-11-3.5-14.2-7.6-2.3-10.2-.9-13.2c1.4-2.9 3.3-6.9 2.4-10.2zm51.4 32c2.2-.6 5.8-1.7 7.5-.6 1.6 1.1 1.7 4.7 5.3 4.6 3.6-.1 6.8-6.5 6.5-9.4-.2-2.9-2.4-7.8-5.9-9.1-3.5-1.3-3.1 2.6-3.5 4.1-.4 1.5.1 2.5-3.5 5.1-3.5 2.7-6.4 5.3-6.4 5.3z" fill="#221b23" stroke-width="none" opacity="1" stroke="none"></path><path id="SvgjsPath9622" d="M131.3 58.4c-.2 1.1-.4 4.4 1.1 6.4s.6 4.3 3.8 3.1c3.2-1.2 6.9-5.4 6.6-8.5-.2-3.1-2.7-10.6-5.3-12-2.7-1.3-2.9 4.6-2.9 4.6l-3.3 6.4zM66.4 40c-1.8 2.1-4.9 2.8-4.2 6.5s5.4 7.7 9.8 8.3 7.7-.1 8.3-.6-9.6-6.2-9.6-6.2l-4.3-8z" fill="#2a232b" stroke-width="none" opacity="1" stroke="none"></path><path id="SvgjsPath9623" d="M62.8 45.5c-1.2 1-2.4 1.5-2.8 4.4-.4 2.9-.5 3.4 1.2 6.7 1.8 3.3 2 5.3 4.6 4.7 2.6-.6 5.5-2.9 5.2-6.5s-2.7-1.3-3.9-4.5-2.1-3.9-2.1-3.9l-2.2-.9z" fill="#221b23" stroke-width="none" opacity="1" stroke="none"></path><path id="SvgjsPath9624" d="M60.9 52.2c-1.2 1.6-2.6 1.9-2.9 4.9s-1.3 2.9.7 6.4c2 3.5 4 7.7 5.9 5.7s1.6-3 1.9-5.4c.3-2.4-.6-4.9-1.7-7-1.2-2.2-3.9-4.6-3.9-4.6zm34.5 5s-6.4 0-10.1-1.8c-3.7-1.8-11.6-8.7-13.2-13.6s.4-14.4-.8-18.9c0 0 1.5 3.8 2.9 5.8s4.4 2 9.2 4.8 9.1 8.5 9.8 12.8 2.2 10.9 2.2 10.9z" fill="#1b141c" stroke-width="none" opacity="1" stroke="none"></path><path id="SvgjsPath9625" d="M73.7 18.1c-.1-.5-2 6.7 2 10.6S85.9 37 87.2 42.2s.9 6.1 2.3 9.3 3.2 6.4 5.8 7.6c2.6 1.2 7.4-.2 7.4-1s4.1 3.5 6.8 2.2c2.7-1.3 10.3-10.6 11.4-17.2s-2.4-13.6-6.8-14.7-21.6-2.4-25.2-4.3c-3.6-1.9-5.2-3.7-5.6-5.1 0 0-.3 3.4 3 7.4S96 33 96 33s4.7 1.2 5.3 5c0 0-8.2-6.4-15-8.9s-10-.9-12.6-11z" fill="#221b23" stroke-width="none" opacity="1" stroke="none"></path><path id="SvgjsPath9626" d="M104.5 60.4s-4.2.3-5.8-4.5S98 42 95.1 37.1s-13.9-7.4-16.7-10.3c-2.7-2.9-3.8-9.3-3.8-9.3s2.7 7.9 6.7 8.4c3.9.5 17.3 4.9 21.7 6.9s9.1 10.3 8.2 15.5-2.5 12.6-6.7 12.1z" fill="#2a232b" stroke-width="none" opacity="1" stroke="none"></path><path id="SvgjsPath9627" d="M110.6 26.7c.6 0 10.8 2.9 15.9 4.5s17 10.3 4.4 17.8-8 8.8-20.3 10.9c-3.4.6 3.6-5.6 6.3-11 2.7-5.4 2.5-14.6 1-16.6s-7.3-5.6-7.3-5.6z" fill="#1b141c" stroke-width="none" opacity="1" stroke="none"></path><path id="SvgjsPath9628" d="M96.3 58.9c-3.5-3-5.5-6.7-6.4-11.2-.6-3.2-.3-6.8-1.7-9.7-.9-1.8-2.2-3-3.8-4.1-4.4-3.1-7.9-5-9.8-10.5-.1-.2-.4-.1-.3.1.8 3 2.2 5.6 4.6 7.6 4.2 3.7 8.6 4.8 9.5 11.3.8 6.3 1.6 13.5 7.9 16.8-.1 0 .1-.2 0-.3zm2.5-.6c-6.1-2.7-8.2-8.4-8.7-14.6 0-.2-.3-.2-.3 0-.2 6.2 2.7 12.8 8.9 14.9.2 0 .3-.2.1-.3zm3.5.5c-3.5-4-4.4-8.4-4.3-13.6.1-2.9.5-5.9-1.2-8.5-1.4-2.2-3.7-3.1-5.9-4.2-3.7-1.8-7.3-3.6-11-5.1-.1 0-.2.1-.1.2 3.5 2 7.2 3.7 10.8 5.5 2.8 1.4 5.2 2.4 6.3 6 .6 1.9.2 4.2.2 6.1-.2 5.5 1.1 9.9 5 13.8.1.2.4-.1.2-.2zm3.6-.3c-3.7-3.2-1.6-6.9-1.5-11 0-2.6-.7-4.9-2-7.1-.1-.2-.3 0-.2.1 1.1 2.4 1.7 4.9 1.6 7.5-.1 1.8-.8 3.5-.8 5.3-.1 2.3 1 4 2.8 5.3.1.2.2 0 .1-.1zm18.3-25.6c-.2-.1-.3.2-.1.3.8.3 1.6.5 2.4.8v.1c7.6 6.6-2.7 14.6-7.7 18.1-.2.1 0 .4.2.3 5.3-2.8 16-12.5 8.1-18.3 3.1 1.3 3.8 2 4.7 5.5.8 3.2.4 4.9-2 7.4-1.3 1.4-3.1 2.4-4.8 3.4-4.2 2.5-7.9 5.8-12.2 8.2-.1 0 0 .2.1.1 4.4-2 8.1-5.5 12.3-8 2.8-1.7 5.7-3.5 7.1-6.5 3-6.4-2.7-10-8.1-11.4zm-10.5-3.3c-.1 0-.2.2 0 .2 4.6 1 9.8 2.1 10.5 7.7.5 4-2.1 7.8-4.8 10.4-3.5 3.3-7.4 5.9-8.2 11-.1.4.5.6.6.2 1.5-8.6 12.7-10.9 13.2-20.3.4-6.8-5.6-8.8-11.3-9.2zm-1.1 8.2c-4.2-9.5-17.4-8.6-24.7-14.5-.1-.1-.3.1-.2.2 7.2 6.7 18.9 5.6 24.3 14.6.3.3.8 0 .6-.3zm25.8 14.3c-.1-.2-.4-.2-.4 0 .1 5.3-6.3 8.5-4.5 14 .1.2.4.1.3-.1-1.3-5.4 5.8-8.4 4.6-13.9zm3.1 7.4c0-.2-.3-.2-.4 0-.6 1.8-1 3.6-1.9 5.3-.8 1.4-1.9 2.5-2.6 3.9-1 2-1.1 4-.5 6.1.1.2.4.1.3-.1-.6-4 1.4-5.9 3.3-9.1 1.1-1.9 1.6-4 1.8-6.1zm.7 2c0-.3-.4-.2-.5.1-.2 2.2-.4 4.1-1.2 6.1-.1.2.2.4.3.2 1-1.9 1.7-4.2 1.4-6.4zm0 11.7c0-.2-.3-.2-.4-.1-.6 3-1.6 5.7-2.5 8.6-.6 1.9-.8 3.6 0 5.4.1.3.6.1.5-.2-1-2.8.3-5.1 1.2-7.7.8-1.9 1.2-3.9 1.2-6zm-.2 8c-.5 1.1-.6 2.5-.6 3.7 0 .2.4.2.4 0 0-1.2.3-2.3.5-3.5 0-.3-.2-.5-.3-.2zM86.9 53.1c-4.5-1.6-8.2-3.9-10.6-8.2-2.5-4.4-2.2-9-2.3-13.9 0-.3-.5-.3-.5 0-.9 9.7 2.8 20 13.3 22.4.3.1.3-.2.1-.3zm-8.6-2c-2.7-1.7-5.5-4.7-7-7.5-1.9-3.4-1.8-7.3-1.7-11.1 0-.3-.4-.3-.4 0-.5 7.7 1.7 15 9 18.9.1.1.3-.2.1-.3zm-3.7.1c-3.8-1.8-6.7-4.4-8.4-8.4-.1-.2-.5-.2-.4.1 1.2 4 4.4 7.7 8.6 8.7.2.1.4-.3.2-.4zm-4.3 1.6c-1.7-.7-3.3-1.5-4.8-2.5-.1-.1-.2.1-.1.2 1.5 1 3.1 1.9 4.9 2.5.1-.1.1-.2 0-.2zM66 57.6c-1.6-1.5-3.2-2.8-4.4-4.6-.1-.2-.4 0-.3.2 1.2 1.8 2.7 3.6 4.5 4.7.1 0 .3-.2.2-.3zm55.6-20.7c-.4-3.5-3.1-6.2-6.5-6.7-.2 0-.2.2-.1.2 4.1 1.4 7.1 5.1 5.7 9.7-.8 2.6-3 4.6-4.6 6.7-.1.1.1.2.2.1 2.6-2.9 5.8-5.7 5.3-10zm-10.2-3.3c-.2-.2-.4.1-.2.2 5.6 6.5.8 14.3-1.4 21.2-.1.2.2.3.3.1 2.6-6.6 7.5-15.5 1.3-21.5zm-16.7-.9c-.2 0-.3.2-.1.3 8.9 2.5 3.9 14.4 6.7 20.7.1.2.3 0 .3-.1-1.8-6.4 2.2-18.9-6.9-20.9z" fill="#3a353a" stroke-width="none" opacity="1" stroke="none"></path></g><g id="svga-group-glasses-single-move" transform="matrix(1,0,0,1,0,0)"><g id="svga-group-glasses-single"><path id="SvgjsPath9518" d="M72.1 99.8 84.7 90l.2.2-12.7 9.8-.1-.2zm6.2-1-.2-.2 9.8-7.6.2.2-9.8 7.6zm-7.8 0-.2-.2 9.8-7.6.2.2-9.8 7.6z" fill="#ffffff" stroke-width="none" opacity="0.5"></path><path id="SvgjsPath9519" d="M91 100.5H67.8c-.6 0-1.1-.5-1.1-1.1v-8.7c0-.6.5-1.1 1.1-1.1h24.3c.6 0 1.1.5 1.1 1.1v7.6c0 1.3-1 2.2-2.2 2.2z" fill="#ffffff" stroke-width="none" opacity="0.27"></path><path id="SvgjsPath9520" d="m113.5 99.8 12.6-9.8.2.2-12.6 9.8-.2-.2zm6.3-1-.2-.2 9.8-7.6.2.2-9.8 7.6zm-7.8 0-.2-.2 9.8-7.6.2.2-9.8 7.6z" fill="#ffffff" stroke-width="none" opacity="0.5"></path><path id="SvgjsPath9521" d="M108.9 100.2h23.3c.6 0 1.1-.5 1.1-1.1v-8.7c0-.6-.5-1.1-1.1-1.1h-24.3c-.6 0-1.1.5-1.1 1.1V98c-.1 1.2.9 2.2 2.1 2.2z" fill="#ffffff" stroke-width="none" opacity="0.27"></path><path id="SvgjsPath9522" d="M93.2 92.2c2.3 0 4.5-.7 6.8-.7 2.2 0 4.6.7 6.8.7v1.3c-2.2 0-4.6-.7-6.8-.7-2.3 0-4.5.7-6.8.7v-1.3z" fill="#070201" stroke-width="none" opacity="1"></path><path id="SvgjsPath9523" d="M92.1 89.3H65v1.9h1.3v8.3c0 .8.7 1.5 1.5 1.5H91c1.4 0 2.6-1.2 2.6-2.6v-7.6c0-.9-.7-1.5-1.5-1.5zm.7 9c0 1-.8 1.8-1.8 1.8H67.8c-.4 0-.7-.3-.7-.7v-8.7c0-.4.3-.7.7-.7h24.3c.4 0 .7.3.7.7v7.6z" fill="#26120b" stroke-width="none" opacity="1"></path><path id="SvgjsPath9524" d="M135.1 89.3H108c-.8 0-1.5.7-1.5 1.5v7.6c0 1.4 1.2 2.6 2.6 2.6h23.3c.8 0 1.5-.7 1.5-1.5v-8.3h1.3l-.1-1.9zM133 99.4c0 .4-.3.7-.7.7H109c-1 0-1.8-.8-1.8-1.8v-7.6c0-.4.3-.7.7-.7h24.3c.4 0 .7.3.7.7l.1 8.7z" fill="#26120b" stroke-width="none" opacity="1"></path></g></g></g></g></g><rect id="svga-credit-rect" width="200" height="15" x="0" y="185" fill="#ecf0f1" opacity="0.5" style="display: none;"></rect><text id="svga-credit-text" font-family="Avenir Next, Roboto, Helvetica, Arial, sans-serif" font-size="10px" text-anchor="start" font-weight="400" size="10px" anchor="start" weight="400" fill="#333333" x="33.40447998046875" y="182.60824704170227" style="display: none;"><tspan id="SvgjsTspan5634" dy="13" x="33.40447998046875">Created on AvatarMaker.com</tspan></text></g><defs id="SvgjsDefs5581"></defs></svg>